<svg id="Layer_1" data-name="Layer 1" xmlns="http://www.w3.org/2000/svg" viewBox="0 0 1920 1080"><defs><style>.cls-1{fill:#fafafa;}.cls-2{fill:#218838;}.cls-3{fill:#75ba40;}.cls-4{fill:#194055;}.cls-5{fill:#8192c7;}.cls-6{fill:#5e9736;}.cls-7{fill:#617ac9;}.cls-8{fill:#0e6a41;}.cls-9{fill:#3f964f;}.cls-10{fill:#201d40;}.cls-11{fill:#95a6db;}.cls-12{fill:#2c2858;}.cls-13{fill:#f37a50;}.cls-14{fill:#de623c;}.cls-15{fill:#494c7f;}.cls-16{fill:#fff;}.cls-17{fill:#0d0c1a;}.cls-18{fill:#e62552;}.cls-19{fill:#61a62c;}.cls-20{fill:#7f95db;}.cls-21{fill:#b4c2f0;}.cls-22{fill:#28a745;}.cls-23{fill:#e3eaff;}</style></defs><rect class="cls-1" width="1920" height="1080"/><path class="cls-2" d="M1846.24,826s2.68,17.32-16.93,38.74c-20,21.82-23.6,41-23.6,41l-13.87,6s6.75-28.75,23.56-45.44C1836.47,845.43,1846.24,826,1846.24,826Z"/><path class="cls-2" d="M1875.35,846.36s-1.85,12.8-20.09,24.54c-18.63,11.93-25.21,25-25.21,25l-11.4,4.45s11.26-22,26.57-30.81C1864.36,858.43,1875.35,846.36,1875.35,846.36Z"/><path class="cls-2" d="M1814.34,844.57s-12.08,3.71-27.84,31.63c-12.85,22.76-11.85,37.67-19.81,51.58l19-11.11c4.23-10.42.25-19.92,11-41.18C1806.7,855.58,1814.34,844.57,1814.34,844.57Z"/><path class="cls-2" d="M1698.25,902.28s-8.17,10.59-7.22,43.49c.77,26.84,10.89,34.31,11.31,40.6l8.55-10.07c-3-11.59-10-13.08-11.8-37.38C1697.45,916.12,1698.25,902.28,1698.25,902.28Z"/><path class="cls-2" d="M1785.7,854.68s-13.45,18.81-19.3,31.86c-8.34,18.55-4.72,31.63-12,51.25L1740.6,947s-1.86-24.3,9.26-46.73C1768.52,862.67,1785.7,854.68,1785.7,854.68Z"/><path class="cls-2" d="M1749.1,851.66a149,149,0,0,1-11.25,38.21c-16.62,36.42-7.64,72.45-7.64,72.45l-9.61,4.82s-15.84-28.85-1.11-59C1735.1,876.29,1749.1,851.66,1749.1,851.66Z"/><path class="cls-2" d="M1784,919.09s9.14,0,41.35,18c20.63,11.57,17.21,0,35.43,14.88-16-4.59-25.32,5.9-45.08-3.62A309.36,309.36,0,0,0,1767,929.71Z"/><path class="cls-2" d="M1841.68,969.16s-19.16,13.29-48.32-.86a164.75,164.75,0,0,0-56.62-15.74l14.38-13.18s15.58-5.1,44.63,12.84C1815.72,964.54,1841.68,969.16,1841.68,969.16Z"/><path class="cls-2" d="M1813.76,993.7s-19.16,13.28-48.32-.86a164.55,164.55,0,0,0-56.62-15.75l14.37-13.17s15.59-5.11,44.64,12.83C1787.79,989.07,1813.76,993.7,1813.76,993.7Z"/><path class="cls-2" d="M1882.25,916.7s-12.62,5.84-30.74-3.87c-18.38-9.85-33.9-10.82-33.9-10.82l7.38-4.13s9.85-3.23,28.21,8.11C1865.84,913.77,1882.25,916.7,1882.25,916.7Z"/><path class="cls-2" d="M1806.22,909.05s15.26,4.14,36.23,14.78c13.25,6.66,34.34,4.68,34.34,4.68s-21,16.2-40.31,4.82c-22.19-13.06-46.45-18.66-46.45-18.66Z"/><path class="cls-2" d="M1822.75,899.83s19-16.48,40.93-12.62a106.66,106.66,0,0,0,39.14-.77S1884.43,904,1864.68,898c-18.24-5.44-34.71,2.71-34.71,2.71Z"/><path class="cls-2" d="M1703.87,987.41l-2.63-2.65c14.7-18,72.42-72.47,128.4-88.94l.91,3.81C1775.34,915.88,1718.38,969.66,1703.87,987.41Z"/><path class="cls-2" d="M1732.12,878.23q-15-22.5-4-57.93Q1743.82,853.46,1732.12,878.23Z"/><path class="cls-2" d="M1746,845.58q-10.74-22.59,3.57-52.81Q1759.63,825.07,1746,845.58Z"/><path class="cls-2" d="M1761.23,813.27q-7.26-22.89,10-49.07Q1776.67,796.11,1761.23,813.27Z"/><path class="cls-2" d="M1795.57,746.13q-.58,27.45-16.09,38.67Q1777.14,764.37,1795.57,746.13Z"/><path class="cls-2" d="M1817.22,739.75q-4.15,22.51-18.4,29.2Q1799.6,751.78,1817.22,739.75Z"/><path class="cls-2" d="M1809.58,770q6.26-15.72,26.6-20Q1825,769.45,1809.58,770Z"/><path class="cls-2" d="M1784.21,856.41q-22.15,28.73-47.5,25.69Q1750.15,858.15,1784.21,856.41Z"/><path class="cls-2" d="M1763.09,825.37q16.37-14.29,43-5Q1781.82,835.5,1763.09,825.37Z"/><path class="cls-2" d="M1814.17,800.16q-21.12,13.25-37.41,4.4Q1791,792.11,1814.17,800.16Z"/><path class="cls-2" d="M1794.1,786.65q14.25-12.4,37.42-4.39Q1810.39,795.49,1794.1,786.65Z"/><path class="cls-2" d="M1725.57,915.08c10.42-43.17,11.36-39.62,21.51-64.53q4.1-10.09,8.68-19.12a196.39,196.39,0,0,1,22.57-34.09q14.81-18.66,25.46-24.33l.69-.83a.61.61,0,0,1,.71-.43,1,1,0,0,1,.86,0,2.49,2.49,0,0,1,.53.85,1.38,1.38,0,0,1,0,1l-.27.65a2.47,2.47,0,0,1-.77.6V775l-.64.26q-10.31,5.79-24.69,23.81A192.52,192.52,0,0,0,1758.1,833q-4.78,9.12-8.7,18.74l-.67,1.67q14.87-19.36,45.44-15.89-23.2,22.32-45.44,15.89c-9.84,24.55-10.49,20.27-20.63,62.35Z"/><path class="cls-3" d="M1728.44,564.57a14.94,14.94,0,0,1,9.91-3.46c8.32,0,12.72,5,12.72,12.09,0,4.07-1.77,8.21-5.38,12.35-4.59,5.36-7.89,8-10,8a3.65,3.65,0,0,1-3.49-3.87c0-1.9,1.59-3.8,4.34-6.58a3,3,0,0,1,.49-.48c3.12-3.19,4.1-5,4.1-7.13,0-2.71-1.65-4.2-4-4.2a12,12,0,0,0-3.91.81,11.54,11.54,0,0,1-3.31.81,4,4,0,0,1-3.67-4.34A5.27,5.27,0,0,1,1728.44,564.57Zm8.38,45.28c-3.73,0-6.24-3.12-6.24-6.92a6.29,6.29,0,0,1,6.24-6.38c3.24,0,5.75,3.12,5.75,6.38C1742.57,606.66,1740.18,609.85,1736.82,609.85Z"/><path class="cls-3" d="M1843.32,700.38c-10.73,0-19.46-9.68-19.46-21.59s8.73-21.59,19.46-21.59,19.47,9.68,19.47,21.59S1854.05,700.38,1843.32,700.38Zm0-37.24c-7.77,0-14.1,7-14.1,15.65s6.33,15.65,14.1,15.65,14.11-7,14.11-15.65S1851.1,663.14,1843.32,663.14Z"/><path class="cls-3" d="M1876.29,755.11c0,6.58-4.58,11.91-10.22,11.91s-10.21-5.33-10.21-11.91,4.57-11.9,10.21-11.9S1876.29,748.54,1876.29,755.11Z"/><path class="cls-4" d="M974.57,971.11c-70.39-85.2-105.88-176.46-79.84-312,17.22-89.63,72.34-100.34,122.92-154.23,24.95-26.6,9.26-65.31,8.79-103.74-1-98.4,97.74-174.76,188.57-173.17,98.39,1.73,141,111.67,223.51,117.57,32.41.55,61.42-20.59,90.1-37.38,85-49.76,219.77-18,226.58,102.3,1.76,65-43.06,139.05,23.61,173.23,53.14,27.24,85.09,67.76,94.66,165.2,12.54,127.52-53.72,197.51-140.06,230.33Z"/><path class="cls-2" d="M1317.26,935.12q-23.74,8.67-50.55-13.14Q1299.76,915.77,1317.26,935.12Z"/><path class="cls-2" d="M1293.7,911.2q-22.52,4.24-43.87-19.39Q1280.4,891.14,1293.7,911.2Z"/><path class="cls-2" d="M1270.85,886q-21.7.6-38.72-24.86Q1260.94,865.07,1270.85,886Z"/><path class="cls-2" d="M1224.18,830.84q23.19,8.77,28,28Q1234.08,855.12,1224.18,830.84Z"/><path class="cls-2" d="M1225.36,806.79q17.9,11,19.24,27.52Q1230.23,828.4,1225.36,806.79Z"/><path class="cls-2" d="M1248.82,823.63q-11.47-11.08-8.88-33.16Q1253,807.66,1248.82,823.63Z"/><path class="cls-2" d="M1314.59,875.33q17.69,31.23,7.37,56.25Q1305.67,910.69,1314.59,875.33Z"/><path class="cls-2" d="M1281.72,887.68q-7.17-21,8.83-45.49Q1296.07,871.55,1281.72,887.68Z"/><path class="cls-2" d="M1275.86,827.91q4.82,25.55-7.68,39.59Q1261.93,849.23,1275.86,827.91Z"/><path class="cls-2" d="M1258.23,844.41q-6.21-18.27,7.68-39.58Q1270.72,830.39,1258.23,844.41Z"/><path class="cls-2" d="M1346.63,952.8c-33.57-23.52-30.26-23.42-48.37-41.23q-7.34-7.22-13.62-14.58a190.07,190.07,0,0,1-22.13-33.26q-11.35-20.7-12.94-33.29l-.49-1a.7.7,0,0,1-.15-.85,1.25,1.25,0,0,1,.27-.88,1.91,1.91,0,0,1,.89-.29,1,1,0,0,1,.81.3l.47.46a2.93,2.93,0,0,1,.28,1l.13,0,0,.74q1.79,12.25,12.73,32.36a185.42,185.42,0,0,0,22.12,32.71,188.57,188.57,0,0,0,13.3,14.48l1.22,1.19q-12-21,.34-51.21,11.93,30.38-.34,51.21c17.89,17.38,14,16.77,46.78,39.69Z"/><path class="cls-2" d="M1491,801s3.09,14-12.33,32.74c-15.72,19-17.81,35-17.81,35l-11.36,5.69s4.27-23.95,17.57-38.61C1483.73,817.49,1491,801,1491,801Z"/><path class="cls-2" d="M1516.41,816s-.93,10.59-15.67,21.27c-15,10.87-20,22-20,22l-9.34,4.3s8.37-18.63,20.8-26.79C1507.78,826.51,1516.41,816,1516.41,816Z"/><path class="cls-2" d="M1465.11,818.07s-10,3.75-21.83,27.55c-9.68,19.39-8.11,31.56-14.11,43.42l15.36-10.21c3-8.79-.76-16.34,7.23-34.39A235,235,0,0,1,1465.11,818.07Z"/><path class="cls-2" d="M1370.48,872.14s-6.35,9.16-4,36.06c2,21.95,10.81,27.48,11.47,32.6l6.69-8.75c-3.07-9.32-9.07-10.13-11.73-29.94A251.24,251.24,0,0,1,1370.48,872.14Z"/><path class="cls-2" d="M1441.57,828s-10.38,16.2-14.65,27.24c-6.11,15.68-2.43,26.19-7.6,42.69l-11.12,8.37s-2.74-19.8,5.5-38.82C1427.53,835.58,1441.57,828,1441.57,828Z"/><path class="cls-2" d="M1410.69,827.69a120.65,120.65,0,0,1-7.58,32c-12.18,30.81-2.88,59.81-2.88,59.81l-7.84,4.51s-14.7-22.71-3.8-48.28C1400.14,848.7,1410.69,827.69,1410.69,827.69Z"/><path class="cls-2" d="M1443.31,880.9s7.67-.53,35.58,12.36c17.88,8.27,14.45-1,30.46,10.12-13.66-2.83-21,6.32-38-.33a259.67,259.67,0,0,0-41.86-12.44Z"/><path class="cls-2" d="M1494.12,918.56s-15.43,12-40.6,2.12a140.17,140.17,0,0,0-48.29-9.59l11.43-11.64s12.83-5.09,38.09,7.91C1472.1,916.29,1494.12,918.56,1494.12,918.56Z"/><path class="cls-2" d="M1471.88,940.29s-15.44,12-40.6,2.12a140.22,140.22,0,0,0-48.29-9.59l11.42-11.63s12.84-5.1,38.09,7.9C1449.86,938,1471.88,940.29,1471.88,940.29Z"/><path class="cls-2" d="M1525.62,873.21s-10.3,5.52-26-1.38c-15.9-7-29-6.88-29-6.88l6-3.82s8.12-3.22,24.08,5C1511.7,871.77,1525.62,873.21,1525.62,873.21Z"/><path class="cls-2" d="M1461.44,871.38s13,2.5,31.13,10c11.44,4.68,29,1.83,29,1.83s-16.79,14.5-33.59,6.31c-19.27-9.41-39.9-12.58-39.9-12.58Z"/><path class="cls-2" d="M1474.86,862.86s15.18-14.62,33.74-12.74a91.89,91.89,0,0,0,32.82-2.91s-14.59,15.42-31.45,11.71c-15.58-3.39-29,4.25-29,4.25Z"/><path class="cls-2" d="M1379.34,941.56l-2.34-2c11.46-15.59,57.26-63.61,103.45-80.38l.94,3.07C1435.85,878.78,1390.65,926.17,1379.34,941.56Z"/><path class="cls-2" d="M931.69,803.5s-4.29,14.58,10.65,35.67c15.22,21.48,16.27,38.53,16.27,38.53l11.58,7s-2.76-25.69-15.75-42.32C938.16,821.57,931.69,803.5,931.69,803.5Z"/><path class="cls-2" d="M903.72,817.17s.2,11.28,15,23.84c15.12,12.78,19.49,24.92,19.49,24.92l9.56,5.36s-7.49-20.42-20-30.11C912.08,829.05,903.72,817.17,903.72,817.17Z"/><path class="cls-2" d="M957.8,823.79s10.25,4.82,21.07,31c8.81,21.33,6.27,34.05,11.75,47.11l-15.5-12.12c-2.58-9.54,2-17.2-5.13-37A254.39,254.39,0,0,0,957.8,823.79Z"/><path class="cls-2" d="M1053.9,889.06s6,10.23,1.53,38.46c-3.66,23-13.43,28.13-14.5,33.49l-6.44-9.83c3.94-9.58,10.33-9.93,14.59-30.64A266.54,266.54,0,0,0,1053.9,889.06Z"/><path class="cls-2" d="M982,836.34s9.79,18,13.5,30c5.31,17.1.66,27.89,4.92,45.78l11.14,9.81s4.35-20.7-3-41.52C996.25,845.52,982,836.34,982,836.34Z"/><path class="cls-2" d="M1014.63,838.63a128.86,128.86,0,0,0,5.68,34.44c10.62,33.62-1.32,63.48-1.32,63.48l8,5.44s17.2-22.75,7.55-50.71C1024.25,861.74,1014.63,838.63,1014.63,838.63Z"/><path class="cls-2" d="M976.26,892.08s-8.07-1.22-38.52,10c-19.51,7.21-15.2-2.31-32.94,8.08,14.65-1.81,21.7,8.48,40.21,2.92a272.7,272.7,0,0,1,45.16-9.57Z"/><path class="cls-2" d="M919.78,927.54s15.44,14,42.77,5.72a147.88,147.88,0,0,1,51.76-6L1003.08,914s-13.2-6.49-40.85,5.09C943.23,927,919.78,927.54,919.78,927.54Z"/><path class="cls-2" d="M941.71,952.42s15.44,14,42.78,5.73a147.8,147.8,0,0,1,51.75-6L1025,938.87s-13.2-6.49-40.85,5.09C965.16,951.91,941.71,952.42,941.71,952.42Z"/><path class="cls-2" d="M889.8,876.89s10.49,6.72,27.58.78c17.32-6,31.14-4.8,31.14-4.8l-6.06-4.54s-8.34-4.11-25.82,3.21C904.62,876.56,889.8,876.89,889.8,876.89Z"/><path class="cls-2" d="M957.79,880.47s-13.94,1.52-33.64,7.88c-12.45,4-30.84-.55-30.84-.55s16.69,16.77,35.05,9.55c21.06-8.29,43.1-9.87,43.1-9.87Z"/><path class="cls-2" d="M944.22,870.3s-15-16.75-34.74-16.35a98.06,98.06,0,0,1-34.48-5.9s14.29,17.56,32.39,15.07c16.72-2.24,30.36,7,30.36,7Z"/><path class="cls-2" d="M1039.46,961.7l2.61-1.93c-11-17.46-55.88-72.16-103.49-93.84l-1.22,3.16C984.3,890.48,1028.62,944.46,1039.46,961.7Z"/><path class="cls-3" d="M1192.56,331.07a19.16,19.16,0,0,1,12.56-4.28c10.53,0,16.11,6.21,16.11,14.94,0,5-2.24,10.15-6.82,15.27-5.81,6.63-10,9.9-12.63,9.9a4.56,4.56,0,0,1-4.41-4.78c0-2.35,2-4.7,5.5-8.14a3.55,3.55,0,0,1,.62-.59c4-3.94,5.19-6.13,5.19-8.81,0-3.36-2.09-5.2-5.11-5.2a15.42,15.42,0,0,0-5,1,15,15,0,0,1-4.19,1,5.06,5.06,0,0,1-4.65-5.37C1189.77,334.26,1190.7,332.58,1192.56,331.07Zm10.62,56c-4.73,0-7.91-3.86-7.91-8.56a7.87,7.87,0,0,1,7.91-7.88c4.1,0,7.28,3.86,7.28,7.88C1210.46,383.1,1207.44,387,1203.18,387Z"/><path class="cls-4" d="M1590.12,603.2h-126.6a4.23,4.23,0,0,1-4-4.39v-118a4.07,4.07,0,1,1,8.11,0V594.42h122.54a4.4,4.4,0,0,1,0,8.78Z"/><path class="cls-5" d="M1473.11,574.35a3.9,3.9,0,0,1-2.82-1.23,4.66,4.66,0,0,1-.1-6.21l40.92-45.84a3.83,3.83,0,0,1,5.12-.63L1535.57,534,1556,508.36a3.83,3.83,0,0,1,5.71-.46,4.64,4.64,0,0,1,.43,6.19l-22.71,28.58a3.84,3.84,0,0,1-5.28.81l-19.51-13.71L1476,573A3.88,3.88,0,0,1,1473.11,574.35Z"/><polygon class="cls-3" points="1562.21 527.18 1556.44 514.51 1544.01 510.22 1571.67 495.33 1562.21 527.18"/><path class="cls-3" d="M1105.87,393.55c-12.31,0-22.33-10.85-22.33-24.19s10-24.19,22.33-24.19,22.34,10.85,22.34,24.19S1118.19,393.55,1105.87,393.55Zm0-41.72c-8.92,0-16.18,7.86-16.18,17.53s7.26,17.53,16.18,17.53,16.19-7.87,16.19-17.53S1114.8,351.83,1105.87,351.83Z"/><path class="cls-3" d="M984.17,819.69c-8.1,0-14.69-7.14-14.69-15.91s6.59-15.91,14.69-15.91,14.69,7.13,14.69,15.91S992.27,819.69,984.17,819.69Zm0-27.44c-5.87,0-10.64,5.17-10.64,11.53s4.77,11.53,10.64,11.53,10.64-5.18,10.64-11.53S990,792.25,984.17,792.25Z"/><path class="cls-3" d="M1631.71,487.38c0,6.07-4.54,11-10.14,11s-10.13-4.91-10.13-11,4.54-11,10.13-11S1631.71,481.32,1631.71,487.38Z"/><path class="cls-3" d="M1156,330.86c0,7.63-5.71,13.81-12.75,13.81s-12.75-6.18-12.75-13.81,5.71-13.81,12.75-13.81S1156,323.23,1156,330.86Z"/><path class="cls-3" d="M1267.52,631.22c0,7.62-5.71,13.81-12.76,13.81S1242,638.84,1242,631.22s5.71-13.82,12.75-13.82S1267.52,623.59,1267.52,631.22Z"/><ellipse class="cls-6" cx="1395.03" cy="969.84" rx="428.97" ry="38.16"/><polygon class="cls-7" points="1171.98 973.33 1157.07 973.25 1196.28 782.58 1210.54 785.83 1171.98 973.33"/><polygon class="cls-7" points="1533.46 973.33 1548.37 973.25 1509.16 782.58 1494.9 785.83 1533.46 973.33"/><path class="cls-8" d="M1442.63,942.43h0a5.48,5.48,0,0,1-5.25-5.69v-102h10.5v102A5.48,5.48,0,0,1,1442.63,942.43Z"/><path class="cls-8" d="M1316.2,942.43h0a5.48,5.48,0,0,1-5.24-5.69v-102h10.49v102A5.48,5.48,0,0,1,1316.2,942.43Z"/><rect class="cls-9" x="1299.64" y="814.92" width="157.38" height="20.06" rx="10.03"/><path class="cls-10" d="M1425.78,647c9.59,3,46.53,45.95,55.38,77.7-4.79,28.55-46.64,43.37-46.64,43.37l-.7-22.12s13.74-9.91,20-21.25c-10-7.82-29.75-34.12-29.75-34.12Z"/><path class="cls-10" d="M1333.61,647c-9.59,3-33.39,44.28-43.14,81.57a405.22,405.22,0,0,0-45.53,37.73l23.7,1.7s31.1-8.3,47.56-27.66c6.87-15.15,19.08-49.76,19.08-49.76Z"/><polygon class="cls-11" points="1395.3 639.01 1363.01 640.57 1359.75 674.78 1363.27 772.42 1397.32 771.96 1406.22 662.66 1395.3 639.01"/><path class="cls-12" d="M1356.9,587.32c4.5-5.6,8-.17,14.45-7.1s11.56-11.91,17.05-4.6,8.31,8.33,12.3,7.92,4,17.37,4,17.37,9.76-2.79,10.54-14.64c.92-14-5.06-11.87-8.29-23s-15.73-17.45-21.45-14.77c-6,2.82-9.19,5.93-18,3.62s-16.33.49-16.32,12.81-13.37,8.65-9.08,24c1.66,6,6.32,11.47,8.48,11C1353.48,599.29,1354,590.93,1356.9,587.32Z"/><path class="cls-13" d="M1402.2,599.22c-2.15,4.5-1.54,10.06,1.37,12.42s7,.64,9.17-3.86,1.54-10.06-1.37-12.42S1404.35,594.72,1402.2,599.22Z"/><path class="cls-14" d="M1406.09,609.42a.67.67,0,0,0,.24,0,1.16,1.16,0,0,0,.64-1.29c-.43-2.92-.2-5.07.65-6.22a3.31,3.31,0,0,1,3.24-1.09c.44.1.87-.29,1-.87a1.06,1.06,0,0,0-.62-1.25,4.66,4.66,0,0,0-4.71,1.71c-1.3,1.73-1.68,4.49-1.13,8.2A.89.89,0,0,0,1406.09,609.42Z"/><polygon class="cls-14" points="1368.29 647.63 1379.53 657.25 1390.93 647.63 1392.44 624.11 1366.78 624.11 1368.29 647.63"/><path class="cls-12" d="M1333.26,647l.58,125.47c11,9.77,32.54,12.44,32.54,12.44l-3.92-142Z"/><path class="cls-12" d="M1426.77,647l-.59,125.47c-11,9.77-31.55,12.71-31.55,12.71l2.93-142.28Z"/><polygon class="cls-15" points="1346.68 662.96 1365.24 749.68 1362.42 641.32 1346.68 662.96"/><polygon class="cls-15" points="1414.32 656.96 1395.3 750.67 1397.56 642.85 1414.32 656.96"/><path class="cls-13" d="M1379.15,563.76c-33.11-.84-25.55,47.46-23.14,55,1.32,4.14,9.72,20,23.23,20.24,13.51-.23,21.73-16.1,23-20.24C1404.7,611.22,1413.4,564.33,1379.15,563.76Z"/><path class="cls-12" d="M1373.35,598.19a1.63,1.63,0,0,0,.73-.94,1.69,1.69,0,0,0-1-2.09,12.39,12.39,0,0,0-11.2,2,1.75,1.75,0,0,0-.35,2.31,1.46,1.46,0,0,0,2.14.38,9.54,9.54,0,0,1,8.45-1.54A1.4,1.4,0,0,0,1373.35,598.19Z"/><path class="cls-12" d="M1388,598.19a1.63,1.63,0,0,1-.73-.94,1.68,1.68,0,0,1,1-2.09,12.37,12.37,0,0,1,11.19,2,1.75,1.75,0,0,1,.35,2.31,1.46,1.46,0,0,1-2.14.38,9.54,9.54,0,0,0-8.45-1.54A1.4,1.4,0,0,1,1388,598.19Z"/><path d="M1394.16,603.5a2.71,2.71,0,1,1-2.7-2.92A2.81,2.81,0,0,1,1394.16,603.5Z"/><path d="M1371.59,603.08a2.71,2.71,0,1,1-2.7-2.93A2.82,2.82,0,0,1,1371.59,603.08Z"/><path class="cls-14" d="M1380.87,605.32c1.66,4,3.79,9,3.79,9a6.11,6.11,0,0,1-6.53,3.05c2.14-.6,4.32-1.76,3.87-4.8S1380.87,605.32,1380.87,605.32Z"/><polygon class="cls-10" points="1382.47 666.24 1388.14 748.6 1379.65 759.46 1371.15 748.6 1376.94 666.46 1382.47 666.24"/><polygon class="cls-10" points="1385.58 657.39 1379.93 655.79 1374.16 657.67 1376.94 666.61 1382.49 666.5 1385.58 657.39"/><path class="cls-16" d="M1379.65,655.8a29,29,0,0,1-10.38,9.3l-11.14-18.3,4.88-6.23Z"/><path class="cls-16" d="M1379.65,655.8s5.41,6.84,10.67,8.9l10.08-19.76-4.75-5.93Z"/><path class="cls-12" d="M1353,596c3.74,1.35,5-20.84,19.5-10.34,10.24,7.39,29.32,6.22,25.5-3.8a87.76,87.76,0,0,1,7.51,7.34l-6.73-24.13s-27.76-9.45-37.62.12S1353,596,1353,596Z"/><path class="cls-13" d="M1358.73,600.1c2.2,4.67.92,10.16-2.86,12.25s-8.64,0-10.84-4.69-.92-10.16,2.86-12.25S1356.53,595.42,1358.73,600.1Z"/><path class="cls-14" d="M1353,609.91a1,1,0,0,1-.29,0,1.09,1.09,0,0,1-.66-1.35c.8-2.86.73-5-.21-6.25-1.26-1.66-3.82-1.39-3.85-1.39a1,1,0,0,1-1.1-1,1.06,1.06,0,0,1,.88-1.19c.15,0,3.63-.42,5.6,2.14,1.41,1.84,1.61,4.62.58,8.27A1,1,0,0,1,1353,609.91Z"/><path class="cls-14" d="M1380.66,626.87a16.3,16.3,0,0,1-9.06-3.09,1.41,1.41,0,0,1,0-1.89,1.17,1.17,0,0,1,1.64-.12c.35.25,8.6,5.73,14-.71A1.17,1.17,0,0,1,1389,621a1.41,1.41,0,0,1,.08,1.88,10.56,10.56,0,0,1-8,4Z"/><polygon class="cls-10" points="1442.63 793.36 1419.65 770.42 1343.73 770.42 1316.2 793.21 1347.29 817.61 1416.15 817.61 1442.63 793.36"/><g id="c"><path d="M1336,926.23c-7,16.5-32.53,13.74-28,32.07s51.09-10.91,51.09-10.91c-.86-4.47-3.51-15-5.1-19Z"/><path d="M1423.89,925.4c7.34,17.22,33.95,14.34,29.26,33.47s-53.32-11.38-53.32-11.38c.91-4.68,3.67-15.63,5.33-19.79Z"/><path id="c-2" data-name="c" class="cls-12" d="M1357.45,826.24c-.17-26.36-20.72-55.65-41.25-36-21.52,20.61,13.25,137.62,13.25,137.62,12.8,8.28,18.92,8,32.15,0C1361.6,927.85,1357.61,851.68,1357.45,826.24Z"/><path id="c-3" data-name="c" class="cls-12" d="M1406,826.24c.17-26.36,20.45-44.59,36.66-32.88,17.55,12.68-11.17,137.18-11.17,137.18-5,2.59-19.44,4.26-29.52,1.15C1401.94,931.69,1405.81,851.68,1406,826.24Z"/></g><g id="с"><path id="с-2" data-name="с" class="cls-8" d="M1589.14,973.33h0a5.48,5.48,0,0,1-5.25-5.68V867h10.5V967.65A5.48,5.48,0,0,1,1589.14,973.33Z"/><path id="с-3" data-name="с" class="cls-8" d="M1626,973.33h0a5.47,5.47,0,0,1-5.24-5.68V867h10.49V967.65A5.48,5.48,0,0,1,1626,973.33Z"/><path id="с-4" data-name="с" class="cls-8" d="M1674.26,973.33h0a5.47,5.47,0,0,1-5.24-5.68V867h10.49V967.65A5.48,5.48,0,0,1,1674.26,973.33Z"/><path id="с-5" data-name="с" class="cls-8" d="M1711.08,973.33h0a5.48,5.48,0,0,1-5.25-5.68V867h10.5V967.65A5.48,5.48,0,0,1,1711.08,973.33Z"/><path id="с-6" data-name="с" class="cls-9" d="M1653,717.55V837.36a2.38,2.38,0,0,1-2.28,2.47h-68.59c-6.92,0-12.53,6.07-12.53,13.57h0c0,7.49,5.61,13.57,12.53,13.57h83.4c6.92,0,12.53-6.08,12.53-13.57V717.55c0-7.49-5.61-13.57-12.53-13.57h0C1658.64,704,1653,710.06,1653,717.55Z"/><rect id="с-7" data-name="с" class="cls-9" x="1665.56" y="703.98" width="54.23" height="138.05"/><path id="с-8" data-name="с" class="cls-8" d="M1707.26,717.55V837.36a2.38,2.38,0,0,1-2.28,2.47h-68.59c-6.92,0-12.53,6.07-12.53,13.57h0c0,7.49,5.61,13.57,12.53,13.57h83.4c6.92,0,12.53-6.08,12.53-13.57V717.55c0-7.49-5.61-13.57-12.53-13.57h0C1712.87,704,1707.26,710.06,1707.26,717.55Z"/></g><path class="cls-13" d="M1598.53,744.46c5.21,3.14,5.26,22.69,3.47,23.84-60.07,4.52-75.23,2.15-75.23,2.15l.76-11.07S1562.18,747.55,1598.53,744.46Z"/><path class="cls-13" d="M1655.1,708.7c-9.22,16-47.58,59.22-53.85,59.83L1594.17,745s36-51.55,42.35-59.49C1647.55,671.68,1670.21,682.64,1655.1,708.7Z"/><path class="cls-13" d="M1516.5,757.81a71.21,71.21,0,0,1,11.66,1.28l3.48,2-.37,6.4c-5,7.44-20,8.65-21.37,8.65-3.56,0-5.24.24-5.47-.3s-.83-4,4.36-4.21c6.51-.23,2.69-6.21-10.81-2.15-3.38,1-9.4-1.29-7-3.67C1493.7,763.16,1501.28,757.37,1516.5,757.81Z"/><path class="cls-17" d="M1633,623.32c-1.11-16.36,3.26-30.82,15.3-38.18,12.21-7.46,27.51-.14,27.51-.14h0s12.94-5,24.67,9,2.86,26.31,7.66,36.52c2.84,6,17.3,7.29,13.56,27-1.07,5.68-7.38,9.5-12.72,9.88-9.39.67-18.12-3.26-21.93.67-12.53,13-40.31,8.26-44.2-3.58-1.21-3.67-26.19,3.43-23.7-21.58C1620.44,630.23,1634,637.94,1633,623.32Z"/><polygon class="cls-13" points="1655.93 676.21 1675.77 672.24 1683.21 682.96 1667.4 718.07 1644.14 696.69 1655.93 676.21"/><path class="cls-3" d="M1630.21,760.85c.34-6.68-9.63-34.11-4.38-47.91,3.82-11.11,10.21-29.76,18-32.87,3.69-1.47,7.48-2.49,12.08-3.86,0,0-2.59,14,2.81,14.46,10.4.91,17-18.43,17-18.43,5.61-.58,31.33,8.57,31.31,10.86-.06,17.92-13.5,44.06-17.89,63.43-1.73,20.92,5,46,5,48.33,0,0-41.37,12.6-65.9-2C1627.81,790.8,1629.74,770.08,1630.21,760.85Z"/><path class="cls-18" d="M1688,773.37s9.13,25,11.36,40.67S1689,839.83,1689,839.83H1584.47s-11.19-19.66-8-33.23,10.63-15.73,10.63-15.73Z"/><path class="cls-14" d="M1583.07,790.17c13.35-2,52.09,14.26,68.61,49.66h-46.21Z"/><path class="cls-14" d="M1597.71,803.2A40.48,40.48,0,0,1,1593,796c-3.89-7.44-13.28-8.69-18.58-2.36-19.27,23-60.35,75.45-69.5,82-2.59,1.84-17.68,11.25-32,9.39,0,0-7.09,2.92-2.37,9,2.43,3.13,38.9,6.37,38.9,6.37l2.84-11.6c21.23-17,47.66-15.79,70.07-46.9C1594.71,824.78,1597.71,803.2,1597.71,803.2Z"/><path class="cls-10" d="M1502.07,907.1l-14.67,10.32-2-2.6,11.9-12c-6.76-5.78-22.42-.95-22.42-.95-5.13-3.59-15.13-15.23-16.16-21.47,3.28-4.43,14.22,4.69,14.22,4.69-.4,2,3.06,8.81,5.81,10,12,2.8,23.85-.88,33.57-6.23C1512.3,888.81,1520.42,902.14,1502.07,907.1Z"/><path class="cls-13" d="M1597.93,806.33a7.31,7.31,0,0,1,5,6.17c1,8,6.44,24.29-.86,41.32-17.93,41.8-28.52,69.35-30.4,80.14,4.69,9.5-14,35.45-14.26,37.15L1544,966.55s7.72-12.43,10.49-17.29c6.62-11.59,7.7-25.8,8.77-36.82,4.59-47.05-3.3-76.75,28.13-104.35A6.93,6.93,0,0,1,1597.93,806.33Z"/><path class="cls-10" d="M1578.42,953.86l-1.33,18.89-3.13.16-1.61-17.54c-8.34,2.32-14.3,18.73-14.3,18.73-5.74,2.24-20.35,3.8-25.56.9-1.26-5.51,12.07-9.41,12.07-9.41,1.2,1.55,8.32,2.72,10.85,1.06,9.29-8.6,14.35-21.08,16.31-32.69C1571.72,934,1585.9,935.05,1578.42,953.86Z"/><path class="cls-13" d="M1660.94,658.66l16.11-2.62-1.28,16.2s-3.09,7.34-6.66,7.83l-13.18-3.86Z"/><path class="cls-13" d="M1692,635.24c-4.16,18.81-18.59,31.19-32.23,27.66s-21.33-21.66-17.17-40.47,18.59-31.19,32.23-27.65S1696.12,616.43,1692,635.24Z"/><path d="M1649,627.37a2.35,2.35,0,0,1-3.27,1.19,2.74,2.74,0,0,1-1.1-3.54,2.35,2.35,0,0,1,3.27-1.19A2.74,2.74,0,0,1,1649,627.37Z"/><path d="M1668.11,632.49a2.55,2.55,0,0,1-3.54,1.29,3,3,0,0,1-1.19-3.84,2.55,2.55,0,0,1,3.54-1.28A3,3,0,0,1,1668.11,632.49Z"/><path class="cls-17" d="M1671,630.12a.89.89,0,0,1-.42-.47c-1.33-3.09-4.9-3.69-4.94-3.7a1,1,0,0,1-.78-1.12,1,1,0,0,1,1-.85,8.71,8.71,0,0,1,6.34,4.84,1,1,0,0,1-.44,1.32A.87.87,0,0,1,1671,630.12Z"/><path class="cls-17" d="M1643.63,623.54a.72.72,0,0,1-.24-.19,1,1,0,0,1,0-1.4,6.06,6.06,0,0,1,6.4-1.7,1,1,0,0,1,.57,1.26.9.9,0,0,1-1.16.62,4.34,4.34,0,0,0-4.52,1.23A.85.85,0,0,1,1643.63,623.54Z"/><path class="cls-14" d="M1650.52,633.12a25.3,25.3,0,0,1-3.79,3.9,1.09,1.09,0,0,0-.32,1.39c1,2,4,3.62,5.89,4.47a.28.28,0,0,0,.27-.47,13.6,13.6,0,0,1-3-3.79,1.32,1.32,0,0,1,0-1.13c.38-.82,1.14-2.49,1.65-3.87A.44.44,0,0,0,1650.52,633.12Z"/><path class="cls-13" d="M1685.39,635.36c-3.31,2.79-4.29,7.44-2.18,10.38s6.51,3,9.82.26,4.3-7.44,2.19-10.38S1688.71,632.57,1685.39,635.36Z"/><path class="cls-14" d="M1687.28,644.89a.91.91,0,0,1-.32-.3,4.76,4.76,0,0,1-.32-5.51,4.23,4.23,0,0,1,4.84-1.8,1,1,0,0,1,.59,1.26.91.91,0,0,1-1.16.63,2.5,2.5,0,0,0-2.78,1.07,2.72,2.72,0,0,0,.29,3.16,1,1,0,0,1-.18,1.39A.87.87,0,0,1,1687.28,644.89Z"/><path class="cls-16" d="M1665.6,648.12a.8.8,0,0,0-.67-1.27,47.79,47.79,0,0,1-13.79,0,.79.79,0,0,0-.67,1.27,8.76,8.76,0,0,0,15.13,0Z"/><path class="cls-17" d="M1692.29,633.58c-16.28-2.36-39.06-20.33-40.93-29.55,3.15-11.07,19.93-16.64,29.4-11.51S1699.19,619.64,1692.29,633.58Z"/><path class="cls-13" d="M1773.65,650.44a12.74,12.74,0,0,1-7-13.55c-3.84.55-12.55,38.74-14.23,61.53-19.26-10-51.1-21.31-58.26-19.93,0,0-10,.86-9.34,14,.57,11.78,14.45,14.94,14.45,14.94s61,18.52,67.13,12.43C1776,710.43,1771.56,662.13,1773.65,650.44Z"/><path class="cls-13" d="M1783.55,645.65c-3.9,1.79-9.52,1.55-9.78,6l-9.22-1.13-2.16-4.94c2.91-14.31,18.27-24,19.85-24.75,4.1-2,5.91-3.26,6.44-2.78s2.91,4.17-3,7.33c-7.38,4-.07,8.67,13.48-3.69,3.39-3.1,11.43-3.87,9.79.25C1807.16,626.5,1801.26,637.48,1783.55,645.65Z"/><g id="с-9" data-name="с"><path id="с-10" data-name="с" class="cls-8" d="M1147.58,854.13h0a6.36,6.36,0,0,1,6.36,6.36V974.63a0,0,0,0,1,0,0h-12.71a0,0,0,0,1,0,0V860.49A6.36,6.36,0,0,1,1147.58,854.13Z" transform="translate(2295.16 1828.75) rotate(180)"/><path id="с-11" data-name="с" class="cls-8" d="M1103,854.13h0a6.36,6.36,0,0,1,6.36,6.36V974.63a0,0,0,0,1,0,0h-12.71a0,0,0,0,1,0,0V860.49A6.36,6.36,0,0,1,1103,854.13Z" transform="translate(2205.95 1828.75) rotate(180)"/><path id="с-12" data-name="с" class="cls-8" d="M1038.09,968.19a6.41,6.41,0,0,0,6.36,6.44h0a6.41,6.41,0,0,0,6.36-6.44V854.13h-12.72Z"/><path id="с-13" data-name="с" class="cls-8" d="M999.85,854.13h0a6.36,6.36,0,0,1,6.36,6.36V974.63a0,0,0,0,1,0,0H993.49a0,0,0,0,1,0,0V860.49A6.36,6.36,0,0,1,999.85,854.13Z" transform="translate(1999.7 1828.75) rotate(180)"/><path id="с-14" data-name="с" class="cls-9" d="M1070.18,673.11V818.26a2.88,2.88,0,0,0,2.76,3H1156c8.39,0,15.18,7.36,15.18,16.44h0c0,9.08-6.79,16.44-15.18,16.44H1055c-8.39,0-15.18-7.36-15.18-16.44V673.11c0-9.08,6.79-16.44,15.18-16.44h0C1063.38,656.67,1070.18,664,1070.18,673.11Z"/><rect id="с-15" data-name="с" class="cls-9" x="989.3" y="656.67" width="65.7" height="167.25" transform="translate(2044.3 1480.58) rotate(180)"/><path id="с-16" data-name="с" class="cls-8" d="M1004.48,673.11V818.26a2.89,2.89,0,0,0,2.76,3h83.1c8.38,0,15.18,7.36,15.18,16.44h0c0,9.08-6.8,16.44-15.18,16.44h-101c-8.38,0-15.18-7.36-15.18-16.44V673.11c0-9.08,6.8-16.44,15.18-16.44h0C997.68,656.67,1004.48,664,1004.48,673.11Z"/></g><g id="c-4" data-name="c"><g id="c-5" data-name="c"><path class="cls-13" d="M1183.64,674c-4.13-4.67-8.9-6.65-9-15.11,0-3.08.22-6.29.38-10,.24-5.76,1.29-10.6,2.4-10.84,2.52-.55,3.35,1,3.75,4.36.31,2.63-1.08,6.13.65,7.63,1.53,1.34,3.71,2.2,9-4.48,6.76-8.53,7.79-12.8,10.61-10.72,1.85,1.37-1.21,5.91-7.43,14.1,4.67-2.83,10.33-15.88,13.78-12.47,2.5,2.48-8.5,14.63-11.81,17,7-3,11.86-14,13.79-12.85,4,2.57-4.45,13.17-10.53,16.23,6.55-1.23,8.74-7.85,10.44-6.48,3.17,2.54-6.43,13.46-13.65,17.18Z"/><path class="cls-14" d="M1185.64,653.5c.6,2.11,1.26,4.91-.37,7.76s-5.09,3.17-5.09,3.17a5.38,5.38,0,0,0,6.25-2.28,7.6,7.6,0,0,0-.79-8.65Z"/><path id="c-6" data-name="c" class="cls-19" d="M1133.92,701.49c14.14-11.65,34.62-37.52,34.62-37.52,8.11,3.84,12.4,13.56,12.4,13.56-9.79,38.2-40.15,69.85-54,72.14-12.6,2.09-44.53-63.79-29-95.74l6.47-1.55C1122,661.76,1133.92,701.49,1133.92,701.49Z"/></g><path class="cls-13" d="M1206.08,954.94l15.08,4.14,6.16-14.55c-.64-.51-1.63-10.18-2.24-17.55l-24.34,3.64A215,215,0,0,0,1206.08,954.94Z"/><path class="cls-10" d="M1232.69,963.52s5.22-9.5,11.82-10.1c0,0,12.47.78,16.85,6.46,1.37,1.78.84,5.59.3,8-.34,1.53-1.53,3.18-5.22,4.43-5.44,1.86-12.78,3-26.31-.8-16.22-4.56-18.81-2.68-24.81-4.78-6.21-2.16-4.22-10.39-2.52-18.41C1202.8,948.34,1207.32,958.15,1232.69,963.52Z"/><path class="cls-12" d="M1227.73,943.11a60.43,60.43,0,0,0,16.71,7.1c5.3,1.32,19.42,4.29,17.14,14.48-.33,1.52-1.53,3.18-5.21,4.43-5.44,1.86-12.79,3-26.31-.8-16.23-4.56-18.82-2.68-24.82-4.78-6.21-2.16-3.34-11.5-1.65-19.52h0c.16,2,1,7.37,12.3,12.15C1219.26,957.6,1216.51,941.53,1227.73,943.11Z"/><path class="cls-15" d="M1225.62,955.39a1.32,1.32,0,0,0,1.16-1,6.84,6.84,0,0,1,6.1-5.35,1.36,1.36,0,0,0,1.21-1.46,1.32,1.32,0,0,0-1.34-1.31,9.43,9.43,0,0,0-8.46,7.45,1.4,1.4,0,0,0,.93,1.68A1.11,1.11,0,0,0,1225.62,955.39Z"/><path class="cls-15" d="M1231.57,958a1.29,1.29,0,0,0,1.15-1.05,6.85,6.85,0,0,1,6.11-5.35,1.36,1.36,0,0,0,1.21-1.46,1.33,1.33,0,0,0-1.34-1.31,9.42,9.42,0,0,0-8.46,7.45,1.4,1.4,0,0,0,.93,1.69A1.35,1.35,0,0,0,1231.57,958Z"/><path class="cls-13" d="M1147.17,961.09l14.77,5.28,7.09-14c-.61-.56-2.73-10.78-2.85-18.17l-22.76,2.27A214.81,214.81,0,0,0,1147.17,961.09Z"/><path class="cls-10" d="M1122.64,778.93c33.69,6.67,81.53,30.3,86.25,35.68,9.75,11.1,14.52,49.29,19.12,117.32l-29.48,2.13c-10.88-53.14-21.12-76.31-22.79-97.89,0,0-25.84,1.93-64.71-14.31-19.16-8-39.13-17.36-33.39-36.11C1082.22,770.81,1090.52,772.58,1122.64,778.93Z"/><path class="cls-12" d="M1085,782.11c28,3.13,65.31,37.82,70,43.19,9.75,11.11,11,49,15.58,117.06l-29.34,2.93c-4.75-35.25-18.64-75.62-18.6-101.5,0,0-26.26-6.17-66.91-16.07-22.24-5.42-28.91-9.15-33.17-24.87-1.44-5.35-3.41-17.75-1.19-20.52C1031.19,770.09,1058.48,779.15,1085,782.11Z"/><path class="cls-10" d="M1173.16,971.68s5.82-9.08,12.45-9.17c0,0,12.38,1.72,16.38,7.72,1.25,1.88.48,5.64-.22,8-.44,1.49-1.73,3-5.49,4-5.55,1.44-13,2-26.2-2.81-15.89-5.78-18.59-4.11-24.44-6.65-6.06-2.64-3.53-10.69-1.32-18.56C1144.32,954.26,1148.2,964.39,1173.16,971.68Z"/><path class="cls-12" d="M1169.53,950.94a61.44,61.44,0,0,0,16.21,8.36c5.2,1.72,19.09,5.75,16.16,15.75-.44,1.49-1.73,3.05-5.49,4-5.55,1.44-13,2-26.19-2.81-15.89-5.78-18.6-4.11-24.44-6.65-6.06-2.64-2.6-11.73-.38-19.6h0c0,2,.54,7.43,11.47,13.06C1160.14,964.75,1158.44,948.51,1169.53,950.94Z"/><path class="cls-15" d="M1164.15,963.56a1.31,1.31,0,0,0,1.16-1,6.85,6.85,0,0,1,6.11-5.35,1.35,1.35,0,0,0,1.2-1.46,1.31,1.31,0,0,0-1.34-1.31,9.44,9.44,0,0,0-8.46,7.45,1.41,1.41,0,0,0,.94,1.69A1.29,1.29,0,0,0,1164.15,963.56Z"/><path class="cls-15" d="M1170.1,966.15a1.32,1.32,0,0,0,1.16-1,6.85,6.85,0,0,1,6.1-5.36,1.34,1.34,0,0,0,1.21-1.46,1.32,1.32,0,0,0-1.34-1.31,9.44,9.44,0,0,0-8.46,7.46,1.32,1.32,0,0,0,1.33,1.72Z"/><polygon id="v-2" class="cls-14" points="1066.49 619.99 1066.5 619.99 1077.67 620.03 1080.19 648.59 1067.16 656.05 1053.26 648.68 1055.51 620.03 1066.49 619.99"/><path class="cls-12" d="M1065,616.64c-9.63,3.67-17.63-8.75-17.63-8.75-6.28.39-6.62-6.39-6.62-6.39-3.07-.26-7.59-2.67-7.58-8.91,0-5.28,4.6-6.15,4-12.19-.51-4.84-6-15.66,7.71-19.94,0,0-1.48-8.86,6.45-13,9.73-5.07,13.65,1,18.39,1.1,5.3.12,15.06-7.5,19.08,4.75,0,0,7.2-1.56,11.67,3.29,4.16,4.52,3.75,11.69,2.2,14.67,0,0,6.18.72,8.72,6.3,1.71,3.74,1.34,9.2-1.78,12.56a10.71,10.71,0,0,1-4.16,2.82c-2.26,1-1,7.83-2.8,9.65a48.76,48.76,0,0,1-9.6,7.35Z"/><path class="cls-13" d="M1045.75,601.11c1.84,19.93,17.33,36.13,31.78,34.57s22.41-20.31,20.57-40.24-15-34.83-29.51-33.26S1043.91,581.17,1045.75,601.11Z"/><path d="M1090.6,602.67a2.5,2.5,0,0,0,3.21,1.72,2.8,2.8,0,0,0,1.58-3.47,2.49,2.49,0,0,0-3.2-1.72A2.8,2.8,0,0,0,1090.6,602.67Z"/><path d="M1071.11,603.09a2.7,2.7,0,0,0,3.47,1.86,3,3,0,0,0,1.71-3.76,2.69,2.69,0,0,0-3.47-1.85A3,3,0,0,0,1071.11,603.09Z"/><path class="cls-14" d="M1082.66,603.22c2.53,3.83,5.73,8.49,5.73,8.49a6.79,6.79,0,0,1-6.22,4.71c2.12-1.12,4.17-2.85,3.1-5.92S1082.66,603.22,1082.66,603.22Z"/><path class="cls-12" d="M1067.71,599.64a1,1,0,0,1-.28-.13,1.42,1.42,0,0,1-.47-1.86c.93-1.79,3.68-4.88,7.38-3.74a1.39,1.39,0,0,1,.87,1.69,1.26,1.26,0,0,1-1.56.94c-2.73-.84-4.48,2.43-4.5,2.46A1.22,1.22,0,0,1,1067.71,599.64Z"/><path class="cls-12" d="M1090.42,597.2a1.07,1.07,0,0,1-.47-.31,1.21,1.21,0,0,1,0-1.61,5,5,0,0,1,3.75-1.43,5.35,5.35,0,0,1,3.82,2.76,1.18,1.18,0,0,1-.25,1.58,1,1,0,0,1-1.46-.27,3.49,3.49,0,0,0-2.31-1.81,2.93,2.93,0,0,0-2.1.82A1,1,0,0,1,1090.42,597.2Z"/><path class="cls-12" d="M1101.46,575.18l-32.32-19.84-30.61,27.14,9.67,25.9c-1.63-12.64,6.21-10.29,9.11-14.78s3.39-10.68,13.07-7.64c0,0,6-6.9,11.07-.36,3.94,5,7.5,3.07,11.34,2.48,4.52-.7,4.4,4.23,7.09,3.44Z"/><path class="cls-13" d="M1049.73,599.25c3.06,3.35,3.47,8.27.94,11s-7.07,2.18-10.12-1.17-3.47-8.27-.94-11S1046.68,595.89,1049.73,599.25Z"/><path class="cls-14" d="M1046.6,608.75a1,1,0,0,0,.37-.25,4.94,4.94,0,0,0,1-5.62,4.48,4.48,0,0,0-4.75-2.56,1,1,0,0,0-.76,1.2,1,1,0,0,0,1.11.82,2.67,2.67,0,0,1,2.72,1.51,2.79,2.79,0,0,1-.7,3.2,1.1,1.1,0,0,0,0,1.46A.92.92,0,0,0,1046.6,608.75Z"/><path class="cls-16" d="M1088.61,622.72a.91.91,0,0,0-.71-1.48,54.74,54.74,0,0,1-15.74-.82.9.9,0,0,0-.83,1.4,10.69,10.69,0,0,0,8.42,5.42A10.49,10.49,0,0,0,1088.61,622.72Z"/><g id="v"><path class="cls-3" d="M1021.38,782.88s23.37,2.61,45.27,2.77c21.89-.17,45.26-4.77,45.26-4.77s-2.94-43.56-2.64-60.29c.42-19.2-1.14-44.67-1.14-70.05,0,0-15.53-2.71-24.29-3.88-1.43-.19-2.67-.34-3.64-.43,0,0-5,11.34-26.75,0a25.6,25.6,0,0,0-4.14,0c-9.14.59-23.85,4.33-23.85,4.33,0,25.31-1,50.12-.63,69.33C1023.85,737,1021.38,782.88,1021.38,782.88Z"/></g><g id="c-7" data-name="c"><path class="cls-13" d="M1082,719.85c-1.76-5.85-5.1-9.68-1.93-17,1.16-2.64,2.59-5.29,4.14-8.42,2.41-4.82,5.15-8.5,6.2-8.21,2.36.66,2.5,2.31,1.55,5.41-.74,2.39-12.44-11.19-11.54-9.13.8,1.82,11.52,19.5,18.61,16.14,9-4.28,11.54-7.48,13.17-4.44,1.06,2-3.28,4.52-11.74,8.76,5.08-.34,14.91-9,16.56-4.52,1.19,3.24-12.85,8.73-16.61,9.32,7.08.58,15.48-6.67,16.71-4.84,2.4,4-8.83,9.29-15.2,9.19,6.07,1.88,10.47-2.81,11.4-.88,1.75,3.6-10.63,8.66-18.23,8.62Z"/><path id="c-8" data-name="c" class="cls-19" d="M1029.93,714.11c17.72-1.34,48-10.82,48-10.82,4.84,8,3.5,18.71,3.5,18.71-27.52,26.13-68.93,34.57-81.64,28.28-11.6-5.74-3.41-82.22,25.72-99.74l1,.1C1036.45,668.94,1029.93,714.11,1029.93,714.11Z"/></g><path class="cls-19" d="M1049.31,646.21h0a16.11,16.11,0,0,0,6.67,6.45,30.48,30.48,0,0,0,15.28,3.38,16.82,16.82,0,0,0,8.94-3.6,11.37,11.37,0,0,0,3.64-5.79c-1.43-.19-2.89-.43-3.86-.52,0,0-4.78,11.43-26.53.09A25.6,25.6,0,0,0,1049.31,646.21Z"/></g><path class="cls-20" d="M1109.82,768.19h101.24l20-68.81c.92-3.18-1.27-6.42-4.35-6.42H1135a4.62,4.62,0,0,0-4.35,3.46Z"/><path class="cls-11" d="M1117.5,768.19h101.24l20-68.81c.92-3.18-1.27-6.42-4.35-6.42h-91.69a4.62,4.62,0,0,0-4.35,3.46Z"/><path class="cls-21" d="M1177.1,731.93c-1.11,4.25.87,8.59,4.44,9.69s7.36-1.46,8.47-5.72-.87-8.58-4.43-9.68S1178.22,727.68,1177.1,731.93Z"/><path class="cls-20" d="M1052.3,761h65.2v7h-71.67A6.76,6.76,0,0,1,1052.3,761Z"/><path class="cls-20" d="M1588.19,768.19h-98.51l-19.45-67c-.9-3.09,1.24-6.24,4.23-6.24h89.22a4.49,4.49,0,0,1,4.23,3.36Z"/><path class="cls-11" d="M1580.72,768.19H1482.2l-19.44-67c-.9-3.09,1.23-6.24,4.23-6.24h89.22a4.48,4.48,0,0,1,4.22,3.36Z"/><path class="cls-21" d="M1522.72,732.91c1.08,4.14-.85,8.35-4.32,9.42s-7.15-1.42-8.24-5.56.85-8.35,4.32-9.42S1521.63,728.77,1522.72,732.91Z"/><path class="cls-20" d="M1644.15,761.2h-63.43V768h69.73A6.58,6.58,0,0,0,1644.15,761.2Z"/><g id="с-17" data-name="с"><path id="с-18" data-name="с" class="cls-7" d="M1683.22,786.59H1014.06c-7.1,0-12.85-4.19-12.85-9.36h0c0-5.18,5.75-9.37,12.85-9.37h669.16c7.1,0,12.85,4.19,12.85,9.37h0C1696.07,782.4,1690.32,786.59,1683.22,786.59Z"/></g><path class="cls-21" d="M1432.79,764H1320.42l-4.2-70.07c-.28-4.67,3.14-8.61,7.45-8.61h105.87c4.31,0,7.72,3.94,7.44,8.61Z"/><path class="cls-11" d="M1432.79,767.86H1320.42l-4.2-70.07c-.28-4.66,3.14-8.61,7.45-8.61h105.87c4.31,0,7.72,4,7.44,8.61Z"/><path class="cls-21" d="M1381.48,731.9a6.72,6.72,0,1,1-6.7-7.25A7,7,0,0,1,1381.48,731.9Z"/><path id="c-9" data-name="c" class="cls-13" d="M1429.21,763.35a3.13,3.13,0,0,1,.71-.74l-.14-.1c-2.74-2.15-3.8-5.6-2.38-7.72a3.2,3.2,0,0,1,.85-.87c-1.23-1.91-1.48-4.11-.47-5.62a3.42,3.42,0,0,1,1.62-1.29,5.2,5.2,0,0,1-.47-5.89c1.42-2.13,4.46-2.36,6.8-.54s3.07,5,1.65,7.16A3.89,3.89,0,0,1,1436,749c2.18,2.15,2.93,5.15,1.65,7.07a3.52,3.52,0,0,1-.85.87c1.22,1.91,1.48,4.1.46,5.62a3.34,3.34,0,0,1-1.48,1.23,4.43,4.43,0,0,1,.54,5.17c-1.2,1.79-3.77,2-5.74.45S1428,765.14,1429.21,763.35Z"/><path id="c-10" data-name="c" class="cls-13" d="M1260.91,772a3.3,3.3,0,0,1-.65-.79.71.71,0,0,1-.1.14c-2.11,2.85-5.35,3.83-7.24,2.19a3.24,3.24,0,0,1-.75-1c-1.83,1.23-3.86,1.4-5.21.22a3.59,3.59,0,0,1-1.1-1.81,4.25,4.25,0,0,1-5.46.2c-1.89-1.64-2-4.95-.15-7.38s4.79-3.06,6.68-1.42a4,4,0,0,1,1.08,1.52c2.09-2.24,4.9-2.9,6.6-1.42a3.54,3.54,0,0,1,.76,1c1.82-1.22,3.86-1.39,5.21-.22a3.73,3.73,0,0,1,1.05,1.67,3.64,3.64,0,0,1,4.8-.32c1.59,1.39,1.64,4.18.12,6.23S1262.5,773.35,1260.91,772Z"/><polygon class="cls-7" points="1030.31 973.33 1015.41 973.25 1054.61 782.58 1068.87 785.83 1030.31 973.33"/><polygon class="cls-7" points="1648.93 973.33 1663.84 973.25 1624.63 782.58 1610.37 785.83 1648.93 973.33"/><rect class="cls-22" x="1081.14" y="439.11" width="132.87" height="79.74" rx="37.89" transform="translate(2295.16 957.95) rotate(180)"/><path class="cls-22" d="M1100,515.27V545a2.07,2.07,0,0,0,4,1l14.4-30.71Z"/><path class="cls-23" d="M1098.47,464h97a7.06,7.06,0,0,0,6.76-7.32h0a7.05,7.05,0,0,0-6.76-7.31h-97a7,7,0,0,0-6.75,7.31h0A7.05,7.05,0,0,0,1098.47,464Z"/><path class="cls-23" d="M1098.47,487.23h97a7.06,7.06,0,0,0,6.76-7.32h0a7.05,7.05,0,0,0-6.76-7.31h-97a7,7,0,0,0-6.75,7.31h0A7.05,7.05,0,0,0,1098.47,487.23Z"/><rect class="cls-23" x="1091.72" y="495.8" width="73.75" height="14.63" rx="7.31" transform="translate(2257.19 1006.23) rotate(180)"/><rect class="cls-22" x="1205.5" y="460.67" width="143.76" height="101.3" rx="40.99"/><path class="cls-22" d="M1328.91,558.1v32.12a2.24,2.24,0,0,1-4.28,1.11L1309,558.1Z"/><path class="cls-3" d="M1708.74,481.83l-123-52.07c-7.82-3.3-11.68-12.85-8.62-21.31l56.28-156c3.05-8.46,11.86-12.65,19.68-9.34l123,52.07c7.82,3.31,11.68,12.85,8.63,21.31l-56.28,156C1725.36,481,1716.55,485.14,1708.74,481.83Z"/><polygon class="cls-16" points="1633.68 420.69 1621.57 415.56 1663.58 299.11 1675.7 304.24 1633.68 420.69"/><polygon class="cls-16" points="1651.78 428.35 1639.66 423.22 1681.68 306.77 1693.79 311.89 1651.78 428.35"/><polygon class="cls-16" points="1669.88 436 1657.76 430.88 1699.77 314.43 1711.89 319.55 1669.88 436"/><polygon class="cls-16" points="1687.97 443.66 1675.86 438.54 1717.87 322.08 1729.98 327.21 1687.97 443.66"/><polygon class="cls-16" points="1706.07 451.32 1693.95 446.19 1735.97 329.74 1748.08 334.87 1706.07 451.32"/><polygon class="cls-16" points="1677.23 300 1665.11 294.87 1667.33 288.72 1679.44 293.85 1677.23 300"/><polygon class="cls-16" points="1655.58 302.81 1643.46 297.69 1645.68 291.54 1657.8 296.66 1655.58 302.81"/><polygon class="cls-16" points="1648.58 322.22 1636.46 317.1 1638.68 310.94 1650.8 316.07 1648.58 322.22"/><polygon class="cls-16" points="1641.57 341.63 1629.46 336.5 1631.68 330.35 1643.79 335.48 1641.57 341.63"/><polygon class="cls-16" points="1634.57 361.04 1622.46 355.91 1624.68 349.76 1636.79 354.89 1634.57 361.04"/><polygon class="cls-16" points="1634.57 361.04 1622.46 355.91 1624.68 349.76 1636.79 354.89 1634.57 361.04"/><polygon class="cls-16" points="1627.57 380.45 1615.45 375.32 1617.67 369.17 1629.79 374.3 1627.57 380.45"/><polygon class="cls-16" points="1620.57 399.86 1608.45 394.73 1610.67 388.58 1622.79 393.7 1620.57 399.86"/><polygon class="cls-16" points="1695.32 307.66 1683.21 302.53 1685.43 296.38 1697.54 301.51 1695.32 307.66"/><polygon class="cls-16" points="1713.42 315.32 1701.3 310.19 1703.52 304.04 1715.64 309.17 1713.42 315.32"/><polygon class="cls-16" points="1731.51 322.97 1719.4 317.85 1721.62 311.7 1733.73 316.82 1731.51 322.97"/><polygon class="cls-16" points="1749.61 330.63 1737.49 325.5 1739.71 319.35 1751.83 324.48 1749.61 330.63"/><path class="cls-16" d="M1756.11,313.37l-94.29-39.9a7.93,7.93,0,0,1-4-10h0a7,7,0,0,1,9.22-4.37l94.29,39.9a7.92,7.92,0,0,1,4,10h0A7,7,0,0,1,1756.11,313.37Z"/><rect class="cls-3" x="1289.99" y="295.13" width="131.93" height="99.08" rx="14.18"/><rect class="cls-16" x="1297.21" y="313.65" width="105.09" height="14.95" rx="7.48"/><rect class="cls-16" x="1297.21" y="340.78" width="63.41" height="7.48" rx="3.74"/><rect class="cls-16" x="1297.21" y="370.89" width="45.24" height="7.48" rx="3.74"/><rect class="cls-16" x="1297.21" y="354.88" width="76.76" height="7.48" rx="3.74"/><path class="cls-23" d="M1230.25,491.66h97a7,7,0,0,0,6.75-7.31h0a7.05,7.05,0,0,0-6.75-7.32h-97a7.06,7.06,0,0,0-6.76,7.32h0A7.06,7.06,0,0,0,1230.25,491.66Z"/><path class="cls-23" d="M1231.18,518.4h97a7.05,7.05,0,0,0,6.75-7.32h0a7,7,0,0,0-6.75-7.31h-97a7.05,7.05,0,0,0-6.76,7.31h0A7.06,7.06,0,0,0,1231.18,518.4Z"/><path class="cls-23" d="M1230.25,547.9h97a7,7,0,0,0,6.75-7.31h0a7.05,7.05,0,0,0-6.75-7.32h-97a7.06,7.06,0,0,0-6.76,7.32h0A7.05,7.05,0,0,0,1230.25,547.9Z"/></svg>