<svg id="Layer_1" data-name="Layer 1" xmlns="http://www.w3.org/2000/svg" xmlns:xlink="http://www.w3.org/1999/xlink" viewBox="0 0 1920 1080"><defs><style>.cls-1{fill:#f8f9fa;}.cls-2{fill:#397487;}.cls-3{fill:#2b5468;}.cls-4{fill:#326377;}.cls-5{fill:#71b744;}</style></defs><rect class="cls-1" width="1920" height="1080"/><polygon class="cls-2" points="480.29 329.5 480.29 379.5 457.92 379.5 457.92 442.5 410.68 442.5 410.68 1013.5 615.77 1013.5 615.77 446.5 571.02 444.5 568.54 379.5 546.16 379.5 546.16 329.5 480.29 329.5"/><polygon class="cls-3" points="677.87 752 677.87 1025 800.35 1024.77 800.35 752 677.87 752"/><polygon class="cls-4" points="546.16 521.5 546.16 1013.5 718.79 1013.5 718.93 606.5 546.16 521.5"/><polygon class="cls-2" points="257.8 752.5 257.8 1024.73 369.67 1024.5 369.67 752.5 257.8 752.5"/><polygon class="cls-4" points="346.05 633.5 346.05 656.5 307.52 656.5 307.52 1016.68 477.37 1013.5 477.8 656.5 446.73 654.5 444.24 633.5 346.05 633.5"/><path class="cls-5" d="M46.5,1080.5s445-180,969.5,0Z"/><image width="7849" height="1762" transform="translate(64 61) scale(0.03 0.03)" xlink:href="../../Layboard/assets/img/Layboard%20Logo.png"/></svg>