<svg id="Layer_1" data-name="Layer 1" xmlns="http://www.w3.org/2000/svg" viewBox="0 0 1366 769.01"><defs><style>.cls-1{fill:#f8f9fa;}.cls-2{fill:#397487;}.cls-3{fill:#2b5468;}.cls-4{fill:#71b744;}.cls-5{fill:#6eb744;}.cls-6{fill:#31657b;}.cls-7{fill:#1c4354;}.cls-8{fill:#285568;}.cls-9{fill:#fff;}.cls-10{fill:#1d4454;}</style></defs><rect class="cls-1" width="1366" height="767.64"/><line class="cls-1" x1="376" y1="343.01" x2="376" y2="402.01"/><polygon class="cls-2" points="175 491.01 175 743.01 233 743.01 233 574.01 270 574.01 270 491.01 175 491.01"/><rect class="cls-3" x="241" y="583.01" width="57" height="156"/><polygon class="cls-3" points="248 396.01 248 482.01 278 482.01 278 574.01 307 574.01 307 741.01 360 741.01 360 396.01 248 396.01"/><polygon class="cls-2" points="323 286.01 323 388.01 369 388.01 369 743.01 398 743.01 398 517.01 435 517.01 435 445.01 472 445.01 472 286.01 323 286.01"/><polygon class="cls-3" points="444 455.01 444 526.01 407 526.01 407 739.01 585 739.01 585 455.01 444 455.01"/><path class="cls-4" d="M33.08,768s316.58-127.94,689.76,0Z" transform="translate(-2 1.01)"/><rect class="cls-1" x="562" y="469.01" width="13" height="32"/><rect class="cls-1" x="540" y="469.01" width="13" height="32"/><rect class="cls-1" x="495" y="469.01" width="13" height="32"/><rect class="cls-1" x="473" y="469.01" width="13" height="32"/><rect class="cls-1" x="451" y="469.01" width="13" height="32"/><rect class="cls-1" x="517" y="512.01" width="13" height="32"/><rect class="cls-1" x="495" y="512.01" width="13" height="32"/><rect class="cls-1" x="473" y="512.01" width="13" height="32"/><rect class="cls-1" x="539" y="512.01" width="13" height="32"/><rect class="cls-1" x="562" y="512.01" width="13" height="32"/><rect class="cls-1" x="495" y="555.01" width="13" height="32"/><rect class="cls-1" x="517" y="555.01" width="13" height="32"/><rect class="cls-1" x="562" y="555.01" width="13" height="32"/><rect class="cls-1" x="538" y="598.01" width="13" height="32"/><rect class="cls-1" x="562" y="598.01" width="13" height="32"/><rect class="cls-1" x="562" y="641.01" width="13" height="32"/><rect class="cls-1" x="452" y="299.01" width="13" height="32"/><rect class="cls-1" x="432" y="299.01" width="13" height="32"/><rect class="cls-1" x="412" y="299.01" width="13" height="32"/><rect class="cls-1" x="392" y="299.01" width="13" height="32"/><rect class="cls-1" x="372" y="299.01" width="13" height="32"/><rect class="cls-1" x="351" y="299.01" width="13" height="32"/><rect class="cls-1" x="331" y="299.01" width="13" height="32"/><rect class="cls-1" x="372" y="344.01" width="13" height="32"/><rect class="cls-1" x="373" y="389.01" width="13" height="32"/><rect class="cls-1" x="339" y="402.01" width="13" height="32"/><rect class="cls-1" x="351" y="344.01" width="13" height="32"/><rect class="cls-1" x="452" y="343.01" width="13" height="32"/><rect class="cls-1" x="432" y="343.01" width="13" height="32"/><rect class="cls-1" x="412" y="343.01" width="13" height="32"/><rect class="cls-1" x="392" y="343.01" width="13" height="32"/><rect class="cls-1" x="393" y="389.01" width="13" height="32"/><rect class="cls-1" x="432" y="389.01" width="13" height="32"/><rect class="cls-1" x="393" y="433.01" width="13" height="32"/><rect class="cls-1" x="393" y="476.01" width="13" height="32"/><rect class="cls-1" x="318" y="402.01" width="13" height="32"/><rect class="cls-1" x="297" y="402.01" width="13" height="32"/><rect class="cls-1" x="256" y="402.01" width="13" height="32"/><rect class="cls-1" x="276" y="402.01" width="13" height="32"/><rect class="cls-1" x="339" y="442.01" width="13" height="32"/><rect class="cls-1" x="318" y="442.01" width="13" height="32"/><rect class="cls-1" x="297" y="442.01" width="13" height="32"/><rect class="cls-1" x="339" y="483.01" width="13" height="32"/><rect class="cls-1" x="318" y="483.01" width="13" height="32"/><rect class="cls-1" x="339" y="523.01" width="13" height="32"/><rect class="cls-1" x="318" y="523.01" width="13" height="32"/><rect class="cls-1" x="339" y="564.01" width="13" height="32"/><rect class="cls-1" x="276" y="592.01" width="13" height="25.81"/><rect class="cls-1" x="255" y="592.01" width="13" height="25.81"/><rect class="cls-1" x="276" y="630.2" width="13" height="25.81"/><rect class="cls-1" x="248" y="501.01" width="13" height="32"/><rect class="cls-1" x="227" y="501.01" width="13" height="32"/><rect class="cls-1" x="206" y="501.01" width="13" height="32"/><rect class="cls-1" x="185" y="501.01" width="13" height="32"/><rect class="cls-1" x="206" y="542.01" width="13" height="32"/><rect class="cls-1" x="185" y="542.01" width="13" height="32"/><rect class="cls-1" x="206" y="584.01" width="13" height="32"/><rect class="cls-1" x="185" y="584.01" width="13" height="32"/><rect class="cls-1" x="185" y="625.01" width="13" height="32"/><path class="cls-3" d="M29.93,53.57a.29.29,0,0,0,.27.12H36a.51.51,0,0,1,.45.2,1.2,1.2,0,0,1,.14.66v3.59a1.22,1.22,0,0,1-.14.64A.48.48,0,0,1,36,59H26.53a.5.5,0,0,1-.44-.22,1.22,1.22,0,0,1-.14-.64V36.63a1.2,1.2,0,0,1,.14-.66.5.5,0,0,1,.44-.2h2.73a.52.52,0,0,1,.46.2,1.2,1.2,0,0,1,.14.66V53.19A.82.82,0,0,0,29.93,53.57Z" transform="translate(-2 1.01)"/><path class="cls-3" d="M42.26,57.94a2,2,0,0,1-.42.84.89.89,0,0,1-.66.22H38.44c-.33,0-.5-.15-.5-.46a1.81,1.81,0,0,1,.11-.6l7.18-21.08a6.79,6.79,0,0,1,.54-1.32c.15-.25.32-.37.5-.37s.34.12.48.37a8,8,0,0,1,.56,1.32l7.22,21.08a1.73,1.73,0,0,1,.11.56c0,.33-.17.5-.52.5H51.24a.84.84,0,0,1-.64-.22,2.15,2.15,0,0,1-.41-.84l-4-12.08Z" transform="translate(-2 1.01)"/><path class="cls-3" d="M65.29,36.7a2,2,0,0,1,.43-.77,1,1,0,0,1,.63-.16h3c.31,0,.47.14.47.43a1.32,1.32,0,0,1-.13.53L64.12,50.4v7.74a1.22,1.22,0,0,1-.14.64.48.48,0,0,1-.45.22H60.79a.48.48,0,0,1-.44-.22,1.12,1.12,0,0,1-.15-.64V50.57L54.57,36.73a1.32,1.32,0,0,1-.13-.53c0-.29.16-.43.47-.43H58a1,1,0,0,1,.63.16,2.1,2.1,0,0,1,.43.77l3.1,8.1Z" transform="translate(-2 1.01)"/><path class="cls-4" d="M71.53,36a.5.5,0,0,1,.44-.2h5.9a6.09,6.09,0,0,1,4.47,1.52q1.51,1.53,1.52,5a7.17,7.17,0,0,1-.53,2.89A4.35,4.35,0,0,1,81.9,47a3.71,3.71,0,0,1,1.79,1.83,6.9,6.9,0,0,1,.66,3.12q0,3.68-1.68,5.39A6.3,6.3,0,0,1,77.94,59H72a.5.5,0,0,1-.44-.22,1.22,1.22,0,0,1-.14-.64V36.63A1.2,1.2,0,0,1,71.53,36Zm3.84,5a.85.85,0,0,0-.07.38v2.95a.9.9,0,0,0,.07.39.31.31,0,0,0,.27.11h2a2.49,2.49,0,0,0,1.69-.46,2,2,0,0,0,.52-1.53,1.89,1.89,0,0,0-.52-1.51,2.55,2.55,0,0,0-1.69-.45h-2A.29.29,0,0,0,75.37,40.93Zm4.37,12.53a2.06,2.06,0,0,0,.56-1.6,1.92,1.92,0,0,0-.59-1.57,2.75,2.75,0,0,0-1.77-.48h-2.3a.31.31,0,0,0-.27.1.81.81,0,0,0-.07.39v3.16a.88.88,0,0,0,.07.38.29.29,0,0,0,.27.12h2.3A2.71,2.71,0,0,0,79.74,53.46Z" transform="translate(-2 1.01)"/><polygon class="cls-5" points="85.42 41.75 85.28 54.03 101.39 54.01 101.27 41.59 85.42 41.75"/><polygon class="cls-6" points="84.53 39.24 83.83 42.09 102.65 41.86 102.08 39.09 84.53 39.24"/><polygon class="cls-7" points="83.83 42.09 83.96 42.4 102.43 42.25 102.65 41.86 83.83 42.09"/><polygon class="cls-8" points="84.44 42.4 84.36 54.02 85.12 54.1 85.28 42.4 84.44 42.4"/><polygon class="cls-7" points="85.28 42.4 85.49 42.4 85.35 53.72 85.12 54.1 85.28 42.4"/><polygon class="cls-8" points="102.08 42.25 102.17 54.03 101.39 54.03 101.21 42.25 102.08 42.25"/><polygon class="cls-7" points="100.97 42.26 101.1 53.71 101.39 54.03 101.21 42.25 100.97 42.26"/><polygon class="cls-6" points="102.17 53.67 102.65 53.67 103.03 54.46 83.52 54.36 84.02 53.67 84.36 53.67 84.36 54.02 85.12 54.1 85.35 53.72 101.1 53.71 101.39 54.03 102.17 54.03 102.17 53.67"/><polygon class="cls-8" points="83.52 54.36 83.52 55.31 103.03 55.33 103.03 54.46 83.52 54.36"/><polygon class="cls-7" points="86 55.33 86 55.98 85.88 56.12 85.88 57.05 86 56.92 86.03 58.09 85.75 58.62 84.64 58.62 84.64 55.33 86 55.33"/><polygon class="cls-6" points="86.71 55.33 86 55.98 85.88 56.12 85.88 57.05 86 56.92 87.84 55.33 86.71 55.33"/><rect class="cls-8" x="84.64" y="55.33" width="1.11" height="3.28"/><rect class="cls-8" x="100.7" y="55.33" width="1.18" height="3.57"/><polygon class="cls-7" points="100.39 55.33 100.39 56.02 100.56 56.21 100.53 57.2 100.42 57.12 100.42 58.3 100.7 58.9 100.7 55.33 100.39 55.33"/><polygon class="cls-6" points="99.71 55.33 100.39 56.02 100.56 56.21 100.53 57.2 98.47 55.33 99.71 55.33"/><ellipse class="cls-7" cx="90.4" cy="44.83" rx="1.05" ry="1.27"/><ellipse class="cls-7" cx="93.45" cy="46.46" rx="1.05" ry="1.27"/><ellipse class="cls-7" cx="96.27" cy="45.62" rx="1.05" ry="1.27"/><path class="cls-9" d="M89.47,48.86h1.64s.3-.08.29-.8,0-1.5,0-1.5.09-1,1-1a.94.94,0,0,1,1,1V50.3s.12.48.43.49a.55.55,0,0,0,.53-.52c0-.5,0-2.36,0-2.36a1,1,0,0,1,1-.84,1,1,0,0,1,1.05,1c0,.3,0,1.53,0,1.53s.2.36.38.35.47-.19.47-.41V47.14s.18-.89,1-.8,1.06.55,1,.8,0,1,0,1,0,.4.32.43,1.19,0,1.19,0v.62l-1.38,0s-.7-.36-.71-.74,0-1.24,0-1.24-.51-.64-.91,0l0,2.54s-.22.75-.89.76c0,0-.88.13-1-.95v-1.5a.43.43,0,0,0-.45-.42c-.42,0-.5.12-.49.5s0,2.28,0,2.28a1.06,1.06,0,0,1-1.05.92s-.8,0-1-1V46.52s0-.39-.37-.42-.55.14-.54.39,0,1.91,0,1.91,0,1-.8,1l-1.69.06Z" transform="translate(-2 1.01)"/><ellipse class="cls-10" cx="86.73" cy="50.2" rx="0.88" ry="1.07"/><ellipse class="cls-5" cx="86.72" cy="50.2" rx="0.65" ry="0.79"/><ellipse class="cls-10" cx="99.64" cy="49.8" rx="0.88" ry="1.07"/><ellipse class="cls-5" cx="99.63" cy="49.8" rx="0.65" ry="0.79"/><path class="cls-4" d="M109.8,57.45a2.26,2.26,0,0,1-.43.85.92.92,0,0,1-.65.21H106c-.33,0-.49-.15-.49-.46a1.59,1.59,0,0,1,.11-.6l7.18-21.07a7,7,0,0,1,.54-1.33c.15-.24.31-.37.49-.37s.34.13.49.37a9.48,9.48,0,0,1,.55,1.33l7.22,21.07a1.54,1.54,0,0,1,.12.57c0,.33-.18.49-.52.49h-2.88a.87.87,0,0,1-.64-.21,2.13,2.13,0,0,1-.42-.85l-4-12.08Z" transform="translate(-2 1.01)"/><path class="cls-4" d="M127.54,58.31a.51.51,0,0,1-.46.2h-2.72a.5.5,0,0,1-.44-.21,1.16,1.16,0,0,1-.15-.65V36.14a1.13,1.13,0,0,1,.15-.66.52.52,0,0,1,.44-.2h5.15a6.78,6.78,0,0,1,5.27,1.91c1.15,1.27,1.73,3.24,1.73,5.89s-.88,4.81-2.65,6.07l3.44,8.3a1.35,1.35,0,0,1,.16.6c0,.31-.19.46-.56.46H134a1.11,1.11,0,0,1-.7-.18,2,2,0,0,1-.47-.81l-3.6-9.23a.89.89,0,0,1-.08-.21,1.1,1.1,0,0,1-.06-.32c0-.22.15-.36.45-.43a3.67,3.67,0,0,0,2.13-1.15,3.62,3.62,0,0,0,.82-2.53,3.56,3.56,0,0,0-.76-2.51,3,3,0,0,0-2.28-.81H128c-.14,0-.23,0-.27.1a.7.7,0,0,0-.07.39V57.65A1.11,1.11,0,0,1,127.54,58.31Z" transform="translate(-2 1.01)"/><path class="cls-4" d="M139.4,35.48a.53.53,0,0,1,.44-.2h5.54a7.75,7.75,0,0,1,4.66,1.4,8.59,8.59,0,0,1,3,4,16.32,16.32,0,0,1,1,6,16.94,16.94,0,0,1-1.06,6.29,8.93,8.93,0,0,1-3.09,4.13A8.08,8.08,0,0,1,145,58.51h-5.16a.51.51,0,0,1-.44-.21,1.26,1.26,0,0,1-.14-.65V36.14A1.22,1.22,0,0,1,139.4,35.48Zm3.84,5.23a.85.85,0,0,0-.07.38V52.71a.88.88,0,0,0,.07.38.31.31,0,0,0,.27.11H145a4.34,4.34,0,0,0,3.71-1.69A7.75,7.75,0,0,0,150,46.8a8.89,8.89,0,0,0-.56-3.29,4.65,4.65,0,0,0-1.66-2.15,4.55,4.55,0,0,0-2.67-.77h-1.55A.29.29,0,0,0,143.24,40.71Z" transform="translate(-2 1.01)"/></svg>