<svg id="Layer_1" data-name="Layer 1" xmlns="http://www.w3.org/2000/svg" viewBox="0 0 1920 1080"><defs><style>.cls-1{fill:#fafafa;}.cls-2{fill:#73a94d;}.cls-3{fill:#5e9737;}.cls-4{fill:#1a4055;}.cls-5{fill:#5e9736;}.cls-6{fill:#73b93e;}.cls-7{fill:#74ba3e;}.cls-8{fill:#4b7d40;}.cls-9{fill:#cddbc2;}</style></defs><rect class="cls-1" width="1920" height="1080"/><polygon class="cls-2" points="50 185 50 803 161.96 803 162 198 125 152 50 185"/><polygon class="cls-3" points="211 263 211 803 350.6 803 351 400 312 400 312 263 211 263"/><rect class="cls-4" y="803" width="1920" height="277"/><polygon class="cls-5" points="0 439 63 439 116 481 86 481 86 574 116 574 116 647 116 694 116 803 63 803 63 803 0 803 0 439"/><polygon class="cls-6" points="116 803 116 428 136 428 136 417 126 417 181 380 238 418 227 418 227 429 246 429 246 803 116 803"/><polygon class="cls-5" points="63 700.28 96 700 96 673 116 647 116 803 63 803 63 700.28"/><polygon class="cls-7" points="0 615 63 652 63 803 0 803 0 615"/><path class="cls-6" d="M400,329v75H383V507l-50,33q1,131.5,2,263H465.8l.2-395H449V329Z"/><polygon class="cls-5" points="466 660.68 493 661 493 803 466 803 466 660.68"/><polygon class="cls-6" points="493 446 493 803 669.2 803 669.09 607.5 669 446 640 446 639 412 524 412 523 447 493 446"/><polygon class="cls-5" points="704 608 704 803 669 803 669 607 704 608"/><polygon class="cls-6" points="704 297 717 284 710 197 769 247 838 182 838 803 704 803 704 297"/><polygon class="cls-8" points="0 803 840 803 840 1073 765 1043 712 1067 716 1029 703 1022 704 976 671 975 671 1006 640 1006 640 1028 523 1028 523 1009 492 1009 492 927 466 927 466 1003 450 1004 450 1039 398 1039 399 1001 381 1001 383 953 355 944 355 1008 313 1007 313 1073 210 1073 212 986 180 994 119 978 134 979 134 974 113 974 116 909 94 891 94 874 62 873 62 907 0 931 0 803"/><rect class="cls-9" x="8" y="501" width="30" height="47"/><rect class="cls-9" x="49" y="501" width="30" height="47"/><rect class="cls-9" x="125" y="447" width="10.56" height="15"/><rect class="cls-9" x="139.44" y="447" width="10.56" height="15"/><rect class="cls-9" x="153.9" y="446.78" width="10.56" height="15"/><rect class="cls-9" x="168.34" y="446.78" width="10.56" height="15"/><rect class="cls-9" x="183.29" y="446.25" width="10.56" height="15"/><rect class="cls-9" x="197.73" y="446.25" width="10.56" height="15"/><rect class="cls-9" x="212.19" y="446.03" width="10.56" height="15"/><rect class="cls-9" x="226.63" y="446.03" width="10.56" height="15"/><rect class="cls-9" x="125.14" y="469.63" width="10.56" height="15"/><rect class="cls-9" x="139.58" y="469.63" width="10.56" height="15"/><rect class="cls-9" x="154.05" y="469.4" width="10.56" height="15"/><rect class="cls-9" x="168.48" y="469.4" width="10.56" height="15"/><rect class="cls-9" x="183.43" y="468.88" width="10.56" height="15"/><rect class="cls-9" x="197.87" y="468.88" width="10.56" height="15"/><rect class="cls-9" x="212.33" y="468.65" width="10.56" height="15"/><rect class="cls-9" x="226.77" y="468.65" width="10.56" height="15"/><rect class="cls-9" x="125.07" y="491.39" width="10.56" height="15"/><rect class="cls-9" x="139.51" y="491.39" width="10.56" height="15"/><rect class="cls-9" x="153.97" y="491.17" width="10.56" height="15"/><rect class="cls-9" x="168.41" y="491.17" width="10.56" height="15"/><rect class="cls-9" x="183.36" y="490.64" width="10.56" height="15"/><rect class="cls-9" x="197.8" y="490.64" width="10.56" height="15"/><rect class="cls-9" x="212.26" y="490.42" width="10.56" height="15"/><rect class="cls-9" x="226.7" y="490.42" width="10.56" height="15"/><rect class="cls-9" x="125.22" y="514.02" width="10.56" height="15"/><rect class="cls-9" x="139.65" y="514.02" width="10.56" height="15"/><rect class="cls-9" x="154.12" y="513.8" width="10.56" height="15"/><rect class="cls-9" x="168.55" y="513.8" width="10.56" height="15"/><rect class="cls-9" x="183.51" y="513.27" width="10.56" height="15"/><rect class="cls-9" x="197.94" y="513.27" width="10.56" height="15"/><rect class="cls-9" x="212.41" y="513.05" width="10.56" height="15"/><rect class="cls-9" x="226.84" y="513.05" width="10.56" height="15"/><rect class="cls-9" x="125.07" y="536.39" width="10.56" height="15"/><rect class="cls-9" x="139.51" y="536.39" width="10.56" height="15"/><rect class="cls-9" x="153.97" y="536.17" width="10.56" height="15"/><rect class="cls-9" x="168.41" y="536.17" width="10.56" height="15"/><rect class="cls-9" x="183.36" y="535.64" width="10.56" height="15"/><rect class="cls-9" x="197.8" y="535.64" width="10.56" height="15"/><rect class="cls-9" x="212.26" y="535.42" width="10.56" height="15"/><rect class="cls-9" x="226.7" y="535.42" width="10.56" height="15"/><rect class="cls-9" x="125.22" y="559.02" width="10.56" height="15"/><rect class="cls-9" x="139.65" y="559.02" width="10.56" height="15"/><rect class="cls-9" x="154.12" y="558.8" width="10.56" height="15"/><rect class="cls-9" x="168.55" y="558.8" width="10.56" height="15"/><rect class="cls-9" x="183.51" y="558.27" width="10.56" height="15"/><rect class="cls-9" x="197.94" y="558.27" width="10.56" height="15"/><rect class="cls-9" x="212.41" y="558.05" width="10.56" height="15"/><rect class="cls-9" x="226.84" y="558.05" width="10.56" height="15"/><rect class="cls-9" x="125.07" y="581.39" width="10.56" height="15"/><rect class="cls-9" x="139.51" y="581.39" width="10.56" height="15"/><rect class="cls-9" x="153.97" y="581.17" width="10.56" height="15"/><rect class="cls-9" x="168.41" y="581.17" width="10.56" height="15"/><rect class="cls-9" x="183.36" y="580.64" width="10.56" height="15"/><rect class="cls-9" x="197.8" y="580.64" width="10.56" height="15"/><rect class="cls-9" x="212.26" y="580.42" width="10.56" height="15"/><rect class="cls-9" x="226.7" y="580.42" width="10.56" height="15"/><rect class="cls-9" x="125.22" y="604.02" width="10.56" height="15"/><rect class="cls-9" x="139.65" y="604.02" width="10.56" height="15"/><rect class="cls-9" x="154.12" y="603.8" width="10.56" height="15"/><rect class="cls-9" x="168.55" y="603.8" width="10.56" height="15"/><rect class="cls-9" x="183.51" y="603.27" width="10.56" height="15"/><rect class="cls-9" x="197.94" y="603.27" width="10.56" height="15"/><rect class="cls-9" x="212.41" y="603.05" width="10.56" height="15"/><rect class="cls-9" x="226.84" y="603.05" width="10.56" height="15"/><rect class="cls-9" x="125.07" y="626.39" width="10.56" height="15"/><rect class="cls-9" x="139.51" y="626.39" width="10.56" height="15"/><rect class="cls-9" x="153.97" y="626.17" width="10.56" height="15"/><rect class="cls-9" x="168.41" y="626.17" width="10.56" height="15"/><rect class="cls-9" x="183.36" y="625.64" width="10.56" height="15"/><rect class="cls-9" x="197.8" y="625.64" width="10.56" height="15"/><rect class="cls-9" x="212.26" y="625.42" width="10.56" height="15"/><rect class="cls-9" x="226.7" y="625.42" width="10.56" height="15"/><rect class="cls-9" x="125.22" y="649.02" width="10.56" height="15"/><rect class="cls-9" x="139.65" y="649.02" width="10.56" height="15"/><rect class="cls-9" x="154.12" y="648.8" width="10.56" height="15"/><rect class="cls-9" x="168.55" y="648.8" width="10.56" height="15"/><rect class="cls-9" x="183.51" y="648.27" width="10.56" height="15"/><rect class="cls-9" x="197.94" y="648.27" width="10.56" height="15"/><rect class="cls-9" x="212.41" y="648.05" width="10.56" height="15"/><rect class="cls-9" x="226.84" y="648.05" width="10.56" height="15"/><rect class="cls-9" x="125.07" y="668.39" width="10.56" height="15"/><rect class="cls-9" x="139.51" y="668.39" width="10.56" height="15"/><rect class="cls-9" x="153.97" y="668.17" width="10.56" height="15"/><rect class="cls-9" x="168.41" y="668.17" width="10.56" height="15"/><rect class="cls-9" x="183.36" y="667.64" width="10.56" height="15"/><rect class="cls-9" x="197.8" y="667.64" width="10.56" height="15"/><rect class="cls-9" x="212.26" y="667.42" width="10.56" height="15"/><rect class="cls-9" x="226.7" y="667.42" width="10.56" height="15"/><rect class="cls-9" x="125.22" y="691.02" width="10.56" height="15"/><rect class="cls-9" x="139.65" y="691.02" width="10.56" height="15"/><rect class="cls-9" x="154.12" y="690.8" width="10.56" height="15"/><rect class="cls-9" x="168.55" y="690.8" width="10.56" height="15"/><rect class="cls-9" x="183.51" y="690.27" width="10.56" height="15"/><rect class="cls-9" x="197.94" y="690.27" width="10.56" height="15"/><rect class="cls-9" x="212.41" y="690.05" width="10.56" height="15"/><rect class="cls-9" x="226.84" y="690.05" width="10.56" height="15"/><rect class="cls-9" x="126.07" y="712.39" width="10.56" height="15"/><rect class="cls-9" x="140.51" y="712.39" width="10.56" height="15"/><rect class="cls-9" x="154.97" y="712.17" width="10.56" height="15"/><rect class="cls-9" x="169.41" y="712.17" width="10.56" height="15"/><rect class="cls-9" x="184.36" y="711.64" width="10.56" height="15"/><rect class="cls-9" x="198.8" y="711.64" width="10.56" height="15"/><rect class="cls-9" x="213.26" y="711.42" width="10.56" height="15"/><rect class="cls-9" x="227.7" y="711.42" width="10.56" height="15"/><rect class="cls-9" x="126.22" y="735.02" width="10.56" height="15"/><rect class="cls-9" x="140.65" y="735.02" width="10.56" height="15"/><rect class="cls-9" x="155.12" y="734.8" width="10.56" height="15"/><rect class="cls-9" x="169.55" y="734.8" width="10.56" height="15"/><rect class="cls-9" x="184.51" y="734.27" width="10.56" height="15"/><rect class="cls-9" x="198.94" y="734.27" width="10.56" height="15"/><rect class="cls-9" x="213.41" y="734.05" width="10.56" height="15"/><rect class="cls-9" x="227.84" y="734.05" width="10.56" height="15"/><circle class="cls-9" cx="425" cy="355" r="13"/><circle class="cls-9" cx="425" cy="392" r="13"/><circle class="cls-9" cx="405" cy="439" r="13"/><circle class="cls-9" cx="444" cy="439" r="13"/><circle class="cls-9" cx="406" cy="480" r="13"/><circle class="cls-9" cx="445" cy="480" r="13"/><rect class="cls-9" x="348" y="544" width="25" height="7"/><rect class="cls-9" x="387" y="544" width="25" height="7"/><rect class="cls-9" x="426" y="544" width="25" height="7"/><rect class="cls-9" x="348" y="557" width="25" height="7"/><rect class="cls-9" x="387" y="557" width="25" height="7"/><rect class="cls-9" x="426" y="557" width="25" height="7"/><rect class="cls-9" x="348" y="571" width="25" height="7"/><rect class="cls-9" x="387" y="571" width="25" height="7"/><rect class="cls-9" x="426" y="571" width="25" height="7"/><rect class="cls-9" x="348" y="585" width="25" height="7"/><rect class="cls-9" x="387" y="585" width="25" height="7"/><rect class="cls-9" x="426" y="585" width="25" height="7"/><rect class="cls-9" x="348" y="598" width="25" height="7"/><rect class="cls-9" x="387" y="598" width="25" height="7"/><rect class="cls-9" x="426" y="598" width="25" height="7"/><rect class="cls-9" x="348" y="612" width="25" height="7"/><rect class="cls-9" x="387" y="612" width="25" height="7"/><rect class="cls-9" x="426" y="612" width="25" height="7"/><rect class="cls-9" x="348" y="625" width="25" height="7"/><rect class="cls-9" x="387" y="625" width="25" height="7"/><rect class="cls-9" x="426" y="625" width="25" height="7"/><rect class="cls-9" x="348" y="639" width="25" height="7"/><rect class="cls-9" x="387" y="639" width="25" height="7"/><rect class="cls-9" x="426" y="639" width="25" height="7"/><rect class="cls-9" x="348" y="652" width="25" height="7"/><rect class="cls-9" x="387" y="652" width="25" height="7"/><rect class="cls-9" x="426" y="652" width="25" height="7"/><rect class="cls-9" x="348" y="666" width="25" height="7"/><rect class="cls-9" x="387" y="666" width="25" height="7"/><rect class="cls-9" x="426" y="666" width="25" height="7"/><rect class="cls-9" x="347" y="680" width="25" height="7"/><rect class="cls-9" x="386" y="680" width="25" height="7"/><rect class="cls-9" x="425" y="680" width="25" height="7"/><rect class="cls-9" x="347" y="694" width="25" height="7"/><rect class="cls-9" x="386" y="694" width="25" height="7"/><rect class="cls-9" x="425" y="694" width="25" height="7"/><rect class="cls-9" x="347" y="707" width="25" height="7"/><rect class="cls-9" x="386" y="707" width="25" height="7"/><rect class="cls-9" x="425" y="707" width="25" height="7"/><rect class="cls-9" x="347" y="721" width="25" height="7"/><rect class="cls-9" x="386" y="721" width="25" height="7"/><rect class="cls-9" x="425" y="721" width="25" height="7"/><rect class="cls-9" x="347.34" y="735.74" width="25" height="7"/><rect class="cls-9" x="386.34" y="735.74" width="25" height="7"/><rect class="cls-9" x="425.34" y="735.74" width="25" height="7"/><rect class="cls-9" x="716.48" y="302.05" width="10.56" height="15"/><rect class="cls-9" x="730.91" y="302.05" width="10.56" height="15"/><rect class="cls-9" x="745.38" y="301.83" width="10.56" height="15"/><rect class="cls-9" x="759.81" y="301.83" width="10.56" height="15"/><rect class="cls-9" x="774.77" y="301.3" width="10.56" height="15"/><rect class="cls-9" x="789.2" y="301.3" width="10.56" height="15"/><rect class="cls-9" x="803.67" y="301.08" width="10.56" height="15"/><rect class="cls-9" x="818.1" y="301.08" width="10.56" height="15"/><rect class="cls-9" x="716.62" y="324.67" width="10.56" height="15"/><rect class="cls-9" x="731.06" y="324.67" width="10.56" height="15"/><rect class="cls-9" x="745.52" y="324.45" width="10.56" height="15"/><rect class="cls-9" x="759.96" y="324.45" width="10.56" height="15"/><rect class="cls-9" x="774.91" y="323.92" width="10.56" height="15"/><rect class="cls-9" x="789.35" y="323.92" width="10.56" height="15"/><rect class="cls-9" x="803.81" y="323.7" width="10.56" height="15"/><rect class="cls-9" x="818.25" y="323.7" width="10.56" height="15"/><rect class="cls-9" x="716.55" y="346.44" width="10.56" height="15"/><rect class="cls-9" x="730.99" y="346.44" width="10.56" height="15"/><rect class="cls-9" x="745.45" y="346.22" width="10.56" height="15"/><rect class="cls-9" x="759.89" y="346.22" width="10.56" height="15"/><rect class="cls-9" x="774.84" y="345.69" width="10.56" height="15"/><rect class="cls-9" x="789.28" y="345.69" width="10.56" height="15"/><rect class="cls-9" x="803.74" y="345.47" width="10.56" height="15"/><rect class="cls-9" x="818.18" y="345.47" width="10.56" height="15"/><rect class="cls-9" x="716.69" y="369.07" width="10.56" height="15"/><rect class="cls-9" x="731.13" y="369.07" width="10.56" height="15"/><rect class="cls-9" x="745.59" y="368.85" width="10.56" height="15"/><rect class="cls-9" x="760.03" y="368.85" width="10.56" height="15"/><rect class="cls-9" x="774.98" y="368.32" width="10.56" height="15"/><rect class="cls-9" x="789.42" y="368.32" width="10.56" height="15"/><rect class="cls-9" x="803.88" y="368.1" width="10.56" height="15"/><rect class="cls-9" x="818.32" y="368.1" width="10.56" height="15"/><rect class="cls-9" x="716.55" y="391.44" width="10.56" height="15"/><rect class="cls-9" x="730.99" y="391.44" width="10.56" height="15"/><rect class="cls-9" x="745.45" y="391.22" width="10.56" height="15"/><rect class="cls-9" x="759.89" y="391.22" width="10.56" height="15"/><rect class="cls-9" x="774.84" y="390.69" width="10.56" height="15"/><rect class="cls-9" x="789.28" y="390.69" width="10.56" height="15"/><rect class="cls-9" x="803.74" y="390.47" width="10.56" height="15"/><rect class="cls-9" x="818.18" y="390.47" width="10.56" height="15"/><rect class="cls-9" x="716.69" y="414.07" width="10.56" height="15"/><rect class="cls-9" x="731.13" y="414.07" width="10.56" height="15"/><rect class="cls-9" x="745.59" y="413.85" width="10.56" height="15"/><rect class="cls-9" x="760.03" y="413.85" width="10.56" height="15"/><rect class="cls-9" x="774.98" y="413.32" width="10.56" height="15"/><rect class="cls-9" x="789.42" y="413.32" width="10.56" height="15"/><rect class="cls-9" x="803.88" y="413.1" width="10.56" height="15"/><rect class="cls-9" x="818.32" y="413.1" width="10.56" height="15"/><rect class="cls-9" x="716.55" y="436.44" width="10.56" height="15"/><rect class="cls-9" x="730.99" y="436.44" width="10.56" height="15"/><rect class="cls-9" x="745.45" y="436.22" width="10.56" height="15"/><rect class="cls-9" x="759.89" y="436.22" width="10.56" height="15"/><rect class="cls-9" x="774.84" y="435.69" width="10.56" height="15"/><rect class="cls-9" x="789.28" y="435.69" width="10.56" height="15"/><rect class="cls-9" x="803.74" y="435.47" width="10.56" height="15"/><rect class="cls-9" x="818.18" y="435.47" width="10.56" height="15"/><rect class="cls-9" x="716.69" y="459.07" width="10.56" height="15"/><rect class="cls-9" x="731.13" y="459.07" width="10.56" height="15"/><rect class="cls-9" x="745.59" y="458.85" width="10.56" height="15"/><rect class="cls-9" x="760.03" y="458.85" width="10.56" height="15"/><rect class="cls-9" x="774.98" y="458.32" width="10.56" height="15"/><rect class="cls-9" x="789.42" y="458.32" width="10.56" height="15"/><rect class="cls-9" x="803.88" y="458.1" width="10.56" height="15"/><rect class="cls-9" x="818.32" y="458.1" width="10.56" height="15"/><rect class="cls-9" x="716.55" y="481.44" width="10.56" height="15"/><rect class="cls-9" x="730.99" y="481.44" width="10.56" height="15"/><rect class="cls-9" x="745.45" y="481.22" width="10.56" height="15"/><rect class="cls-9" x="759.89" y="481.22" width="10.56" height="15"/><rect class="cls-9" x="774.84" y="480.69" width="10.56" height="15"/><rect class="cls-9" x="789.28" y="480.69" width="10.56" height="15"/><rect class="cls-9" x="803.74" y="480.47" width="10.56" height="15"/><rect class="cls-9" x="818.18" y="480.47" width="10.56" height="15"/><rect class="cls-9" x="716.48" y="504.05" width="10.56" height="15"/><rect class="cls-9" x="730.91" y="504.05" width="10.56" height="15"/><rect class="cls-9" x="745.38" y="503.83" width="10.56" height="15"/><rect class="cls-9" x="759.81" y="503.83" width="10.56" height="15"/><rect class="cls-9" x="774.77" y="503.3" width="10.56" height="15"/><rect class="cls-9" x="789.2" y="503.3" width="10.56" height="15"/><rect class="cls-9" x="803.67" y="503.08" width="10.56" height="15"/><rect class="cls-9" x="818.1" y="503.08" width="10.56" height="15"/><rect class="cls-9" x="716.62" y="526.67" width="10.56" height="15"/><rect class="cls-9" x="731.06" y="526.67" width="10.56" height="15"/><rect class="cls-9" x="745.52" y="526.45" width="10.56" height="15"/><rect class="cls-9" x="759.96" y="526.45" width="10.56" height="15"/><rect class="cls-9" x="774.91" y="525.92" width="10.56" height="15"/><rect class="cls-9" x="789.35" y="525.92" width="10.56" height="15"/><rect class="cls-9" x="803.81" y="525.7" width="10.56" height="15"/><rect class="cls-9" x="818.25" y="525.7" width="10.56" height="15"/><rect class="cls-9" x="716.55" y="548.44" width="10.56" height="15"/><rect class="cls-9" x="730.99" y="548.44" width="10.56" height="15"/><rect class="cls-9" x="745.45" y="548.22" width="10.56" height="15"/><rect class="cls-9" x="759.89" y="548.22" width="10.56" height="15"/><rect class="cls-9" x="774.84" y="547.69" width="10.56" height="15"/><rect class="cls-9" x="789.28" y="547.69" width="10.56" height="15"/><rect class="cls-9" x="803.74" y="547.47" width="10.56" height="15"/><rect class="cls-9" x="818.18" y="547.47" width="10.56" height="15"/><rect class="cls-9" x="716.69" y="571.07" width="10.56" height="15"/><rect class="cls-9" x="731.13" y="571.07" width="10.56" height="15"/><rect class="cls-9" x="745.59" y="570.85" width="10.56" height="15"/><rect class="cls-9" x="760.03" y="570.85" width="10.56" height="15"/><rect class="cls-9" x="774.98" y="570.32" width="10.56" height="15"/><rect class="cls-9" x="789.42" y="570.32" width="10.56" height="15"/><rect class="cls-9" x="803.88" y="570.1" width="10.56" height="15"/><rect class="cls-9" x="818.32" y="570.1" width="10.56" height="15"/><rect class="cls-9" x="716.55" y="593.44" width="10.56" height="15"/><rect class="cls-9" x="730.99" y="593.44" width="10.56" height="15"/><rect class="cls-9" x="745.45" y="593.22" width="10.56" height="15"/><rect class="cls-9" x="759.89" y="593.22" width="10.56" height="15"/><rect class="cls-9" x="774.84" y="592.69" width="10.56" height="15"/><rect class="cls-9" x="789.28" y="592.69" width="10.56" height="15"/><rect class="cls-9" x="803.74" y="592.47" width="10.56" height="15"/><rect class="cls-9" x="818.18" y="592.47" width="10.56" height="15"/><rect class="cls-9" x="716.69" y="616.07" width="10.56" height="15"/><rect class="cls-9" x="731.13" y="616.07" width="10.56" height="15"/><rect class="cls-9" x="745.59" y="615.85" width="10.56" height="15"/><rect class="cls-9" x="760.03" y="615.85" width="10.56" height="15"/><rect class="cls-9" x="774.98" y="615.32" width="10.56" height="15"/><rect class="cls-9" x="789.42" y="615.32" width="10.56" height="15"/><rect class="cls-9" x="803.88" y="615.1" width="10.56" height="15"/><rect class="cls-9" x="818.32" y="615.1" width="10.56" height="15"/><rect class="cls-9" x="716.55" y="638.44" width="10.56" height="15"/><rect class="cls-9" x="730.99" y="638.44" width="10.56" height="15"/><rect class="cls-9" x="745.45" y="638.22" width="10.56" height="15"/><rect class="cls-9" x="759.89" y="638.22" width="10.56" height="15"/><rect class="cls-9" x="774.84" y="637.69" width="10.56" height="15"/><rect class="cls-9" x="789.28" y="637.69" width="10.56" height="15"/><rect class="cls-9" x="803.74" y="637.47" width="10.56" height="15"/><rect class="cls-9" x="818.18" y="637.47" width="10.56" height="15"/><rect class="cls-9" x="716.69" y="661.07" width="10.56" height="15"/><rect class="cls-9" x="731.13" y="661.07" width="10.56" height="15"/><rect class="cls-9" x="745.59" y="660.85" width="10.56" height="15"/><rect class="cls-9" x="760.03" y="660.85" width="10.56" height="15"/><rect class="cls-9" x="774.98" y="660.32" width="10.56" height="15"/><rect class="cls-9" x="789.42" y="660.32" width="10.56" height="15"/><rect class="cls-9" x="803.88" y="660.1" width="10.56" height="15"/><rect class="cls-9" x="818.32" y="660.1" width="10.56" height="15"/><rect class="cls-9" x="716.55" y="683.44" width="10.56" height="15"/><rect class="cls-9" x="730.99" y="683.44" width="10.56" height="15"/><rect class="cls-9" x="745.45" y="683.22" width="10.56" height="15"/><rect class="cls-9" x="759.89" y="683.22" width="10.56" height="15"/><rect class="cls-9" x="774.84" y="682.69" width="10.56" height="15"/><rect class="cls-9" x="789.28" y="682.69" width="10.56" height="15"/><rect class="cls-9" x="803.74" y="682.47" width="10.56" height="15"/><rect class="cls-9" x="818.18" y="682.47" width="10.56" height="15"/><rect class="cls-9" x="716" y="706" width="113" height="7"/><rect class="cls-9" x="716" y="718" width="113" height="7"/><rect class="cls-9" x="716" y="730" width="113" height="7"/><rect class="cls-9" x="716" y="742" width="113" height="7"/><rect class="cls-9" x="716" y="755" width="113" height="7"/><rect class="cls-9" x="716" y="767" width="113" height="7"/><rect class="cls-9" x="508" y="472.5" width="25" height="8"/><rect class="cls-9" x="547" y="472.5" width="25" height="8"/><rect class="cls-9" x="587" y="472.5" width="25" height="8"/><rect class="cls-9" x="628" y="472.5" width="25" height="8"/><rect class="cls-9" x="508" y="486" width="25" height="8"/><rect class="cls-9" x="547" y="486" width="25" height="8"/><rect class="cls-9" x="587" y="486" width="25" height="8"/><rect class="cls-9" x="628" y="486" width="25" height="8"/><rect class="cls-9" x="508" y="499" width="25" height="8"/><rect class="cls-9" x="547" y="499" width="25" height="8"/><rect class="cls-9" x="587" y="499" width="25" height="8"/><rect class="cls-9" x="628" y="499" width="25" height="8"/><rect class="cls-9" x="508" y="512" width="25" height="8"/><rect class="cls-9" x="547" y="512" width="25" height="8"/><rect class="cls-9" x="587" y="512" width="25" height="8"/><rect class="cls-9" x="628" y="512" width="25" height="8"/><rect class="cls-9" x="508" y="525" width="25" height="8"/><rect class="cls-9" x="547" y="525" width="25" height="8"/><rect class="cls-9" x="587" y="525" width="25" height="8"/><rect class="cls-9" x="628" y="525" width="25" height="8"/><rect class="cls-9" x="508" y="538" width="25" height="8"/><rect class="cls-9" x="547" y="538" width="25" height="8"/><rect class="cls-9" x="587" y="538" width="25" height="8"/><rect class="cls-9" x="628" y="538" width="25" height="8"/><rect class="cls-9" x="508" y="551" width="25" height="8"/><rect class="cls-9" x="547" y="551" width="25" height="8"/><rect class="cls-9" x="587" y="551" width="25" height="8"/><rect class="cls-9" x="628" y="551" width="25" height="8"/><rect class="cls-9" x="508" y="565" width="25" height="8"/><rect class="cls-9" x="547" y="565" width="25" height="8"/><rect class="cls-9" x="587" y="565" width="25" height="8"/><rect class="cls-9" x="628" y="565" width="25" height="8"/><rect class="cls-9" x="508" y="578" width="25" height="8"/><rect class="cls-9" x="547" y="578" width="25" height="8"/><rect class="cls-9" x="587" y="578" width="25" height="8"/><rect class="cls-9" x="628" y="578" width="25" height="8"/><rect class="cls-9" x="508" y="593" width="25" height="8"/><rect class="cls-9" x="547" y="593" width="25" height="8"/><rect class="cls-9" x="587" y="593" width="25" height="8"/><rect class="cls-9" x="628" y="593" width="25" height="8"/><rect class="cls-9" x="508" y="608" width="25" height="8"/><rect class="cls-9" x="547" y="608" width="25" height="8"/><rect class="cls-9" x="587" y="608" width="25" height="8"/><rect class="cls-9" x="628" y="608" width="25" height="8"/><rect class="cls-9" x="508" y="623" width="25" height="8"/><rect class="cls-9" x="547" y="623" width="25" height="8"/><rect class="cls-9" x="587" y="623" width="25" height="8"/><rect class="cls-9" x="628" y="623" width="25" height="8"/><rect class="cls-9" x="508" y="638" width="25" height="8"/><rect class="cls-9" x="547" y="638" width="25" height="8"/><rect class="cls-9" x="587" y="638" width="25" height="8"/><rect class="cls-9" x="628" y="638" width="25" height="8"/><rect class="cls-9" x="508" y="653" width="25" height="8"/><rect class="cls-9" x="547" y="653" width="25" height="8"/><rect class="cls-9" x="587" y="653" width="25" height="8"/><rect class="cls-9" x="508" y="668" width="25" height="8"/><rect class="cls-9" x="547" y="668" width="25" height="8"/><rect class="cls-9" x="587" y="668" width="25" height="8"/><rect class="cls-9" x="628" y="668" width="25" height="8"/><rect class="cls-9" x="628" y="653" width="25" height="8"/><rect class="cls-9" x="508" y="683" width="25" height="8"/><rect class="cls-9" x="547" y="683" width="25" height="8"/><rect class="cls-9" x="587" y="683" width="25" height="8"/><rect class="cls-9" x="628" y="683" width="25" height="8"/><rect class="cls-9" x="507.7" y="697.02" width="25" height="8"/><rect class="cls-9" x="546.7" y="697.02" width="25" height="8"/><rect class="cls-9" x="586.7" y="697.02" width="25" height="8"/><rect class="cls-9" x="627.7" y="697.02" width="25" height="8"/><rect class="cls-9" x="507.7" y="712.02" width="25" height="8"/><rect class="cls-9" x="546.7" y="712.02" width="25" height="8"/><rect class="cls-9" x="586.7" y="712.02" width="25" height="8"/><rect class="cls-9" x="627.7" y="712.02" width="25" height="8"/><rect class="cls-9" x="507.7" y="727.02" width="25" height="8"/><rect class="cls-9" x="546.7" y="727.02" width="25" height="8"/><rect class="cls-9" x="586.7" y="727.02" width="25" height="8"/><rect class="cls-9" x="627.7" y="727.02" width="25" height="8"/><rect class="cls-9" x="507.7" y="741.02" width="25" height="8"/><rect class="cls-9" x="546.7" y="741.02" width="25" height="8"/><rect class="cls-9" x="586.7" y="741.02" width="25" height="8"/><rect class="cls-9" x="627.7" y="741.02" width="25" height="8"/></svg>