<svg id="Layer_1" data-name="Layer 1" xmlns="http://www.w3.org/2000/svg" xmlns:xlink="http://www.w3.org/1999/xlink" viewBox="0 0 1920 1080"><defs><style>.cls-1{fill:#f8f9fa;}.cls-2{fill:#397487;}.cls-3{fill:#2b5468;}.cls-4{fill:#326377;}.cls-5{fill:#71b744;}</style></defs><rect class="cls-1" width="1920" height="1080"/><polygon class="cls-2" points="474.69 346 474.69 389.92 453.76 389.92 453.76 445.26 409.58 445.26 409.58 946.83 601.44 946.83 601.44 448.77 559.58 447.02 560.49 390.36 536.33 389.92 536.33 346 474.69 346"/><polygon class="cls-3" points="650.18 718.88 650.18 958.69 764.77 958.48 764.77 718.88 650.18 718.88"/><polygon class="cls-2" points="257.19 719.32 257.19 958.45 361.85 958.25 361.85 719.32 257.19 719.32"/><polygon class="cls-4" points="336 615 336 635 303.71 635 303.71 951.38 462.61 948.59 463.01 635 432 635 432 615 336 615"/><image width="7849" height="1762" transform="translate(64 61) scale(0.03 0.03)" xlink:href="../../../../../../DOWNLOADS/Layboard/assets/img/Layboard%20Logo.png"/><rect class="cls-1" x="423" y="468" width="162" height="16"/><rect class="cls-1" x="423" y="494" width="162" height="16"/><rect class="cls-1" x="423" y="518" width="162" height="16"/><polygon class="cls-4" points="526.97 516.41 526.97 948.59 688.47 948.59 688.6 591.08 526.97 516.41"/><path class="cls-5" d="M67,1007s416.29-157.12,907,0Z"/><rect class="cls-1" x="466" y="408" width="19.94" height="22"/><rect class="cls-1" x="497.15" y="408" width="19.94" height="22"/><rect class="cls-1" x="527.06" y="408" width="19.94" height="22"/><rect class="cls-1" x="545.62" y="600.88" width="21.87" height="21.62"/><rect class="cls-1" x="579.79" y="600.88" width="21.87" height="21.62"/><rect class="cls-1" x="613.96" y="600.88" width="21.87" height="21.62"/><rect class="cls-1" x="579.79" y="638.71" width="21.87" height="21.62"/><rect class="cls-1" x="613.96" y="638.71" width="21.87" height="21.62"/><rect class="cls-1" x="648.13" y="638.71" width="21.87" height="21.62"/><rect class="cls-1" x="613.96" y="676.55" width="21.87" height="21.62"/><rect class="cls-1" x="648.13" y="676.55" width="21.87" height="21.62"/><rect class="cls-1" x="648.13" y="714.38" width="21.87" height="21.62"/><rect class="cls-1" x="733.32" y="736" width="20.68" height="19.16"/><rect class="cls-1" x="701" y="736" width="20.68" height="19.16"/><rect class="cls-1" x="701" y="771.92" width="20.68" height="19.16"/><rect class="cls-1" x="733.32" y="771.92" width="20.68" height="19.16"/><rect class="cls-1" x="701" y="807.84" width="20.68" height="19.16"/><rect class="cls-1" x="412.6" y="648" width="21.4" height="20.64"/><rect class="cls-1" x="371.13" y="648" width="21.4" height="20.64"/><rect class="cls-1" x="331" y="684.12" width="21.4" height="20.64"/><rect class="cls-1" x="371.13" y="684.12" width="21.4" height="20.64"/><rect class="cls-1" x="412.6" y="684.12" width="21.4" height="20.64"/><rect class="cls-1" x="331" y="720.24" width="21.4" height="20.64"/><rect class="cls-1" x="371.13" y="720.24" width="21.4" height="20.64"/><rect class="cls-1" x="331" y="756.36" width="21.4" height="20.64"/><rect class="cls-1" x="271" y="783.43" width="22.81" height="18.15"/><rect class="cls-1" x="271" y="820.85" width="22.81" height="18.15"/><rect class="cls-1" x="271" y="746" width="22.81" height="18.15"/></svg>