<svg id="Layer_1" data-name="Layer 1" xmlns="http://www.w3.org/2000/svg" xmlns:xlink="http://www.w3.org/1999/xlink" viewBox="0 0 1366 768"><defs><style>.cls-1{fill:#f8f9fa;}.cls-2{fill:#397487;}.cls-3{fill:#2b5468;}.cls-4{fill:#326377;}.cls-5{fill:#71b744;}</style></defs><rect class="cls-1" width="1366" height="767.64"/><polygon class="cls-2" points="341.71 234.2 341.71 269.74 325.79 269.74 325.79 314.52 292.19 314.52 292.19 720.38 438.1 720.38 438.1 317.36 406.26 315.94 404.49 269.74 388.57 269.74 388.57 234.2 341.71 234.2"/><polygon class="cls-3" points="482.28 534.51 482.28 728.55 569.41 728.38 569.41 534.51 482.28 534.51"/><polygon class="cls-4" points="388.57 370.67 388.57 720.38 511.39 720.38 511.49 431.09 388.57 370.67"/><polygon class="cls-2" points="183.41 534.86 183.41 728.36 263 728.2 263 534.86 183.41 534.86"/><polygon class="cls-4" points="246.2 450.28 246.2 466.63 218.79 466.63 218.79 722.64 339.63 720.38 339.94 466.63 317.83 465.21 316.06 450.28 246.2 450.28"/><path class="cls-5" d="M33.08,768s316.58-127.94,689.76,0Z"/><image width="7849" height="1762" transform="translate(45.53 43.36) scale(0.02 0.02)" xlink:href="../../Layboard/assets/img/Layboard%20Logo.png"/></svg>