<svg id="Layer_1" data-name="Layer 1" xmlns="http://www.w3.org/2000/svg" xmlns:xlink="http://www.w3.org/1999/xlink" viewBox="0 0 1920 1080"><defs><style>.cls-1{fill:#f8f9fa;}.cls-2{fill:#397487;}.cls-3{fill:#2b5468;}.cls-4{fill:#326377;}.cls-5{fill:#71b744;}</style></defs><rect class="cls-1" width="1920" height="1080"/><polygon class="cls-2" points="474.69 346 474.69 389.92 453.76 389.92 453.76 445.26 409.58 445.26 409.58 946.83 601.44 946.83 601.44 448.77 559.58 447.02 560.49 390.36 536.33 389.92 536.33 346 474.69 346"/><polygon class="cls-3" points="650.18 718.88 650.18 958.69 764.77 958.48 764.77 718.88 650.18 718.88"/><polygon class="cls-4" points="526.97 516.41 526.97 948.59 688.47 948.59 688.6 591.08 526.97 516.41"/><polygon class="cls-2" points="257.19 719.32 257.19 958.45 361.85 958.25 361.85 719.32 257.19 719.32"/><polygon class="cls-4" points="339.75 614.79 339.75 635 303.71 635 303.71 951.38 462.61 948.59 463.01 635 433.94 633.24 431.62 614.79 339.75 614.79"/><path class="cls-5" d="M67,1007s416.29-157.12,907,0Z"/><image width="7849" height="1762" transform="translate(64 61) scale(0.03 0.03)" xlink:href="../../../../../../DOWNLOADS/Layboard/assets/img/Layboard%20Logo.png"/></svg>