<svg id="Layer_1" data-name="Layer 1" xmlns="http://www.w3.org/2000/svg" xmlns:xlink="http://www.w3.org/1999/xlink" viewBox="0 0 1920 1080"><defs><style>.cls-1{fill:#fff;}.cls-2{fill:#fafafa;}.cls-3{fill:#194055;}.cls-4{fill:#218838;}.cls-5{fill:#e7edff;}.cls-6{clip-path:url(#clip-path);}.cls-7{fill:#88a0e2;}.cls-8{fill:#ffb27d;}.cls-9{fill:#e2915a;}.cls-10{fill:#233862;}.cls-11{fill:#9db0f4;}.cls-12{fill:#aec3ff;}.cls-13{fill:#a9453d;}.cls-14{fill:#ed975d;}.cls-15{fill:#2a4e96;}.cls-16{fill:#5f9aa8;}.cls-17{fill:#75ba40;}.cls-18{fill:#1e3d70;}.cls-19{fill:#61a62c;}.cls-20{fill:#464951;}.cls-21{fill:#201d40;}.cls-22{fill:#161336;}.cls-23{fill:#2c2858;}.cls-24{fill:#ed985f;}.cls-25{fill:#36446e;}.cls-26{fill:#d7e1ff;}</style><clipPath id="clip-path"><rect class="cls-1" x="1321.12" y="479.33" width="76.93" height="100.28"/></clipPath></defs><rect class="cls-2" width="1920" height="1080"/><path class="cls-3" d="M912.07,989.5s-104.82-119.39-84.44-316c21.09-203.57,132-311.88,276.67-270.77,118.26,33.6,194.44,12,316.73-84,200.54-157.5,459,13,391.4,318.18C1779.71,784.6,1917,857.57,1802.09,989.82Z"/><path class="cls-4" d="M1531.89,459.26s65.1-85.77,84.36-67.2S1531.89,459.26,1531.89,459.26Z"/><path class="cls-4" d="M1527.41,475.43s123-77.72,153.45-40.41-33.44,35.09-57.15,31.72S1527.41,475.43,1527.41,475.43Z"/><path class="cls-4" d="M1521.76,457.83s.49-4.12,1.15-10.14c1.29-11.75,3.22-30.75,3.41-40.62.28-14.92,9.22-25.86,19.67-11.1s-20.45,57.61-20.45,57.61Z"/><path class="cls-4" d="M1198.75,605.51c5.7-24.12,37-15.1,37-15.1S1256,634,1262.24,635.26s-11.76-41.65-11.76-41.65c12.1-1,42.33,19.66,42.33,19.66s-3.26,49.62,3,48.88S1297,618,1297,618c11.55,5.09,22,23.32,22,23.32,12.85,29.52-16.89,49.51-16.89,49.51a102.39,102.39,0,0,0,6.81,37.37h0a68.2,68.2,0,0,1,3.46,10l-3.19-.15c-.23-1.12-.48-2.21-.77-3.25v-.07c-.2-.65-.49-1.57-.85-2.7h0c-.9-2.53-1.51-4.39-1.89-5.73h0c-2.7-7.92-6.63-18.25-9.38-20.51a9,9,0,0,0,.73-1.87c-.23.6-.47,1.22-.73,1.87-5.84,15-33.15,16.29-48.21,11.55s-8.31-10,.1-18.7,25.47-5.54,30.62-8.86-2.15-7.21-12.29-6.64-15.55,13.52-31.94,14.81-27.79-39.32-27.79-39.32c11.16,5.07,31.6-2.14,32.52-7.18s-29.06-5.87-33.69-7.6S1193.05,629.63,1198.75,605.51Z"/><path class="cls-4" d="M1676.56,635.81c-5.77-19.44-31.18-9.65-31.18-9.65s-14.78,37.43-19.83,39,7.84-35.22,7.84-35.22c-10,.1-34,19.4-34,19.4s4.89,40.64-.3,40.51-2.92-36.28-2.92-36.28c-9.29,5.07-17.08,20.88-17.08,20.88-9.28,25.3,16.12,39.54,16.12,39.54a85.75,85.75,0,0,1-4,31.31h0a57.67,57.67,0,0,0-2.41,8.53l2.62-.36c.14-1,.3-1.86.5-2.75h0v0c.14-.55.33-1.34.58-2.29h0c.64-2.15,1.06-3.73,1.31-4.87h0c1.88-6.73,4.66-15.54,6.82-17.6a7.47,7.47,0,0,1-.68-1.49c.22.47.44,1,.68,1.49,5.49,11.89,28,10.92,40.26,5.88s6.4-8.89-.92-15.41-21.23-2.64-25.63-5,1.45-6.1,9.84-6.41,13.41,10,27,9.81,21.16-34.51,21.16-34.51c-9,5-26.14.62-27.12-3.46s23.69-7,27.43-8.81S1682.32,655.26,1676.56,635.81Z"/><path class="cls-4" d="M1216.16,377.39c14.76-37.41,64.13-10.67,64.13-10.67s23.51,79.21,33.39,83.7-10-72.84-10-72.84c20.08,3,65.06,48.4,65.06,48.4s-16.47,80.18-6,81.36,11.81-72,11.81-72c17.82,12.75,30.84,46.66,30.84,46.66,14.47,53.34-38.82,74.82-38.82,74.82s-5.25,27.95,2.78,63.92h0a122.08,122.08,0,0,1,3.42,17.77l-5.19-1.44q-.18-2.91-.55-5.65a0,0,0,0,0,0,0s0,0,0-.08c-.18-1.15-.45-2.78-.79-4.77h0a0,0,0,0,0,0,0c-.92-4.49-1.5-7.78-1.82-10.12v0c-2.67-14-6.8-32.48-10.8-37.22a13.55,13.55,0,0,0,1.62-2.8l-1.62,2.8c-12.95,22.34-58.06,14.09-81.72.58s-11.39-19.61,4.36-30.66,43,.62,52.24-2.87-1.91-12.65-18.68-15.59-28.55,16.26-55.75,12.14-36.78-75.13-36.78-75.13c17.18,12.58,52.35,8.54,55,.62s-46.38-20.71-53.59-25.31S1201.39,414.8,1216.16,377.39Z"/><rect class="cls-1" x="1291.2" y="432.2" width="316.14" height="557.24"/><rect class="cls-5" x="1301.07" y="443.05" width="293.67" height="532.47"/><rect class="cls-1" x="1321.12" y="479.33" width="76.93" height="100.28"/><g class="cls-6"><polygon class="cls-7" points="1385.14 676.59 1324.31 676.59 1367.91 549.13 1383 593.19 1388.51 636.04 1385.14 676.59"/><path class="cls-1" d="M1337.64,552.43l9.74-3.3,9.46-4.37s5.5,3.42,9.41,4.37c4.26,1,18.49,32,18.49,33.31S1373.61,676,1373.61,676h-53.7Z"/><path class="cls-8" d="M1364.3,554.16c-4.82,1.08-11.85-.44-16.93-5a79.08,79.08,0,0,0,3.93-16.58l.06-.57a21.81,21.81,0,0,0,.12-3.82l12.41.38s3.36,2.12,3.33,3.52c0,.75,0,1.46,0,2.14,0,1.86,0,3.49.07,4.89.15,4.54.64,10,.64,10S1369.17,553.07,1364.3,554.16Z"/><path class="cls-9" d="M1367.27,539.09c-9.45,2.08-14.78-4.78-16-6.54-.17-.25-.26-.4-.26-.4l.32-.17c3.53-1.74,11.58-.81,16,1.44C1367.33,535.28,1367.22,537.69,1367.27,539.09Z"/><path class="cls-8" d="M1347.82,527c3.2,11.24,14.64,8.26,19.51,6.41a23.71,23.71,0,0,0,2.22-.95c1.51-.9,2-4.33,1.8-8.67-.3-8.57-3-20.65-4.46-23.56-2.27-4.37-6-8.8-17.12-2.49S1343.72,512.61,1347.82,527Z"/><path class="cls-10" d="M1365.84,490.28c-3.93-3.77-7.43-4.6-10-4.64-7.56-.14-13.42,4.84-13.45,4.87-8.74,7.55-10,17.54-3,31.1,7.36,14.34,11.85,11.18,11.85,11.18s-.86-.36-1.41-5.22c0-.28,0-.51-.07-.71a3.54,3.54,0,0,0-1.14-2.47c-1.35-1.1-2.47-5.11-1.64-6.48,1-1.65,2.89-.34,3.6.83a1.25,1.25,0,0,0,2.15.13c2.62-3.09.07-7.51,2.49-11.11s16.92-2,17.87-12.61A23.79,23.79,0,0,1,1365.84,490.28Z"/><path class="cls-3" d="M1367.91,549.13s15.24,41,17.23,72.62a412,412,0,0,1,0,54.84A269.88,269.88,0,0,0,1396,609.12c.42-16.26-1.58-45.7-5.82-50.91C1388.1,555.67,1381.89,553.24,1367.91,549.13Z"/><path class="cls-3" d="M1351,603.32c0,4.68-.19,9.57-.45,14.63a320.51,320.51,0,0,1-8.07,58h-49.87s6.18-19.58,13.65-40.86c1.3-3.73,2.65-7.51,4-11.24,5.51-15.15,11.25-29.58,15.44-36.86,11.12-19.34,21.72-37.87,21.72-37.87S1351.28,571.31,1351,603.32Z"/><path class="cls-11" d="M1337.26,632.67s-10.24,5.3-31,2.43c1.3-3.73,2.65-7.51,4-11.24Z"/><path class="cls-11" d="M1351,603.32c0,4.68-.19,9.57-.45,14.63-6.71-.47-30.7-2.19-30.59-2.64s2.22-12.43,2.22-12.43,20.17,6.39,28.78,0Z"/><path class="cls-8" d="M1341.55,617.38s7.15-5.53,10.46-5.27,8.61,1.65,9.41,5.27-1.19,1.86-5.63,3c-2.62.66-4.22,5.56-7.62,6-1.32.17-6.62-1.21-6.62-1.21Z"/><path class="cls-3" d="M1347.38,549.13s-18.31,2.83-23.07,8.69c-8.07,9.93-29.27,47.47-27.18,63.93,1.39,10.92,40.13,10.92,40.13,10.92s4.78-4,6.54-7.69c3.58-7.42,2.34-12.87,2.34-12.87l-24-10.61s11.69-14.77,20.7-15.54C1349.46,585.4,1347.38,549.13,1347.38,549.13Z"/></g><rect class="cls-12" x="1418.41" y="540.92" width="96.4" height="2.52"/><rect class="cls-12" x="1418.41" y="552.69" width="96.4" height="2.52"/><rect class="cls-12" x="1418.41" y="564.59" width="96.4" height="2.52"/><rect class="cls-1" x="1418.41" y="471.83" width="29.5" height="38.45"/><rect class="cls-12" x="1477.43" y="501.87" width="37.39" height="4.44"/><rect class="cls-12" x="1469.29" y="512.25" width="45.53" height="4.44"/><rect class="cls-12" x="1320.13" y="916.92" width="101.23" height="2.21"/><rect class="cls-12" x="1320.13" y="927.49" width="101.23" height="2.21"/><rect class="cls-12" x="1320.13" y="940.28" width="101.23" height="2.21"/><rect class="cls-12" x="1324.82" y="605.22" width="190.39" height="2.52"/><rect class="cls-12" x="1324.82" y="616.99" width="190.39" height="2.52"/><rect class="cls-12" x="1324.82" y="628.9" width="190.39" height="2.52"/><rect class="cls-12" x="1321.87" y="657.44" width="193.34" height="2.52"/><rect class="cls-12" x="1321.87" y="669.2" width="193.34" height="2.52"/><rect class="cls-12" x="1321.87" y="681.11" width="193.34" height="2.52"/><rect class="cls-12" x="1320.88" y="712.02" width="194.33" height="2.52"/><rect class="cls-12" x="1320.88" y="723.78" width="194.33" height="2.52"/><rect class="cls-12" x="1320.88" y="735.69" width="194.33" height="2.52"/><rect class="cls-3" x="839.61" y="987.56" width="1042.87" height="3.44" rx="1.37"/><path class="cls-8" d="M1514.18,982.08c-.29,5.17-5.89,5.23-12.25,4.26s-4.67,1.14-13.57,1.3-12-3.67-12.39-5.33c-.39-1.47,3.9-2.71,8.48-4.16l1.74-.56c5.17-1.72,8.59-6.76,13-11.16,4.19-4.18,9.59-19.27,9.59-19.27l12.16-.72s-5.12,13.53-7,19.37c-1.13,3.43-.65,7.65-.15,10.88A26.81,26.81,0,0,1,1514.18,982.08Z"/><path class="cls-10" d="M1501.93,986.34c-6.36-1-4.67,1.14-13.57,1.3s-12-3.67-12.39-5.33c-.39-1.47,3.9-2.71,8.48-4.16l.06.11a20.25,20.25,0,0,0,13.06,3c6-.78,12.07-4,16.19-4.62a26.81,26.81,0,0,1,.42,5.39C1513.89,987.25,1508.29,987.31,1501.93,986.34Z"/><path class="cls-8" d="M1598.14,983.15c-.29,5.17-5.89,5.24-12.25,4.28s-4.66,1.15-13.56,1.32-12-3.66-12.4-5.31c-.39-1.47,3.9-2.72,8.48-4.18l1.74-.56c5.17-1.72,8.59-6.77,13-11.18,4.18-4.18,0-28.91,0-28.91l13.37-1.7s-.64,20.83-.63,30.29c0,3.74,1.32,7.33,1.81,10.57A26.06,26.06,0,0,1,1598.14,983.15Z"/><path class="cls-10" d="M1585.89,987.43c-6.35-.95-4.66,1.15-13.56,1.32s-12-3.66-12.4-5.31c-.39-1.47,3.9-2.72,8.48-4.18l.06.11a20.23,20.23,0,0,0,13.06,3c6-.79,12.06-4,16.18-4.63a26.06,26.06,0,0,1,.43,5.38C1597.85,988.32,1592.25,988.39,1585.89,987.43Z"/><path class="cls-13" d="M1559.12,555.71c-2.3-12.34,1-18.08,4-21.14,1.43-4.55,3.06-7.82,4.73-9.05a13.66,13.66,0,0,1,9.22-2.3,3.86,3.86,0,0,0-1.94-1.21c1.58-.3,5.1,1.74,5.1,1.74,22-11,25.43,31.13,25,40.93s-.4,21.33,11,29.05C1638.08,608.46,1609,664,1609,664c.56-7.92-27.47-49.7-42.09-62.21-3.56-6.83-4.82-18.89-4.92-19.84.62,9.56,1.87,14.93,3,18C1558.34,591.87,1557.35,572.67,1559.12,555.71Z"/><path class="cls-8" d="M1567.8,602.37c-.08,0,7.06,4.87,12.42,3,5-1.79,8.34-10.32,8.27-10.34-2.13-.55-2.75-4.38-2.7-20.83l-1,.25-16.24,4.19s.37,6.66.38,12.94C1569,596.81,1568.72,601.81,1567.8,602.37Z"/><path class="cls-14" d="M1568.58,578.6s.37,6.66.38,12.94c9.09-.33,13.89-11.14,15.86-17.13Z"/><path class="cls-15" d="M1502.48,955.55c-.8,3.25,1,6.6,3.61,6.76l6.35.39,6.71.27a5,5,0,0,0,4.35-2.59c5.36-8.57,21.86-37.13,31.87-78.64.28-1.16.57-2.34.89-3.53,6.61-25.12,20.31-56.65,27.53-85.19,1.15-4.55,2.18-8.83,3.11-12.88l.86-3.82c5.32-24.1,6.86-39.92,8.28-56.83l-52.14.55S1532.92,831.24,1502.48,955.55Z"/><path class="cls-1" d="M1551.2,681c.13,32.34-3.64,46.21-3.64,46.21s22.32,14.78,48.86,3.9c.31-.13,19-7,19-7-.45-1.31-4.14-23-4.57-24.15-5.6-15.68-7.13-22.26-7.79-27.08a133.78,133.78,0,0,1-.65-27.09,275.39,275.39,0,0,1,6.44-42.55c-7.23-2.15-14-5.91-21.53-9.59-1.73,2.81-7,5.75-11.61,5.61-5.28-.15-7-3.1-6.72-6.32-5.63,4.09-10.13,8-10.13,8-4.78,10.83-14.49,21.36-15.2,38C1543.47,642.93,1551.2,680.08,1551.2,681Z"/><path class="cls-16" d="M1596,684.59c2.28,4.2,6.65,29.76,17.52,33-5.6-18.21-9.86-26.2-10.52-31.8a180.37,180.37,0,0,1-.65-31.47c-3.64-8.31-6.35-14-6.35-14-.29-1.35-5.78-23.5-7.55-3.7S1593.49,679.89,1596,684.59Z"/><path class="cls-8" d="M1565.54,584.54s21.51.47,21.52-17,2.8-29.16-10.93-30.19-16.4,5.62-17.5,11.45S1560,584,1565.54,584.54Z"/><path class="cls-13" d="M1566.34,536.92s5.88,20.48,14.92,23.51,13-.12,13-.12a36.06,36.06,0,0,1-8.37-19.71S1570.78,527.17,1566.34,536.92Z"/><path class="cls-13" d="M1567.8,538.58s-4.4,4.57-5.47,9-1.56,13.6-3.61,13.29c0,0-4.43-13.92.55-21.8C1564.56,530.74,1567.8,538.58,1567.8,538.58Z"/><polygon class="cls-8" points="1531.7 703.43 1521.54 743.8 1527.33 746.83 1544.13 711.16 1531.7 703.43"/><path class="cls-17" d="M1559.09,598.48s-12,6.19-15.45,15.85-8.71,74.45-10.8,81.11-3.67,11.92-3.67,11.92,6,6.63,12.12,7.12S1559.09,598.48,1559.09,598.48Z"/><path class="cls-17" d="M1569,592.91s-12.45,40.07-12.81,48.18-1.47,132.61-1.47,132.61.74,5.72-7.68,3.34-10.61-4.77-10.61-4.77,8-76.8,5.85-103.51,16.84-70.28,16.84-70.28Z"/><path class="cls-18" d="M1512.44,962.7l7.29.29a3.89,3.89,0,0,0,3.38-2c4.9-7.73,22-36.69,32.26-79.26.28-1.16.57-2.34.89-3.53,6.61-25.12,20.31-56.65,27.53-85.19,1.15-4.55,2.18-8.83,3.11-12.88l.86-3.82-7.68-7.6s-23,48.66-30.19,94.45C1543.69,902.94,1518.86,950.8,1512.44,962.7Z"/><path class="cls-15" d="M1579.28,867.43c-.13,21.07.64,68,2.61,91,.18,2.1,1.54,3.68,3.16,3.68h5.44c2.29,0,4,0,5.15,0a2.34,2.34,0,0,0,2-2.2c5.41-35.88,9.28-65.7,12.11-91.45,2.37-21.57,4.48-40,6.1-56s2.77-29.42,3.18-40.75c.06-1.79.11-3.52.13-5.21s0-3.34,0-4.93l-45-5.73C1574.72,794.83,1579.35,854.49,1579.28,867.43Z"/><path class="cls-18" d="M1590.49,962.08c2.06,0,3.65,0,4.78,0a2.84,2.84,0,0,0,2.46-2.67c5.37-35.68,9.22-65.35,12-91,2.37-21.57,4.48-40,6.1-56s2.77-29.42,3.18-40.75l-16.53,12.67s10.55,4.85,6.52,41.58S1596.09,956.88,1590.49,962.08Z"/><path class="cls-17" d="M1588.36,771.32s3.18,14.94,14.15,13,26.6-10.49,26.6-10.49-4.7-19.33-10.53-44.71c-7.06-30.74-15.81-70.36-19.93-95.35-1.15-7-1.94-12.85-2.24-17l-9.1-23s-13.59,39.73-14.32,49.75S1588.36,771.32,1588.36,771.32Z"/><path class="cls-8" d="M1599.33,642l-12-48.25s15.19,5.88,22.81,10.89c0,0,4.76,8,7.71,26.48,0,0,3.11,44.34-3.84,60.55,0,0-22,5.73-57.09-10v-10.5s38.43,2.63,46.29,3.82Z"/><path class="cls-19" d="M1588.85,664.47c.49,16.21,3.42,47.7,29.52,64.55l.21.13c-7.06-30.74-15.81-70.36-19.93-95.35C1593.86,643.14,1588.58,655.54,1588.85,664.47Z"/><path class="cls-17" d="M1587.3,593.73s22.29,2,27.66,17.63,7.07,67.42.24,82.68c0,0-9.4,3.49-26-.56l-.61-.16s-5.31-16.93-.55-20.27c0,0,14,1,12.56-5.09S1587.3,593.73,1587.3,593.73Z"/><path class="cls-3" d="M1531.43,677.63l.66,2.75,36.56-14.83a2.24,2.24,0,0,0,.25-1.69c-.26-1.06-.9-1.06-.9-1.06Z"/><polygon class="cls-3" points="1528.79 680.23 1531.43 677.63 1532.09 680.38 1528.79 680.23"/><path class="cls-8" d="M1523,742.7s-9.27,6.68-10.49,11.77-.39,15.75,1.09,15.59,3.67-11.45,4.89-12.25,2.93-3.18,2.93-1.43-1.22,4.93-.61,5.41,2.56-4.45,3.9-5.41,1.91-8.82,3.21-10.93S1523,742.7,1523,742.7Z"/><path class="cls-8" d="M1556.89,671.14s-8.29-6.66-11.78-5.63-12.34,9.4-8.08,11.21,7.72-.09,9.36,1.23,2.85,3.72,10.5,3.69S1556.89,671.14,1556.89,671.14Z"/><polygon class="cls-1" points="1126.78 720 1176.98 714.6 1171.53 628.47 1121.34 633.87 1126.78 720"/><polygon class="cls-5" points="1128.92 716.72 1174.53 711.82 1169.45 631.56 1123.84 636.46 1128.92 716.72"/><polygon class="cls-12" points="1130.08 674.47 1166.97 670.83 1166.94 670.32 1130.05 673.96 1130.08 674.47"/><polygon class="cls-12" points="1130.2 676.84 1167.1 673.21 1167.07 672.7 1130.18 676.33 1130.2 676.84"/><polygon class="cls-12" points="1130.33 679.25 1167.22 675.61 1167.2 675.1 1130.3 678.74 1130.33 679.25"/><polygon class="cls-12" points="1131.8 702.77 1155.58 700.22 1155.55 699.71 1131.77 702.26 1131.8 702.77"/><polygon class="cls-12" points="1131.95 705.15 1155.73 702.59 1155.69 702.08 1131.92 704.64 1131.95 705.15"/><polygon class="cls-12" points="1132.1 707.55 1155.88 704.99 1155.85 704.49 1132.07 707.04 1132.1 707.55"/><polygon class="cls-12" points="1127.82 651.49 1151.59 648.93 1151.56 648.43 1127.79 650.98 1127.82 651.49"/><polygon class="cls-12" points="1127.97 653.86 1151.74 651.31 1151.71 650.8 1127.94 653.35 1127.97 653.86"/><polygon class="cls-12" points="1128.12 656.26 1151.89 653.71 1151.86 653.2 1128.09 655.75 1128.12 656.26"/><polygon class="cls-12" points="1127.88 643.65 1140.68 642.27 1140.61 641.16 1127.81 642.53 1127.88 643.65"/><polygon class="cls-12" points="1127.88 646.57 1143.47 644.89 1143.4 643.77 1127.81 645.45 1127.88 646.57"/><polygon class="cls-12" points="1129.44 663.31 1166.33 659.68 1166.31 659.17 1129.41 662.8 1129.44 663.31"/><polygon class="cls-12" points="1129.56 665.69 1166.46 662.05 1166.43 661.54 1129.54 665.18 1129.56 665.69"/><polygon class="cls-12" points="1129.69 668.09 1166.58 664.46 1166.56 663.95 1129.66 667.58 1129.69 668.09"/><path class="cls-8" d="M1117.36,645.78c.87-.8,1.54-2.58,2.44-3.91a9.85,9.85,0,0,1,1.92-1.94s.13,2.31.26,4.19c2.64-1.29,6.61-2.47,12.94-.89a4.9,4.9,0,0,1,3.11,2.68,3.18,3.18,0,0,1-.73,4.25c-3.23,2.62-2.29,1.05-6.78,4.87s-10,4.78-13.27,2.11l-4.41-1-.55-9.45S1114.8,646.34,1117.36,645.78Z"/><path class="cls-8" d="M1001.86,566.53s10.39,16.06,23.62,9.34c0,0,2.85-9,2.89-15.59,0-.81,0-1.6,0-2.35.07-7.45.26-11.63.26-11.63h0c-.6-.33-20.23-10.83-20.21-10C1008.77,556.49,1001.86,566.53,1001.86,566.53Z"/><path class="cls-14" d="M1010.4,541.14c1.89,4.58,8.39,13.52,18,16.79.07-7.45.26-11.63.26-11.63h0C1028.1,546.11,1009.84,539.8,1010.4,541.14Z"/><path class="cls-8" d="M1032.76,545.53s-22.07,6.76-25.09-11.22-7.9-29.22,6.06-34.3,17.87,1,20,6.68S1038.43,543.3,1032.76,545.53Z"/><path class="cls-13" d="M1008.43,539.21c-.3.25-5,2.15-14-21.2a25.91,25.91,0,0,1,.92-18.61c3.29-7,15-12.51,24.66-14.91s12,4.71,14.3,11.86c2.4,7.5,9.32,13.68,9.32,13.68-8.36,6.08-18.43-2.62-21.92-1.19s-4.72,8.6-5,10.9-.66,4.2-5,2.15-2,8.1-1.28,10C1010.35,531.93,1010.94,537.11,1008.43,539.21Z"/><path class="cls-20" d="M951.57,987.61H938.21c-2.81,0-5.92-3.66-6.7-10.35s-6.54-10.35-7.78-15.83,5.14-13.2,5.14-13.2l1.06-1.78,1.11-1.87,10.59,3.25s.26,3.28.43,7.47c.11,3,.17,6.51,0,9.58-.31,7.3,1.57,15.17,6.55,16.59S951.57,987.61,951.57,987.61Z"/><path class="cls-20" d="M1044.61,987.61h-35.43a2.54,2.54,0,0,1-.75-.29c-2.36-1.54-1.62-13.34-1.34-17,.06-.67.09-1.07.09-1.07s12.46-13,14.18-3c0,.31.11.61.18.91h0c2.16,9.3,11.83,13.53,17.41,14.7A6.9,6.9,0,0,1,1044.61,987.61Z"/><path class="cls-21" d="M1037.47,721.33s-1.89,30.76-4.12,67.75c-3,50.23-6.65,111.94-7,123.63-.62,20.3-3.12,52.77-3.12,52.77s-5.91,7.72-17.75,4.47c0,0-10.55-46.36-13.56-95.4,0-.8-.09-1.61-.14-2.42-2.8-49.93-7.16-155.07-7.16-155.07Z"/><path class="cls-22" d="M1037.47,721.33s-1.89,30.76-4.12,67.75l-41.44,85.47c0-.8-.09-1.61-.14-2.42-2.8-49.93-7.16-155.07-7.16-155.07Z"/><path class="cls-21" d="M1028.83,725s-34.1,111.42-56.52,163.79-29.43,67-29.43,67-12.85-6.69-14-11.26c0,0,8.58-101.09,23.59-125.73,8.49-13.93,18.46-55.72,18.92-70.33s3-43.53,3-43.53Z"/><path class="cls-8" d="M951.06,704.74l-.36,7.16s3.63,12.73-6.53,19.26c0,0-4.35,2.29-4.53-2.12s.38-2.76,0-9S941.19,708,944.34,706l2.59-3.89Z"/><path class="cls-21" d="M947.1,710c3.77,1.58,4.37,1.23,4.37,1.23s18.37-43.6,20.24-47.59,39-48.89,39-48.89l-9.55-46.39s-42.24,71.3-46.8,81.54c-7.54,16.9-12,56.17-12,56.17A11.5,11.5,0,0,0,947.1,710Z"/><path class="cls-23" d="M1044.67,632.92c-.13,9.53-.56,20.24-1.13,31.12,0,.64-.07,1.29-.11,1.93-.36,6.74-1.93,30.24-2,31.19-1.86,24.68-3.81,44.17-4.17,44.47a1.79,1.79,0,0,1-1.46.48c-5-.81-19.77.66-31.9-2.78-10.23-2.82-19-8.15-28.37-15.34-1.24-1-4.07-3.48-3.84-5.37.23-2.08.65-5.08,1.18-8.86a619.57,619.57,0,0,0,6.09-62.11q.31-7.39.92-14.56a283.09,283.09,0,0,1,4.94-34.78c4.16-19.51,10.27-34.45,17.93-40.3,1-.73,6.39,3.74,11.34,7.88a18,18,0,0,0,14.07,4.34l4.11,5.94A68.43,68.43,0,0,1,1044,608.09c.11,1,.2,2.18.28,3.37C1044.68,617.29,1044.78,624.66,1044.67,632.92Z"/><path class="cls-21" d="M1044.67,632.92c-.13,9.53-.56,20.24-1.13,31.12,0,.64-.07,1.29-.11,1.93-28.35-23.13-32.72-65.47-32.72-65.47,14,.8,25,5,33.57,11C1044.68,617.29,1044.78,624.66,1044.67,632.92Z"/><path class="cls-23" d="M1116.31,651.14c.29-5.48-1.89-6.39-1.89-6.39s-42.75-10.1-46.38-11.59-34.71-43.63-34.71-43.63-11.91-17.51-21.67-13.64c-8.47,3.36-11.78,12-12.91,20.18-1.35,9.79,2.11,19.63,8.61,24.83,14.59,11.66,43.8,34.64,50.68,37.27,15.31,5.85,56.44.47,56.44.47A20.87,20.87,0,0,0,1116.31,651.14Z"/><path class="cls-8" d="M1764.24,674.61s-.87-11.29,3.66-10.9,5.72,3.09,5.22,5.26-4.91,9.34-4.91,9.34Z"/><path class="cls-19" d="M1757.17,734.6c-7.9.41-23.74-5.63-29.71-8.83a111.83,111.83,0,0,1-14.77-9.47c-1.12-.85-2.19-1.7-3.21-2.54-10.78-8.86-15.8-16.54-15.8-16.54s20.2-22.76,28.35-16.8c9.56,7,26,29.59,28.83,27.27,3.13-2.61,11.88-34.64,11.88-34.64,5.76-1.43,7,4.25,7,4.25S1768.38,734,1757.17,734.6Z"/><path class="cls-20" d="M1723.8,973.79s-.82,12.49,1.2,13.78l25.91-.06a5,5,0,0,0-4.16-4.77c-4.16-.87-11.47-4-12.71-11.11S1723.8,973.79,1723.8,973.79Z"/><path class="cls-15" d="M1742.83,822.69c-.13,8.16-.43,16.58-1,24.15-2.8,35.91-3.78,79.3-4.19,87.66-.69,14.52-2.89,37.72-2.89,37.72s-4.37,5.41-12.88,2.83a482.41,482.41,0,0,1-8.62-68.6c0-.58,0-1.16-.07-1.74-.19-4.65-.38-10-.57-15.7-1.3-38.41-2.71-95.48-2.71-95.48l32.52-9.95S1743.15,802.34,1742.83,822.69Z"/><path class="cls-10" d="M1742.83,822.69c-8.24,18.53-23.95,52.67-30.24,66.32-1.3-38.41-2.71-95.48-2.71-95.48l32.52-9.95S1743.15,802.34,1742.83,822.69Z"/><path class="cls-8" d="M1675,816.65s-2,10.32-1.68,12.61,2.3,10,3.53,12,1.28-8.37,2.09-10,.38,3.85,1,4.29,1.75-4.14,2.23-5.76-1.74-7.29-2-11.34S1675,816.65,1675,816.65Z"/><path class="cls-20" d="M1659.26,959.6s-4.62,5.49-3.72,9.39,5.06,6.49,5.63,11.26,2.81,7.36,4.83,7.36h9.66s1.49-3.35-2.11-4.36-5-6.61-4.73-11.81a120.51,120.51,0,0,0-.34-12.13l-7.65-2.31Z"/><path class="cls-15" d="M1737.27,794.4s-30.43,84.89-46.63,122.13-21.26,47.65-21.26,47.65-9.28-4.77-10.12-8c0,0,6.19-71.9,17-89.43,6.13-9.91,13.33-39.63,13.66-50s7.45-35.2,7.45-35.2Z"/><path class="cls-17" d="M1743,790s-9.92,13.91-26.76,18.11c-7.39,1.84-22.39,3.62-26.11-3.24-.88-1.61-.89-4-.69-7.72.5-9.67,2.37-28.38-6.06-66a79.24,79.24,0,0,1-1.62-10c-1.84-19.23,4.38-32.88,11.68-39,17.82-14.86,26.53-4.6,26.53-4.6s10.2,6.22,14.86,24.33C1744.1,738.09,1743,790,1743,790Z"/><path class="cls-8" d="M1698.7,678.25s10.2,4.32,19.51-.67c0,0,1.79-1.23.32-3.86.16-2.54.13-2.31.15-4.17.11-4.3,0-6.71,0-6.71l-6.86-5.82-6.5-5.58C1707,669.06,1698.7,678.25,1698.7,678.25Z"/><path class="cls-24" d="M1705.62,658.21s4.88,9.48,13.06,11.34c.11-4.3-.1-8.69-.1-8.69l-6.81-3.84Z"/><path class="cls-8" d="M1724.72,660.58s-16.51,8-20.19-5.23-8.28-21.16,2.11-26.84,13.85-1.59,15.91,2.45S1728.92,658.15,1724.72,660.58Z"/><path class="cls-25" d="M1694.25,630c-.19-.2-.58-.29-1.38-.14a3.15,3.15,0,0,1,1.4-.93c0-1.48.15-4.19,2-5.3a3.59,3.59,0,0,0-.82,2.54c1.76-3.51,6.16-6.88,19.44-8.9,17.5-2.66,14,13.18,12,15.47s-8.3-1-12.39.54-3.7,9.53-5,11-1-.61-3.06-1.24-1.63,3.53-.67,6.07-1.13,6.75-1.13,6.75l-3.22-3c-3.21-3-8.09-18.14-7.4-21.81C1694.12,630.65,1694.18,630.33,1694.25,630Z"/><path class="cls-19" d="M1689.39,797.13c.5-9.67,2.37-28.38-6.06-66a79.24,79.24,0,0,1-1.62-10h0c6.26-2.69,17.67,3.3,17.67,3.3S1702.07,774.1,1689.39,797.13Z"/><path class="cls-17" d="M1694.14,681.53s-12.93,9.54-17.35,30.84c-3.62,17.45-9.23,43.4-9.9,51.52s6.83,55.64,6.83,55.64,1.06,1,3.66.33A6.24,6.24,0,0,0,1681,817s1.79-31.67,1.33-46.63c-.19-6.21,22.07-45.5,34.08-50.56C1721.15,717.84,1694.14,681.53,1694.14,681.53Z"/><path class="cls-19" d="M1703.1,670.22s-2.16,1.38-6.35,8.64c0,0,7.8,12.74,19,11.08a62.16,62.16,0,0,1-1.31-10.8S1705.08,677.77,1703.1,670.22Z"/><path class="cls-19" d="M1714.49,679.14s6,2,7.45,7.68c0,0,1.27-4.85.15-7.59a23.73,23.73,0,0,0-3.56-5.51S1719.35,677.18,1714.49,679.14Z"/><path class="cls-1" d="M1797.22,647.69a197.93,197.93,0,0,0-48,5.34l-2.68-8.82-3-9.67s25.81-14.48,41.32-34.64Z"/><path class="cls-17" d="M1784.57,599.43l12.79,49.21h0c1.87-.72,2.89-3.34,2.24-5.74l-11.26-41.35c-.54-2-2.28-3-3.77-2.12Z"/><path class="cls-26" d="M1797.22,647.69a197.93,197.93,0,0,0-48,5.34l-2.68-8.82C1770.7,637.78,1797.22,647.69,1797.22,647.69Z"/><path class="cls-17" d="M1756.34,651.26l-7,1.59c.11,0-6.47,1.67-8.62-5.92a7.57,7.57,0,0,1-.41-1.64c-1.68-9.47,2.31-11.21,2.31-11.21l9-4.55,2.84,13.13v.05Z"/><path class="cls-19" d="M1756.34,651.26l-7,1.59c.11,0-6.47,1.67-8.62-5.92,3.94-3.74,13.7-4.27,13.7-4.27v.05Z"/><path class="cls-26" d="M1772.36,684.31h0c-2.49.65-4.93-1.47-5.42-4.71l-4.41-28.72c-.49-3.24,1.13-6.42,3.62-7.07h0c2.49-.65,4.93,1.47,5.43,4.71l4.4,28.72C1776.48,680.48,1774.85,683.67,1772.36,684.31Z"/><path class="cls-8" d="M1771.77,656.5s-3.41,1.77-2.78,3.73,5,4.64,5.63,3.1S1773.91,654.85,1771.77,656.5Z"/><path class="cls-8" d="M1764.17,672.83s-.64-4.54-.68-6.63-.5-3.66-.12-3.72.58.3.73,1,1.09,4.72,1.09,4.72l-.3,4Z"/><rect class="cls-12" x="1320.88" y="771.29" width="194.33" height="2.52"/><rect class="cls-12" x="1320.88" y="783.05" width="194.33" height="2.52"/><rect class="cls-12" x="1320.88" y="794.96" width="194.33" height="2.52"/><rect class="cls-12" x="1320.88" y="828.11" width="194.33" height="2.52"/><rect class="cls-12" x="1320.88" y="839.88" width="194.33" height="2.52"/><rect class="cls-12" x="1320.88" y="851.79" width="194.33" height="2.52"/></svg>