<svg id="Layer_1" data-name="Layer 1" xmlns="http://www.w3.org/2000/svg" viewBox="0 0 1920 1080"><defs><style>.cls-1{fill:#fafafa;}.cls-2{fill:#194055;}.cls-3{fill:#218838;}.cls-4{fill:#75ba40;}.cls-5{fill:#cdd8fa;}.cls-6{fill:#95a6db;}.cls-7{fill:#5e9736;}.cls-8{fill:#617ac9;}.cls-9{fill:#0e6a41;}.cls-10{fill:#3f964f;}.cls-11{fill:#201d40;}.cls-12{fill:#2c2858;}.cls-13{fill:#f37a50;}.cls-14{fill:#de623c;}.cls-15{fill:#494c7f;}.cls-16{fill:#fff;}.cls-17{fill:#0d0c1a;}.cls-18{fill:#e62552;}.cls-19{fill:#61a62c;}.cls-20{fill:#7f95db;}.cls-21{fill:#b4c2f0;}.cls-22{fill:#28a745;}.cls-23{fill:#e3eaff;}</style></defs><rect class="cls-1" width="1920" height="1080"/><path class="cls-2" d="M914.55,1034c-77.74-92.4-116.94-191.38-88.17-338.42,19-97.21,79.9-108.81,135.75-167.27,27.56-28.85,10.23-70.84,9.71-112.52C970.68,309,1079.79,226.22,1180.1,228c108.66,1.87,155.7,121.12,246.84,127.52,35.8.6,67.84-22.33,99.51-40.55,93.83-54,242.72-19.55,250.24,111,1.94,70.48-47.55,150.8,26.08,187.87,58.68,29.55,94,73.51,104.54,179.18,13.85,138.31-59.33,214.23-154.68,249.82Z"/><path class="cls-3" d="M1842.38,856.44s2.86,18.21-18.09,40.72c-21.34,22.93-25.2,43.13-25.2,43.13l-14.82,6.25s7.21-30.21,25.17-47.75C1831.94,876.88,1842.38,856.44,1842.38,856.44Z"/><path class="cls-3" d="M1873.47,877.85s-2,13.45-21.46,25.79c-19.89,12.54-26.93,26.27-26.93,26.27l-12.17,4.67s12-23.06,28.38-32.38C1861.74,890.54,1873.47,877.85,1873.47,877.85Z"/><path class="cls-3" d="M1808.31,876s-12.91,3.9-29.75,33.25c-13.72,23.91-12.65,39.59-21.15,54.2l20.24-11.68c4.52-10.94.26-20.93,11.75-43.27C1800.14,887.55,1808.31,876,1808.31,876Z"/><path class="cls-3" d="M1684.3,936.62s-8.73,11.13-7.71,45.71c.82,28.21,11.63,36.06,12.07,42.66l9.14-10.58c-3.19-12.17-10.73-13.75-12.61-39.28C1683.45,951.17,1684.3,936.62,1684.3,936.62Z"/><path class="cls-3" d="M1777.72,886.6s-14.37,19.76-20.62,33.49c-8.91,19.48-5,33.23-12.84,53.85l-14.72,9.71s-2-25.54,9.89-49.11C1759.36,895,1777.72,886.6,1777.72,886.6Z"/><path class="cls-3" d="M1738.61,883.42a154.47,154.47,0,0,1-12,40.16c-17.76,38.28-8.16,76.14-8.16,76.14l-10.27,5.06s-16.92-30.31-1.18-62C1723.66,909.31,1738.61,883.42,1738.61,883.42Z"/><path class="cls-3" d="M1775.94,954.29s9.76,0,44.17,19c22,12.16,18.39,0,37.84,15.63-17.1-4.82-27,6.21-48.15-3.8a333.81,333.81,0,0,0-52.11-19.62Z"/><path class="cls-3" d="M1837.51,1006.91s-20.46,14-51.62-.9a177.93,177.93,0,0,0-60.47-16.55l15.35-13.84s16.65-5.37,47.68,13.48C1809.78,1002.05,1837.51,1006.91,1837.51,1006.91Z"/><path class="cls-3" d="M1807.69,1032.69s-20.47,14-51.62-.9a178,178,0,0,0-60.48-16.55l15.35-13.84s16.65-5.37,47.68,13.49C1780,1027.84,1807.69,1032.69,1807.69,1032.69Z"/><path class="cls-3" d="M1880.85,951.78s-13.48,6.14-32.84-4.07c-19.63-10.35-36.21-11.37-36.21-11.37l7.88-4.34s10.52-3.39,30.14,8.52C1863.31,948.7,1880.85,951.78,1880.85,951.78Z"/><path class="cls-3" d="M1799.63,943.74s16.3,4.35,38.71,15.53c14.15,7,36.67,4.92,36.67,4.92s-22.38,17-43,5.07c-23.71-13.73-49.62-19.61-49.62-19.61Z"/><path class="cls-3" d="M1817.29,934.05s20.34-17.32,43.72-13.27a115.46,115.46,0,0,0,41.81-.8s-19.64,18.4-40.74,12.15C1842.59,926.42,1825,935,1825,935Z"/><path class="cls-3" d="M1690.3,1026.09l-2.8-2.78c15.69-18.9,77.35-76.16,137.15-93.47l1,4C1766.65,950.91,1705.8,1007.43,1690.3,1026.09Z"/><path class="cls-3" d="M1720.48,911.35q-16.05-23.65-4.31-60.88Q1733,885.33,1720.48,911.35Z"/><path class="cls-3" d="M1735.3,877q-11.49-23.74,3.81-55.49Q1749.87,855.47,1735.3,877Z"/><path class="cls-3" d="M1751.57,843.08q-7.74-24.06,10.68-51.57Q1768.07,825,1751.57,843.08Z"/><path class="cls-3" d="M1788.25,772.52q-.62,28.85-17.18,40.64Q1768.58,791.7,1788.25,772.52Z"/><path class="cls-3" d="M1811.38,765.82q-4.44,23.65-19.65,30.68Q1792.57,778.46,1811.38,765.82Z"/><path class="cls-3" d="M1803.22,797.65q6.69-16.51,28.42-21Q1819.72,797,1803.22,797.65Z"/><path class="cls-3" d="M1776.12,888.42q-23.67,30.18-50.74,27Q1739.74,890.25,1776.12,888.42Z"/><path class="cls-3" d="M1753.56,855.8q17.49-15,45.94-5.31Q1773.57,866.45,1753.56,855.8Z"/><path class="cls-3" d="M1808.13,829.31q-22.56,13.91-40,4.62Q1783.36,820.84,1808.13,829.31Z"/><path class="cls-3" d="M1786.69,815.11q15.21-13.05,40-4.62Q1804.08,824.4,1786.69,815.11Z"/><path class="cls-3" d="M1713.48,950.07c11.13-45.36,12.13-41.63,23-67.81q4.38-10.62,9.27-20.1a206.24,206.24,0,0,1,24.11-35.82q15.83-19.62,27.19-25.57l.74-.87a.67.67,0,0,1,.76-.45,1.06,1.06,0,0,1,.92,0,2.36,2.36,0,0,1,.56.89,1.36,1.36,0,0,1,0,1l-.29.68a2.47,2.47,0,0,1-.81.63v.17l-.69.28q-11,6.07-26.37,25a201.66,201.66,0,0,0-23.61,35.65q-5.12,9.59-9.29,19.7l-.71,1.76q15.86-20.37,48.53-16.71Q1762,892,1738.23,885.24c-10.52,25.79-11.21,21.29-22,65.52Z"/><path class="cls-3" d="M1280.82,995q-25.56,9.4-54.4-14.25Q1262,974,1280.82,995Z"/><path class="cls-3" d="M1255.46,969q-24.23,4.61-47.2-21Q1241.16,947.25,1255.46,969Z"/><path class="cls-3" d="M1230.87,941.65q-23.36.66-41.66-26.95Q1220.23,919,1230.87,941.65Z"/><path class="cls-3" d="M1180.66,881.85q24.94,9.52,30.13,30.35Q1191.32,908.18,1180.66,881.85Z"/><path class="cls-3" d="M1181.93,855.77q19.26,11.88,20.7,29.84Q1187.17,879.21,1181.93,855.77Z"/><path class="cls-3" d="M1207.16,874q-12.33-12-9.54-36Q1211.71,856.71,1207.16,874Z"/><path class="cls-3" d="M1278,930.11q19,33.87,7.92,61Q1268.35,968.46,1278,930.11Z"/><path class="cls-3" d="M1242.57,943.5q-7.71-22.79,9.51-49.34Q1258,926,1242.57,943.5Z"/><path class="cls-3" d="M1236.27,878.68q5.18,27.71-8.27,42.93Q1221.26,901.8,1236.27,878.68Z"/><path class="cls-3" d="M1217.3,896.57q-6.69-19.82,8.26-42.93Q1230.75,881.36,1217.3,896.57Z"/><path class="cls-3" d="M1312.42,1014.13c-36.12-25.51-32.56-25.41-52.05-44.72q-7.89-7.81-14.66-15.82a205.91,205.91,0,0,1-23.8-36.06q-12.24-22.47-13.93-36.11l-.53-1a.79.79,0,0,1-.16-.93,1.33,1.33,0,0,1,.29-1,2,2,0,0,1,1-.31,1.09,1.09,0,0,1,.88.32l.5.51a2.66,2.66,0,0,1,.3,1l.15,0,0,.8q1.92,13.29,13.69,35.09a202.09,202.09,0,0,0,23.81,35.49,207.36,207.36,0,0,0,14.31,15.7l1.32,1.29q-12.87-22.75.36-55.55,12.84,33-.36,55.55c19.24,18.85,15.11,18.19,50.33,43Z"/><path class="cls-3" d="M1467.77,849.47s3.32,15.23-13.27,35.5c-16.91,20.66-19.17,38-19.17,38l-12.21,6.16s4.59-26,18.9-41.86C1460,867.37,1467.77,849.47,1467.77,849.47Z"/><path class="cls-3" d="M1495.12,865.73s-1,11.49-16.86,23.08c-16.2,11.78-21.46,23.81-21.46,23.81l-10.06,4.67s9-20.21,22.38-29.06C1485.83,877.15,1495.12,865.73,1495.12,865.73Z"/><path class="cls-3" d="M1439.92,868s-10.71,4.07-23.49,29.88c-10.42,21-8.73,34.23-15.19,47.09l16.54-11.07c3.27-9.53-.82-17.72,7.77-37.3C1433.6,878.28,1439.92,868,1439.92,868Z"/><path class="cls-3" d="M1338.09,926.65s-6.83,9.93-4.25,39.11c2.1,23.8,11.63,29.8,12.34,35.35l7.2-9.48c-3.31-10.11-9.76-11-12.62-32.48A274.41,274.41,0,0,1,1338.09,926.65Z"/><path class="cls-3" d="M1414.59,878.8s-11.17,17.57-15.77,29.55c-6.57,17-2.61,28.4-8.18,46.3l-12,9.08s-3-21.48,5.92-42.11C1399.48,887,1414.59,878.8,1414.59,878.8Z"/><path class="cls-3" d="M1381.36,878.44a132,132,0,0,1-8.15,34.67c-13.11,33.42-3.11,64.87-3.11,64.87l-8.43,4.89s-15.82-24.63-4.09-52.36C1370,901.22,1381.36,878.44,1381.36,878.44Z"/><path class="cls-3" d="M1416.46,936.15s8.25-.58,38.28,13.4c19.25,9,15.56-1.09,32.78,11-14.7-3.07-22.56,6.85-40.9-.36a279.06,279.06,0,0,0-45-13.5Z"/><path class="cls-3" d="M1471.14,977s-16.61,13-43.69,2.3a149.69,149.69,0,0,0-52-10.4l12.3-12.62s13.81-5.53,41,8.58C1447.44,974.53,1471.14,977,1471.14,977Z"/><path class="cls-3" d="M1447.2,1000.56s-16.61,13-43.69,2.3a149.91,149.91,0,0,0-52-10.4l12.29-12.62s13.81-5.52,41,8.58C1423.51,998.1,1447.2,1000.56,1447.2,1000.56Z"/><path class="cls-3" d="M1505,927.8s-11.09,6-28-1.49c-17.12-7.59-31.19-7.46-31.19-7.46l6.45-4.14s8.73-3.5,25.91,5.41C1490.06,926.24,1505,927.8,1505,927.8Z"/><path class="cls-3" d="M1436,925.82s14,2.72,33.5,10.83c12.31,5.09,31.25,2,31.25,2s-18.07,15.73-36.15,6.84c-20.73-10.2-42.94-13.64-42.94-13.64Z"/><path class="cls-3" d="M1450.41,916.58s16.34-15.86,36.31-13.81a98.18,98.18,0,0,0,35.31-3.16s-15.69,16.72-33.84,12.69c-16.76-3.67-31.21,4.62-31.21,4.62Z"/><path class="cls-3" d="M1347.62,1001.94l-2.51-2.18c12.33-16.91,61.61-69,111.31-87.18l1,3.33C1408.43,933.84,1359.8,985.25,1347.62,1001.94Z"/><path class="cls-3" d="M865.91,852.2s-4.62,15.81,11.45,38.68c16.38,23.3,17.51,41.8,17.51,41.8l12.47,7.57s-3-27.86-17-45.89C872.87,871.8,865.91,852.2,865.91,852.2Z"/><path class="cls-3" d="M835.81,867S836,879.26,852,892.88c16.27,13.86,21,27,21,27l10.29,5.81s-8.06-22.15-21.55-32.66C844.8,879.91,835.81,867,835.81,867Z"/><path class="cls-3" d="M894,874.2s11,5.23,22.68,33.62c9.48,23.14,6.74,36.94,12.64,51.1l-16.68-13.14c-2.77-10.35,2.15-18.66-5.52-40.1C900,885.61,894,874.2,894,874.2Z"/><path class="cls-3" d="M997.41,945s6.51,11.09,1.66,41.72c-4,25-14.46,30.5-15.61,36.31l-6.93-10.65c4.24-10.4,11.12-10.78,15.7-33.24C996.51,958.06,997.41,945,997.41,945Z"/><path class="cls-3" d="M920,887.81s10.53,19.54,14.52,32.6c5.71,18.54.71,30.25,5.29,49.65l12,10.64s4.68-22.45-3.2-45C935.38,897.78,920,887.81,920,887.81Z"/><path class="cls-3" d="M955.16,890.3a141.09,141.09,0,0,0,6.11,37.36c11.43,36.46-1.42,68.85-1.42,68.85l8.56,5.89s18.51-24.67,8.12-55C965.51,915.36,955.16,890.3,955.16,890.3Z"/><path class="cls-3" d="M913.87,948.28s-8.68-1.33-41.45,10.86c-21,7.82-16.36-2.51-35.45,8.77,15.76-2,23.35,9.19,43.27,3.16a293,293,0,0,1,48.59-10.38Z"/><path class="cls-3" d="M853.09,986.73s16.62,15.2,46,6.21a157.65,157.65,0,0,1,55.69-6.51L942.73,972s-14.2-7-44,5.52C878.33,986.18,853.09,986.73,853.09,986.73Z"/><path class="cls-3" d="M876.69,1013.72s16.62,15.2,46,6.21a157.65,157.65,0,0,1,55.69-6.51L966.33,999s-14.2-7-44,5.52C901.93,1013.16,876.69,1013.72,876.69,1013.72Z"/><path class="cls-3" d="M820.83,931.8s11.29,7.29,29.68.84c18.64-6.55,33.51-5.2,33.51-5.2l-6.52-4.93s-9-4.45-27.79,3.48C836.78,931.44,820.83,931.8,820.83,931.8Z"/><path class="cls-3" d="M894,935.67s-15,1.66-36.21,8.56c-13.39,4.31-33.19-.6-33.19-.6s18,18.19,37.73,10.35c22.65-9,46.38-10.7,46.38-10.7Z"/><path class="cls-3" d="M879.39,924.65S863.27,906.48,842,906.91a104.61,104.61,0,0,1-37.1-6.39s15.38,19,34.86,16.35c18-2.44,32.67,7.57,32.67,7.57Z"/><path class="cls-3" d="M981.88,1023.78l2.81-2.09c-11.81-18.94-60.14-78.26-111.36-101.78L872,923.33C922.52,946.53,970.21,1005.08,981.88,1023.78Z"/><path class="cls-4" d="M1146.63,339.79a20.58,20.58,0,0,1,13.51-4.64c11.34,0,17.34,6.74,17.34,16.2,0,5.47-2.41,11-7.33,16.57-6.26,7.19-10.76,10.74-13.6,10.74a4.93,4.93,0,0,1-4.75-5.19c0-2.55,2.17-5.09,5.92-8.83a3.63,3.63,0,0,1,.67-.63c4.25-4.28,5.59-6.65,5.59-9.56,0-3.64-2.26-5.64-5.51-5.64a16.43,16.43,0,0,0-5.33,1.09,15.86,15.86,0,0,1-4.51,1.09c-2.33,0-5-2.18-5-5.83C1143.63,343.25,1144.63,341.43,1146.63,339.79Zm11.43,60.72c-5.09,0-8.51-4.19-8.51-9.29a8.5,8.5,0,0,1,8.51-8.55c4.41,0,7.83,4.18,7.83,8.55C1165.89,396.23,1162.64,400.51,1158.06,400.51Z"/><path class="cls-4" d="M1716.54,581.72a16.1,16.1,0,0,1,10.59-3.64c8.89,0,13.6,5.28,13.6,12.7,0,4.28-1.9,8.63-5.76,13-4.9,5.64-8.43,8.42-10.65,8.42a3.85,3.85,0,0,1-3.72-4.06c0-2,1.7-4,4.64-6.92a2.56,2.56,0,0,1,.52-.5c3.33-3.36,4.38-5.21,4.38-7.49a4.05,4.05,0,0,0-4.32-4.43,13,13,0,0,0-4.18.86,12.38,12.38,0,0,1-3.53.85,4.28,4.28,0,0,1-3.92-4.56A5.51,5.51,0,0,1,1716.54,581.72Zm9,47.58c-4,0-6.67-3.28-6.67-7.27a6.67,6.67,0,0,1,6.67-6.71c3.46,0,6.14,3.28,6.14,6.71C1731.64,626,1729.09,629.3,1725.5,629.3Z"/><path class="cls-5" d="M1574.44,635H1438.21a4.57,4.57,0,0,1-4.36-4.76v-128a4.38,4.38,0,1,1,8.72,0V625.43h131.87a4.78,4.78,0,0,1,0,9.52Z"/><path class="cls-6" d="M1448.52,603.66a4.14,4.14,0,0,1-3-1.34,5.08,5.08,0,0,1-.1-6.73l44-49.71a4.09,4.09,0,0,1,5.51-.69l20.82,14.74,22-27.84a4.11,4.11,0,0,1,6.15-.51,5.07,5.07,0,0,1,.46,6.72l-24.44,31a4.11,4.11,0,0,1-5.68.88l-21-14.87-41.53,46.9A4.16,4.16,0,0,1,1448.52,603.66Z"/><polygon class="cls-4" points="1544.41 552.5 1538.19 538.76 1524.82 534.1 1554.59 517.96 1544.41 552.5"/><path class="cls-4" d="M1053.35,407.56c-13.26,0-24-11.77-24-26.24s10.78-26.24,24-26.24,24,11.78,24,26.24S1066.6,407.56,1053.35,407.56Zm0-45.25c-9.61,0-17.42,8.53-17.42,19s7.81,19,17.42,19,17.41-8.53,17.41-19S1063,362.31,1053.35,362.31Z"/><path class="cls-4" d="M1839.27,724.44c-11.47,0-20.79-10.18-20.79-22.69s9.32-22.69,20.79-22.69,20.79,10.18,20.79,22.69S1850.73,724.44,1839.27,724.44Zm0-39.13c-8.31,0-15.07,7.37-15.07,16.44s6.76,16.44,15.07,16.44,15.06-7.37,15.06-16.44S1847.57,685.31,1839.27,685.31Z"/><path class="cls-4" d="M922.38,869.75c-8.71,0-15.81-7.74-15.81-17.25s7.1-17.26,15.81-17.26,15.81,7.74,15.81,17.26S931.1,869.75,922.38,869.75Zm0-29.76c-6.31,0-11.45,5.61-11.45,12.51s5.14,12.5,11.45,12.5,11.46-5.61,11.46-12.5S928.7,840,922.38,840Z"/><path class="cls-4" d="M1619.2,509.34c0,6.57-4.89,11.9-10.91,11.9s-10.91-5.33-10.91-11.9,4.89-11.91,10.91-11.91S1619.2,502.76,1619.2,509.34Z"/><path class="cls-4" d="M1874.48,755.11c0,6.58-4.89,11.91-10.91,11.91s-10.91-5.33-10.91-11.91,4.88-11.9,10.91-11.9S1874.48,748.54,1874.48,755.11Z"/><path class="cls-4" d="M1107.24,339.57c0,8.27-6.15,15-13.73,15s-13.72-6.71-13.72-15,6.14-15,13.72-15S1107.24,331.29,1107.24,339.57Z"/><path class="cls-4" d="M1227.29,665.34c0,8.27-6.15,15-13.72,15s-13.73-6.71-13.73-15,6.15-15,13.73-15S1227.29,657.06,1227.29,665.34Z"/><ellipse class="cls-7" cx="1364.5" cy="1032.62" rx="461.62" ry="41.38"/><polygon class="cls-8" points="1124.48 1036.4 1108.44 1036.31 1150.63 829.51 1165.97 833.03 1124.48 1036.4"/><polygon class="cls-8" points="1513.47 1036.4 1529.51 1036.31 1487.32 829.51 1471.98 833.03 1513.47 1036.4"/><path class="cls-9" d="M1415.73,1002.88h0a5.93,5.93,0,0,1-5.65-6.17V886.11h11.29v110.6A5.92,5.92,0,0,1,1415.73,1002.88Z"/><path class="cls-9" d="M1279.68,1002.88h0a5.92,5.92,0,0,1-5.64-6.17V886.11h11.29v110.6A5.93,5.93,0,0,1,1279.68,1002.88Z"/><rect class="cls-10" x="1261.85" y="864.58" width="169.35" height="21.75" rx="10.88"/><path class="cls-11" d="M1397.59,682.4c10.33,3.29,50.08,49.84,59.6,84.27-5.16,31-50.19,47.05-50.19,47.05l-.75-24S1421,779,1427.8,766.67c-10.78-8.48-32-37-32-37Z"/><path class="cls-11" d="M1298.41,682.4c-10.32,3.29-35.93,48-46.42,88.47a437,437,0,0,0-49,40.93l25.51,1.84s33.46-9,51.18-30c7.39-16.43,20.53-54,20.53-54Z"/><polygon class="cls-6" points="1364.79 673.8 1330.05 675.48 1326.54 712.59 1330.33 818.49 1366.97 817.99 1376.55 699.44 1364.79 673.8"/><path class="cls-12" d="M1323.47,617.73c4.84-6.07,8.66-.19,15.56-7.7s12.43-12.92,18.34-5,8.94,9.05,13.24,8.59,4.28,18.85,4.28,18.85,10.51-3,11.34-15.88c1-15.15-5.44-12.88-8.92-25s-16.93-18.93-23.08-16c-6.48,3.06-9.89,6.43-19.33,3.92s-17.59.53-17.57,13.9-14.39,9.38-9.78,26.08c1.79,6.47,6.81,12.43,9.13,11.91C1319.8,630.71,1320.35,621.64,1323.47,617.73Z"/><path class="cls-13" d="M1372.22,630.63c-2.31,4.88-1.65,10.91,1.48,13.48s7.54.69,9.86-4.19,1.66-10.91-1.48-13.47S1374.54,625.76,1372.22,630.63Z"/><path class="cls-14" d="M1376.4,641.7a.58.58,0,0,0,.26,0,1.23,1.23,0,0,0,.69-1.4c-.46-3.16-.21-5.49.71-6.75a3.52,3.52,0,0,1,3.48-1.17c.47.11.94-.31,1-1a1.15,1.15,0,0,0-.66-1.35,5,5,0,0,0-5.08,1.85c-1.39,1.88-1.79,4.87-1.2,8.9A1,1,0,0,0,1376.4,641.7Z"/><polygon class="cls-14" points="1335.74 683.13 1347.82 693.57 1360.09 683.13 1361.72 657.63 1334.11 657.63 1335.74 683.13"/><path class="cls-12" d="M1298,682.4l.63,136.09c11.83,10.6,35,13.49,35,13.49l-4.22-154Z"/><path class="cls-12" d="M1398.66,682.4,1398,818.49c-11.83,10.6-34,13.78-34,13.78L1367.23,678Z"/><polygon class="cls-15" points="1312.48 699.77 1332.45 793.82 1329.42 676.29 1312.48 699.77"/><polygon class="cls-15" points="1385.27 693.25 1364.79 794.9 1367.23 677.96 1385.27 693.25"/><path class="cls-13" d="M1347.42,592.18c-35.63-.92-27.5,51.47-24.9,59.7,1.42,4.49,10.46,21.71,25,22,14.54-.24,23.38-17.46,24.8-22C1374.91,643.65,1384.28,592.79,1347.42,592.18Z"/><path class="cls-12" d="M1341.18,629.52a1.77,1.77,0,0,0,.78-1,1.82,1.82,0,0,0-1-2.27,13.19,13.19,0,0,0-12,2.16,1.91,1.91,0,0,0-.38,2.51,1.57,1.57,0,0,0,2.3.41,10.13,10.13,0,0,1,9.09-1.67A1.55,1.55,0,0,0,1341.18,629.52Z"/><path class="cls-12" d="M1357,629.52a1.79,1.79,0,0,1-.79-1,1.82,1.82,0,0,1,1-2.27,13.19,13.19,0,0,1,12,2.16,1.91,1.91,0,0,1,.38,2.51,1.57,1.57,0,0,1-2.3.41,10.13,10.13,0,0,0-9.09-1.67A1.53,1.53,0,0,1,1357,629.52Z"/><path d="M1363.57,635.28a2.92,2.92,0,1,1-2.9-3.17A3,3,0,0,1,1363.57,635.28Z"/><path d="M1339.28,634.82a2.92,2.92,0,1,1-2.9-3.17A3,3,0,0,1,1339.28,634.82Z"/><path class="cls-14" d="M1349.27,637.25c1.79,4.38,4.08,9.73,4.08,9.73a6.58,6.58,0,0,1-7,3.31c2.3-.65,4.65-1.92,4.17-5.21S1349.27,637.25,1349.27,637.25Z"/><polygon class="cls-11" points="1351 703.33 1357.09 792.66 1347.95 804.43 1338.81 792.66 1345.05 703.56 1351 703.33"/><polygon class="cls-11" points="1354.34 693.73 1348.26 691.99 1342.05 694.03 1345.04 703.73 1351.02 703.61 1354.34 693.73"/><path class="cls-16" d="M1348,692a31.3,31.3,0,0,1-11.17,10.07l-12-19.85,5.25-6.75Z"/><path class="cls-16" d="M1348,692s5.83,7.41,11.49,9.64l10.85-21.43-5.11-6.42Z"/><path class="cls-12" d="M1319.24,627.16c4,1.47,5.33-22.6,21-11.21,11,8,31.55,6.75,27.44-4.13a97.29,97.29,0,0,1,8.08,8l-7.24-26.16s-29.88-10.25-40.48.13S1319.24,627.16,1319.24,627.16Z"/><path class="cls-13" d="M1325.44,631.58c2.37,5.08,1,11-3.08,13.29s-9.29,0-11.66-5.08-1-11,3.08-13.29S1323.08,626.51,1325.44,631.58Z"/><path class="cls-14" d="M1319.28,642.22a.84.84,0,0,1-.31-.05,1.19,1.19,0,0,1-.72-1.46c.87-3.1.79-5.45-.22-6.78-1.36-1.8-4.12-1.5-4.14-1.5a1.1,1.1,0,0,1-1.18-1,1.15,1.15,0,0,1,.94-1.29c.16,0,3.91-.45,6,2.32,1.53,2,1.74,5,.63,9A1.08,1.08,0,0,1,1319.28,642.22Z"/><path class="cls-14" d="M1349.05,660.63a17.48,17.48,0,0,1-9.76-3.36,1.55,1.55,0,0,1,0-2,1.24,1.24,0,0,1,1.76-.12c.39.26,9.26,6.21,15.08-.78a1.25,1.25,0,0,1,1.87-.1,1.55,1.55,0,0,1,.09,2,11.35,11.35,0,0,1-8.62,4.35Z"/><polygon class="cls-11" points="1415.73 841.2 1391 816.32 1309.31 816.32 1279.67 841.04 1313.14 867.5 1387.23 867.5 1415.73 841.2"/><g id="c"><path d="M1301,985.31c-7.57,17.9-35,14.9-30.17,34.79s55-11.83,55-11.83c-.93-4.86-3.78-16.24-5.49-20.57Z"/><path d="M1395.56,984.41c7.9,18.68,36.54,15.55,31.49,36.3s-57.37-12.34-57.37-12.34c1-5.07,3.94-17,5.73-21.47Z"/><path id="c-2" data-name="c" class="cls-12" d="M1324.07,876.86c-.19-28.59-22.3-60.36-44.39-39.05-23.16,22.34,14.26,149.26,14.26,149.26,13.77,9,20.36,8.69,34.6,0C1328.54,987.07,1324.24,904.46,1324.07,876.86Z"/><path id="c-3" data-name="c" class="cls-12" d="M1376.28,876.86c.19-28.59,22-48.36,39.45-35.66,18.89,13.75-12,148.79-12,148.79-5.34,2.8-20.92,4.62-31.77,1.24C1371.94,991.23,1376.1,904.46,1376.28,876.86Z"/></g><g id="с"><path id="с-2" data-name="с" class="cls-9" d="M1573.39,1036.4h0a5.93,5.93,0,0,1-5.65-6.17V921H1579v109.19A5.92,5.92,0,0,1,1573.39,1036.4Z"/><path id="с-3" data-name="с" class="cls-9" d="M1613,1036.4h0a5.92,5.92,0,0,1-5.64-6.17V921h11.29v109.19A5.93,5.93,0,0,1,1613,1036.4Z"/><path id="с-4" data-name="с" class="cls-9" d="M1665,1036.4h0a5.93,5.93,0,0,1-5.65-6.17V921h11.29v109.19A5.92,5.92,0,0,1,1665,1036.4Z"/><path id="с-5" data-name="с" class="cls-9" d="M1704.61,1036.4h0a5.93,5.93,0,0,1-5.65-6.17V921h11.29v109.19A5.92,5.92,0,0,1,1704.61,1036.4Z"/><path id="с-6" data-name="с" class="cls-10" d="M1642.14,759V888.92a2.58,2.58,0,0,1-2.46,2.68h-73.8c-7.45,0-13.49,6.59-13.49,14.72h0c0,8.13,6,14.72,13.49,14.72h89.74c7.45,0,13.48-6.59,13.48-14.72V759c0-8.13-6-14.72-13.48-14.72h0C1648.17,744.26,1642.14,750.85,1642.14,759Z"/><rect id="с-7" data-name="с" class="cls-10" x="1655.62" y="744.26" width="58.36" height="149.73"/><path id="с-8" data-name="с" class="cls-9" d="M1700.49,759V888.92a2.57,2.57,0,0,1-2.45,2.68h-73.81c-7.44,0-13.48,6.59-13.48,14.72h0c0,8.13,6,14.72,13.48,14.72H1714c7.44,0,13.48-6.59,13.48-14.72V759c0-8.13-6-14.72-13.48-14.72h0C1706.53,744.26,1700.49,750.85,1700.49,759Z"/></g><path class="cls-13" d="M1583.49,788.16c5.6,3.41,5.67,24.61,3.73,25.86-64.64,4.91-80.94,2.33-80.94,2.33l.81-12S1544.38,791.51,1583.49,788.16Z"/><path class="cls-13" d="M1644.37,749.38c-9.93,17.33-51.21,64.23-57.95,64.89l-7.62-25.56s38.7-55.91,45.58-64.53C1636.25,709.23,1660.63,721.12,1644.37,749.38Z"/><path class="cls-13" d="M1495.21,802.64a75.76,75.76,0,0,1,12.55,1.39l3.75,2.13-.4,7c-5.39,8.07-21.51,9.38-23,9.38-3.84,0-5.64.26-5.89-.33s-.89-4.37,4.69-4.57c7-.24,2.89-6.73-11.63-2.32-3.64,1.11-10.11-1.4-7.49-4C1470.69,808.45,1478.84,802.16,1495.21,802.64Z"/><path class="cls-17" d="M1620.62,656.77c-1.2-17.74,3.5-33.42,16.47-41.4,13.13-8.1,29.59-.16,29.59-.16h0s13.93-5.41,26.56,9.77,3.07,28.54,8.24,39.61c3,6.56,18.61,7.91,14.59,29.27-1.16,6.16-8,10.3-13.69,10.71-10.1.73-19.51-3.53-23.6.73-13.49,14-43.38,9-47.56-3.88-1.3-4-28.19,3.72-25.51-23.41C1607.07,664.27,1621.69,672.63,1620.62,656.77Z"/><polygon class="cls-13" points="1645.26 714.13 1666.61 709.83 1674.61 721.46 1657.6 759.54 1632.57 736.35 1645.26 714.13"/><path class="cls-4" d="M1617.58,805.94c.37-7.24-10.36-37-4.71-52,4.11-12.05,11-32.27,19.39-35.64,4-1.59,8-2.7,13-4.2,0,0-2.79,15.18,3,15.69,11.19,1,18.33-20,18.33-20,6-.63,33.71,9.3,33.7,11.78-.07,19.43-14.53,47.78-19.26,68.79-1.86,22.69,5.39,49.85,5.42,52.43,0,0-44.53,13.66-70.92-2.2C1615,838.42,1617.08,816,1617.58,805.94Z"/><path class="cls-18" d="M1679.77,819.52s9.83,27.07,12.22,44.11-11.13,28-11.13,28H1568.37s-12-21.32-8.58-36,11.45-17.06,11.45-17.06Z"/><path class="cls-14" d="M1566.86,837.74c14.36-2.21,56.05,15.46,73.82,53.86H1591Z"/><path class="cls-14" d="M1582.61,851.87a43.16,43.16,0,0,1-5-7.8c-4.2-8.06-14.3-9.42-20-2.56-20.73,25-64.93,81.84-74.78,88.92-2.78,2-19,12.21-34.47,10.19,0,0-7.62,3.17-2.55,9.77,2.62,3.41,41.86,6.92,41.86,6.92l3.06-12.58c22.85-18.46,51.29-17.13,75.4-50.87C1579.38,875.28,1582.61,851.87,1582.61,851.87Z"/><path class="cls-11" d="M1479.69,964.57l-15.79,11.19-2.17-2.83,12.81-13c-7.28-6.27-24.13-1-24.13-1-5.52-3.89-16.28-16.51-17.39-23.28,3.53-4.81,15.31,5.08,15.31,5.08-.44,2.15,3.28,9.57,6.24,10.84,12.86,3,25.67-1,36.13-6.76C1490.7,944.73,1499.44,959.18,1479.69,964.57Z"/><path class="cls-13" d="M1582.84,855.26a7.93,7.93,0,0,1,5.44,6.7c1.12,8.71,6.93,26.34-.93,44.81-19.29,45.35-30.68,75.22-32.7,86.93,5,10.3-15.06,38.44-15.36,40.28l-14.46-4.94s8.3-13.47,11.28-18.75c7.12-12.57,8.28-28,9.44-39.94,4.94-51-3.55-83.24,30.27-113.17A7.42,7.42,0,0,1,1582.84,855.26Z"/><path class="cls-11" d="M1561.85,1015.28l-1.42,20.49-3.38.17-1.73-19c-9,2.51-15.39,20.31-15.39,20.31-6.18,2.43-21.9,4.12-27.5,1-1.36-6,13-10.2,13-10.2,1.3,1.67,9,2.94,11.68,1.14,10-9.32,15.44-22.86,17.56-35.45C1554.65,993.7,1569.9,994.88,1561.85,1015.28Z"/><path class="cls-13" d="M1650.65,695.1l17.34-2.83-1.38,17.56s-3.32,8-7.17,8.5l-14.18-4.2Z"/><path class="cls-13" d="M1684,669.7c-4.48,20.41-20,33.84-34.68,30s-23-23.49-18.48-43.89,20-33.83,34.68-30S1688.5,649.3,1684,669.7Z"/><path d="M1637.75,661.17a2.53,2.53,0,0,1-3.52,1.29,3,3,0,0,1-1.18-3.85,2.53,2.53,0,0,1,3.52-1.28A3,3,0,0,1,1637.75,661.17Z"/><path d="M1658.37,666.72a2.73,2.73,0,0,1-3.81,1.39,3.22,3.22,0,0,1-1.28-4.15,2.74,2.74,0,0,1,3.81-1.4A3.25,3.25,0,0,1,1658.37,666.72Z"/><path class="cls-17" d="M1661.51,664.15a1,1,0,0,1-.46-.51c-1.42-3.35-5.27-4-5.31-4a1.07,1.07,0,0,1-.83-1.22,1,1,0,0,1,1.11-.92,9.39,9.39,0,0,1,6.83,5.24,1.13,1.13,0,0,1-.49,1.44A.91.91,0,0,1,1661.51,664.15Z"/><path class="cls-17" d="M1632,657a1.26,1.26,0,0,1-.26-.21,1.16,1.16,0,0,1,0-1.53,6.5,6.5,0,0,1,6.89-1.84,1.11,1.11,0,0,1,.61,1.37,1,1,0,0,1-1.25.67,4.65,4.65,0,0,0-4.86,1.34A.94.94,0,0,1,1632,657Z"/><path class="cls-14" d="M1639.44,667.4a27.71,27.71,0,0,1-4.08,4.23,1.19,1.19,0,0,0-.34,1.51c1.11,2.15,4.35,3.92,6.34,4.85.29.13.53-.28.29-.51a14.47,14.47,0,0,1-3.23-4.11,1.47,1.47,0,0,1,0-1.23c.41-.89,1.23-2.7,1.79-4.2C1640.4,667.43,1639.79,667,1639.44,667.4Z"/><path class="cls-13" d="M1677,669.83c-3.56,3-4.61,8.07-2.34,11.26s7,3.31,10.57.28,4.62-8.07,2.34-11.25S1680.53,666.8,1677,669.83Z"/><path class="cls-14" d="M1679,680.16a1,1,0,0,1-.34-.31,5.24,5.24,0,0,1-.35-6,4.56,4.56,0,0,1,5.22-2,1.11,1.11,0,0,1,.63,1.37,1,1,0,0,1-1.25.68,2.7,2.7,0,0,0-3,1.17,2.94,2.94,0,0,0,.32,3.42,1.15,1.15,0,0,1-.2,1.51A.93.93,0,0,1,1679,680.16Z"/><path class="cls-16" d="M1655.66,683.67a.85.85,0,0,0-.72-1.37,51.25,51.25,0,0,1-14.84,0,.86.86,0,0,0-.72,1.37,9.39,9.39,0,0,0,16.28,0Z"/><path class="cls-17" d="M1684.39,667.9c-17.52-2.56-42-22-44.05-32,3.39-12,21.45-18.05,31.64-12.48S1691.81,652.78,1684.39,667.9Z"/><path class="cls-13" d="M1771.94,686.19a13.84,13.84,0,0,1-7.5-14.69c-4.14.59-13.5,42-15.31,66.72-20.73-10.87-55-23.11-62.7-21.61,0,0-10.74.93-10,15.24.61,12.78,15.55,16.2,15.55,16.2s65.65,20.09,72.24,13.48C1774.43,751.25,1769.69,698.87,1771.94,686.19Z"/><path class="cls-13" d="M1782.59,681c-4.19,1.94-10.24,1.69-10.52,6.52l-9.92-1.22-2.32-5.37c3.12-15.52,19.65-26,21.35-26.84,4.41-2.2,6.36-3.53,6.93-3s3.13,4.52-3.2,7.95c-7.93,4.31-.07,9.41,14.51-4,3.65-3.36,12.31-4.19,10.53.28C1808,660.22,1801.65,672.13,1782.59,681Z"/><g id="с-9" data-name="с"><path id="с-10" data-name="с" class="cls-9" d="M1098.23,907.11h0a6.84,6.84,0,0,1,6.84,6.84V1037.8a0,0,0,0,1,0,0h-13.68a0,0,0,0,1,0,0V914a6.84,6.84,0,0,1,6.84-6.84Z" transform="translate(2196.45 1944.91) rotate(-180)"/><path id="с-11" data-name="с" class="cls-9" d="M1050.23,907.11h0a6.84,6.84,0,0,1,6.84,6.84V1037.8a0,0,0,0,1,0,0h-13.68a0,0,0,0,1,0,0V914A6.84,6.84,0,0,1,1050.23,907.11Z" transform="translate(2100.46 1944.91) rotate(-180)"/><path id="с-12" data-name="с" class="cls-9" d="M980.41,1030.82a6.91,6.91,0,0,0,6.84,7h0a6.91,6.91,0,0,0,6.84-7V907.11H980.41Z"/><path id="с-13" data-name="с" class="cls-9" d="M939.25,907.11h0a6.84,6.84,0,0,1,6.84,6.84V1037.8a0,0,0,0,1,0,0H932.41a0,0,0,0,1,0,0V914A6.84,6.84,0,0,1,939.25,907.11Z" transform="translate(1878.51 1944.91) rotate(-180)"/><path id="с-14" data-name="с" class="cls-10" d="M1014.93,710.78V868.2a3.12,3.12,0,0,0,3,3.25h89.41c9,0,16.34,8,16.34,17.83h0c0,9.85-7.31,17.83-16.34,17.83H998.6c-9,0-16.34-8-16.34-17.83V710.78c0-9.85,7.32-17.84,16.34-17.84h0C1007.62,692.94,1014.93,700.93,1014.93,710.78Z"/><rect id="с-15" data-name="с" class="cls-10" x="927.9" y="692.94" width="70.7" height="181.4" transform="translate(1926.5 1567.28) rotate(180)"/><path id="с-16" data-name="с" class="cls-9" d="M944.24,710.78V868.2a3.12,3.12,0,0,0,3,3.25h89.42c9,0,16.33,8,16.33,17.83h0c0,9.85-7.31,17.83-16.33,17.83H927.9c-9,0-16.33-8-16.33-17.83V710.78c0-9.85,7.31-17.84,16.33-17.84h0C936.92,692.94,944.24,700.93,944.24,710.78Z"/></g><g id="c-4" data-name="c"><g id="c-5" data-name="c"><path class="cls-13" d="M1137,711.76c-4.44-5.06-9.58-7.2-9.65-16.39,0-3.34.23-6.82.4-10.87.26-6.25,1.4-11.5,2.59-11.76,2.71-.6,3.6,1,4,4.73.33,2.85-1.17,6.65.69,8.28,1.65,1.45,4,2.38,9.7-4.87,7.28-9.24,8.38-13.88,11.41-11.62,2,1.48-1.29,6.4-8,15.29,5-3.07,11.12-17.22,14.83-13.52,2.69,2.69-9.15,15.86-12.71,18.49,7.49-3.21,12.76-15.16,14.84-13.94,4.25,2.79-4.79,14.29-11.33,17.6,7.05-1.34,9.4-8.51,11.23-7,3.41,2.76-6.91,14.61-14.68,18.64Z"/><path class="cls-14" d="M1139.18,689.51c.65,2.29,1.36,5.32-.39,8.41s-5.48,3.44-5.48,3.44a5.75,5.75,0,0,0,6.72-2.47,8.27,8.27,0,0,0-.85-9.38Z"/><path id="c-6" data-name="c" class="cls-19" d="M1083.53,741.55c15.21-12.62,37.25-40.69,37.25-40.69,8.73,4.17,13.34,14.71,13.34,14.71-10.53,41.43-43.2,75.76-58.06,78.24-13.56,2.27-47.92-69.18-31.25-103.84l7-1.68C1070.73,698.46,1083.53,741.55,1083.53,741.55Z"/></g><path class="cls-13" d="M1161.18,1016.45l16.22,4.49,6.63-15.78c-.69-.56-1.75-11-2.4-19l-26.2,3.94A232.4,232.4,0,0,0,1161.18,1016.45Z"/><path class="cls-11" d="M1189.81,1025.75s5.62-10.3,12.73-10.94c0,0,13.42.83,18.12,7,1.48,1.93.91,6.06.33,8.7-.37,1.65-1.65,3.44-5.61,4.81-5.86,2-13.76,3.24-28.32-.88-17.46-4.94-20.25-2.91-26.7-5.17-6.69-2.36-4.54-11.28-2.71-20C1157.65,1009.3,1162.51,1019.93,1189.81,1025.75Z"/><path class="cls-12" d="M1184.47,1003.62a65,65,0,0,0,18,7.7c5.7,1.43,20.89,4.65,18.45,15.71-.37,1.65-1.65,3.44-5.62,4.8-5.85,2-13.75,3.25-28.31-.87-17.46-4.94-20.25-2.91-26.7-5.18-6.69-2.35-3.6-12.48-1.78-21.17h0c.17,2.21,1.1,8,13.23,13.18C1175.36,1019.34,1172.4,1001.9,1184.47,1003.62Z"/><path class="cls-15" d="M1182.2,1016.94a1.42,1.42,0,0,0,1.25-1.14,7.35,7.35,0,0,1,6.57-5.8,1.47,1.47,0,0,0,1.3-1.59,1.43,1.43,0,0,0-1.44-1.42,10.17,10.17,0,0,0-9.11,8.09,1.52,1.52,0,0,0,1,1.82A1.2,1.2,0,0,0,1182.2,1016.94Z"/><path class="cls-15" d="M1188.6,1019.74a1.42,1.42,0,0,0,1.25-1.14,7.35,7.35,0,0,1,6.57-5.8,1.47,1.47,0,0,0,1.3-1.59,1.43,1.43,0,0,0-1.44-1.42,10.17,10.17,0,0,0-9.11,8.09,1.52,1.52,0,0,0,1,1.82A1.2,1.2,0,0,0,1188.6,1019.74Z"/><path class="cls-13" d="M1097.78,1023.12l15.9,5.73,7.63-15.23c-.65-.61-2.94-11.69-3.07-19.71l-24.49,2.46A235.11,235.11,0,0,0,1097.78,1023.12Z"/><path class="cls-11" d="M1071.39,825.55c36.25,7.23,87.73,32.86,92.81,38.69,10.49,12,15.63,53.47,20.58,127.25l-31.73,2.31c-11.71-57.63-22.72-82.76-24.52-106.17,0,0-27.8,2.1-69.64-15.52-20.62-8.69-42.11-18.82-35.92-39.16C1027.9,816.75,1036.83,818.66,1071.39,825.55Z"/><path class="cls-12" d="M1030.85,829c30.12,3.4,70.29,41,75.36,46.85,10.49,12,11.82,53.17,16.76,126.95L1091.4,1006c-5.11-38.22-20.05-82-20-110.08,0,0-28.26-6.69-72-17.43-23.93-5.88-31.11-9.92-35.68-27-1.56-5.8-3.67-19.25-1.28-22.25C973,816,1002.34,825.79,1030.85,829Z"/><path class="cls-11" d="M1125.75,1034.6s6.26-9.84,13.4-9.94c0,0,13.33,1.87,17.63,8.37,1.35,2,.51,6.12-.24,8.71-.47,1.62-1.87,3.31-5.91,4.36-6,1.56-13.93,2.18-28.19-3-17.1-6.27-20-4.46-26.3-7.22-6.52-2.86-3.8-11.59-1.42-20.12C1094.72,1015.72,1098.89,1026.7,1125.75,1034.6Z"/><path class="cls-12" d="M1121.85,1012.11a65.8,65.8,0,0,0,17.44,9.07c5.59,1.86,20.55,6.24,17.39,17.08-.47,1.62-1.86,3.31-5.91,4.36-6,1.56-13.93,2.18-28.18-3-17.1-6.27-20-4.46-26.31-7.22-6.52-2.86-2.78-12.72-.4-21.25h0c0,2.21.58,8.06,12.35,14.16C1111.74,1027.09,1109.91,1009.47,1121.85,1012.11Z"/><path class="cls-15" d="M1116.06,1025.8a1.41,1.41,0,0,0,1.25-1.13,7.38,7.38,0,0,1,6.57-5.81,1.47,1.47,0,0,0,1.3-1.58,1.44,1.44,0,0,0-1.44-1.43,10.18,10.18,0,0,0-9.11,8.09,1.52,1.52,0,0,0,1,1.82A1.07,1.07,0,0,0,1116.06,1025.8Z"/><path class="cls-15" d="M1122.46,1028.6a1.39,1.39,0,0,0,1.24-1.13,7.38,7.38,0,0,1,6.58-5.81,1.47,1.47,0,0,0,1.3-1.58,1.44,1.44,0,0,0-1.45-1.43,10.18,10.18,0,0,0-9.1,8.09,1.52,1.52,0,0,0,1,1.82A1.28,1.28,0,0,0,1122.46,1028.6Z"/><polygon id="v-2" class="cls-14" points="1010.96 653.16 1010.98 653.16 1022.99 653.2 1025.71 684.18 1011.69 692.27 996.73 684.28 999.15 653.2 1010.96 653.16"/><path class="cls-12" d="M1009.39,649.53c-10.36,4-19-9.49-19-9.49-6.76.42-7.12-6.94-7.12-6.94-3.3-.28-8.17-2.89-8.16-9.66,0-5.73,5-6.67,4.27-13.21-.54-5.25-6.49-17,8.3-21.63,0,0-1.59-9.62,6.95-14.1,10.46-5.49,14.68,1.09,19.78,1.2,5.7.13,16.21-8.13,20.53,5.15,0,0,7.75-1.69,12.56,3.57,4.47,4.91,4,12.68,2.36,15.91,0,0,6.66.78,9.4,6.83,1.83,4.06,1.44,10-1.93,13.63a11.36,11.36,0,0,1-4.47,3.05c-2.43,1.07-1.08,8.5-3,10.47a52.38,52.38,0,0,1-10.34,8Z"/><path class="cls-13" d="M988.64,632.68c2,21.62,18.65,39.19,34.21,37.5s24.11-22,22.13-43.65-16.2-37.77-31.76-36.07S986.66,611.06,988.64,632.68Z"/><path d="M1036.91,634.38a2.68,2.68,0,0,0,3.45,1.86,3,3,0,0,0,1.7-3.76,2.66,2.66,0,0,0-3.44-1.86A3,3,0,0,0,1036.91,634.38Z"/><path d="M1015.93,634.83a2.92,2.92,0,0,0,3.74,2,3.3,3.3,0,0,0,1.84-4.08,2.89,2.89,0,0,0-3.73-2A3.29,3.29,0,0,0,1015.93,634.83Z"/><path class="cls-14" d="M1028.36,635c2.73,4.15,6.18,9.21,6.18,9.21a7.34,7.34,0,0,1-6.7,5.11c2.28-1.21,4.48-3.09,3.33-6.42S1028.36,635,1028.36,635Z"/><path class="cls-12" d="M1012.27,631.09a1.28,1.28,0,0,1-.29-.14,1.56,1.56,0,0,1-.51-2c1-1.94,4-5.29,7.95-4.06a1.51,1.51,0,0,1,.93,1.83,1.33,1.33,0,0,1-1.67,1c-2.95-.91-4.83,2.64-4.85,2.67A1.33,1.33,0,0,1,1012.27,631.09Z"/><path class="cls-12" d="M1036.72,628.44a1.18,1.18,0,0,1-.51-.33,1.33,1.33,0,0,1,0-1.75,5.37,5.37,0,0,1,4-1.55c1.55.16,2.94,1.17,4.11,3a1.31,1.31,0,0,1-.27,1.72,1.07,1.07,0,0,1-1.57-.3,3.74,3.74,0,0,0-2.49-2,3.16,3.16,0,0,0-2.26.89A1,1,0,0,1,1036.72,628.44Z"/><path class="cls-12" d="M1048.6,604.56l-34.78-21.51-32.94,29.43,10.4,28.08c-1.75-13.7,6.68-11.15,9.81-16s3.64-11.58,14.06-8.28c0,0,6.43-7.49,11.91-.4,4.24,5.48,8.08,3.33,12.21,2.69,4.86-.76,4.73,4.59,7.63,3.73Z"/><path class="cls-13" d="M992.93,630.66c3.29,3.64,3.74,9,1,11.91s-7.6,2.36-10.89-1.28-3.73-9-1-11.9S989.65,627,992.93,630.66Z"/><path class="cls-14" d="M989.56,641a1.08,1.08,0,0,0,.4-.28,5.39,5.39,0,0,0,1.1-6.08,4.82,4.82,0,0,0-5.12-2.78,1.11,1.11,0,0,0-.81,1.3,1,1,0,0,0,1.2.89,2.86,2.86,0,0,1,2.92,1.64,3,3,0,0,1-.75,3.47,1.19,1.19,0,0,0,0,1.58A1,1,0,0,0,989.56,641Z"/><path class="cls-16" d="M1034.77,656.12a1,1,0,0,0-.76-1.6,58.73,58.73,0,0,1-16.94-.89,1,1,0,0,0-.89,1.52c1.35,2.21,4.21,5.61,9.05,5.87S1033.22,658.19,1034.77,656.12Z"/><g id="v"><path class="cls-4" d="M962.42,829.84s25.15,2.83,48.71,3c23.57-.19,48.71-5.18,48.71-5.18s-3.16-47.24-2.84-65.38c.46-20.83-1.22-48.46-1.22-76,0,0-16.72-2.93-26.15-4.2-1.53-.21-2.87-.37-3.91-.47,0,0-5.38,12.3-28.79,0a27.14,27.14,0,0,0-4.45,0c-9.83.64-25.67,4.69-25.67,4.69,0,27.46-1,54.37-.68,75.2C965.09,780.07,962.42,829.84,962.42,829.84Z"/></g><g id="c-7" data-name="c"><path class="cls-13" d="M1027.7,761.47c-1.9-6.34-5.49-10.49-2.07-18.39,1.24-2.87,2.78-5.74,4.45-9.13,2.59-5.24,5.54-9.23,6.67-8.91,2.54.71,2.69,2.51,1.66,5.87-.79,2.59-13.38-12.14-12.41-9.91.86,2,12.4,21.15,20,17.51,9.73-4.64,12.43-8.11,14.17-4.81,1.15,2.16-3.53,4.9-12.63,9.5,5.47-.37,16-9.75,17.82-4.91,1.29,3.51-13.83,9.47-17.87,10.12,7.62.62,16.66-7.24,18-5.26,2.58,4.31-9.51,10.08-16.36,10,6.54,2,11.27-3,12.28-1,1.88,3.91-11.45,9.4-19.63,9.35Z"/><path id="c-8" data-name="c" class="cls-19" d="M971.63,755.24c19.06-1.45,51.59-11.73,51.59-11.73,5.21,8.71,3.77,20.29,3.77,20.29-29.61,28.34-74.18,37.5-87.85,30.68-12.49-6.23-3.68-89.18,27.67-108.18l1.09.11C978.64,706.25,971.63,755.24,971.63,755.24Z"/></g><path class="cls-19" d="M992.48,681.6h0a17.3,17.3,0,0,0,7.18,7,32.47,32.47,0,0,0,16.44,3.67,17.89,17.89,0,0,0,9.61-3.91,12.31,12.31,0,0,0,3.92-6.27c-1.53-.21-3.1-.47-4.15-.57,0,0-5.14,12.4-28.55.1A27.14,27.14,0,0,0,992.48,681.6Z"/></g><path class="cls-20" d="M1057.59,813.9h109l21.5-74.64c1-3.44-1.36-7-4.67-7H1084.7a5,5,0,0,0-4.68,3.74Z"/><path class="cls-6" d="M1065.86,813.9H1174.8l21.51-74.64c1-3.44-1.37-7-4.68-7H1093a5,5,0,0,0-4.67,3.74Z"/><path class="cls-21" d="M1130,774.58c-1.2,4.61.93,9.31,4.77,10.5s7.92-1.59,9.12-6.2-.94-9.31-4.78-10.5S1131.2,770,1130,774.58Z"/><path class="cls-20" d="M995.7,806.11h70.16v7.61H988.73C988.73,809.51,991.85,806.11,995.7,806.11Z"/><path class="cls-20" d="M1572.36,813.9h-106l-20.93-72.62c-1-3.36,1.33-6.77,4.55-6.77h96a4.84,4.84,0,0,1,4.55,3.64Z"/><path class="cls-6" d="M1564.32,813.9h-106l-20.92-72.62c-1-3.36,1.33-6.77,4.55-6.77h96a4.84,4.84,0,0,1,4.55,3.64Z"/><path class="cls-21" d="M1501.91,775.64c1.17,4.48-.91,9.06-4.64,10.21s-7.7-1.54-8.87-6,.91-9.06,4.64-10.22S1500.75,771.15,1501.91,775.64Z"/><path class="cls-20" d="M1632.59,806.32h-68.27v7.4h75C1639.37,809.63,1636.33,806.32,1632.59,806.32Z"/><g id="с-17" data-name="с"><path id="с-18" data-name="с" class="cls-8" d="M1674.63,833.86H954.54c-7.63,0-13.83-4.55-13.83-10.16h0c0-5.61,6.2-10.16,13.83-10.16h720.09c7.64,0,13.83,4.55,13.83,10.16h0C1688.46,829.31,1682.27,833.86,1674.63,833.86Z"/></g><path class="cls-21" d="M1405.14,809.34H1284.21l-4.51-76c-.3-5.05,3.37-9.33,8-9.33h113.92c4.64,0,8.31,4.28,8,9.33Z"/><path class="cls-6" d="M1405.14,813.54H1284.21l-4.51-76c-.3-5,3.37-9.33,8-9.33h113.92c4.64,0,8.31,4.28,8,9.33Z"/><path class="cls-21" d="M1349.93,774.54c0,4.35-3.23,7.87-7.21,7.87s-7.21-3.52-7.21-7.87,3.23-7.87,7.21-7.87S1349.93,770.2,1349.93,774.54Z"/><path id="c-9" data-name="c" class="cls-13" d="M1401.29,808.65a3.41,3.41,0,0,1,.76-.8l-.15-.11c-3-2.33-4.09-6.08-2.56-8.38a3.55,3.55,0,0,1,.91-.94c-1.32-2.07-1.59-4.45-.5-6.1a3.65,3.65,0,0,1,1.74-1.39,5.67,5.67,0,0,1-.5-6.39c1.53-2.3,4.8-2.56,7.31-.58s3.31,5.45,1.78,7.76a4.24,4.24,0,0,1-1.45,1.35c2.34,2.32,3.15,5.58,1.77,7.67a3.91,3.91,0,0,1-.92.94c1.32,2.07,1.6,4.45.51,6.09a3.67,3.67,0,0,1-1.6,1.33,4.86,4.86,0,0,1,.58,5.61c-1.29,1.94-4,2.16-6.17.49S1400,810.59,1401.29,808.65Z"/><path id="c-10" data-name="c" class="cls-13" d="M1220.18,818a3.39,3.39,0,0,1-.69-.86l-.11.16c-2.28,3.09-5.77,4.15-7.8,2.37a3.78,3.78,0,0,1-.81-1c-2,1.33-4.15,1.51-5.6.24a4,4,0,0,1-1.19-2c-1.88,1.47-4.25,1.64-5.87.22-2-1.78-2.1-5.36-.16-8s5.16-3.33,7.19-1.55a4.42,4.42,0,0,1,1.16,1.66c2.24-2.44,5.27-3.15,7.1-1.54a3.63,3.63,0,0,1,.82,1c2-1.33,4.15-1.51,5.6-.24a4,4,0,0,1,1.14,1.81c1.61-1.39,3.73-1.6,5.16-.35,1.71,1.51,1.77,4.53.13,6.76S1221.89,819.5,1220.18,818Z"/><polygon class="cls-8" points="972.04 1036.4 956 1036.31 998.19 829.51 1013.53 833.03 972.04 1036.4"/><polygon class="cls-8" points="1637.73 1036.4 1653.77 1036.31 1611.58 829.51 1596.24 833.03 1637.73 1036.4"/><rect class="cls-22" x="1026.73" y="456.97" width="142.98" height="86.48" rx="37.89" transform="translate(2196.45 1000.43) rotate(180)"/><path class="cls-22" d="M1047,539.58v32.2a2.23,2.23,0,0,0,4.26,1.11l15.5-33.31Z"/><path class="cls-23" d="M1045.38,484h104.35c4,0,7.27-3.55,7.27-7.93h0c0-4.38-3.25-7.93-7.27-7.93H1045.38c-4,0-7.27,3.55-7.27,7.93h0C1038.11,480.45,1041.37,484,1045.38,484Z"/><path class="cls-23" d="M1045.38,509.17h104.35c4,0,7.27-3.56,7.27-7.94h0c0-4.38-3.25-7.93-7.27-7.93H1045.38c-4,0-7.27,3.55-7.27,7.93h0C1038.11,505.61,1041.37,509.17,1045.38,509.17Z"/><rect class="cls-23" x="1038.11" y="518.46" width="79.37" height="15.86" rx="7.93" transform="translate(2155.59 1052.79) rotate(180)"/><rect class="cls-22" x="1160.56" y="480.36" width="154.7" height="109.87" rx="40.99"/><path class="cls-22" d="M1293.35,586v34.83a2.41,2.41,0,0,1-4.61,1.21L1272,586Z"/><path class="cls-4" d="M1702.08,503.31l-132.4-56.47c-8.41-3.59-12.56-13.94-9.27-23.12L1621,254.53c3.29-9.19,12.77-13.72,21.18-10.13l132.4,56.47c8.41,3.59,12.56,13.94,9.27,23.12l-60.56,169.19C1720,502.36,1710.49,506.9,1702.08,503.31Z"/><polygon class="cls-16" points="1621.32 437 1608.28 431.44 1653.49 305.13 1666.53 310.69 1621.32 437"/><polygon class="cls-16" points="1640.79 445.3 1627.76 439.74 1672.97 313.44 1686 319 1640.79 445.3"/><polygon class="cls-16" points="1660.27 453.61 1647.23 448.05 1692.44 321.74 1705.48 327.31 1660.27 453.61"/><polygon class="cls-16" points="1679.74 461.92 1666.7 456.36 1711.91 330.05 1724.95 335.61 1679.74 461.92"/><polygon class="cls-16" points="1699.21 470.22 1686.18 464.66 1731.39 338.36 1744.42 343.92 1699.21 470.22"/><polygon class="cls-16" points="1668.18 306.1 1655.14 300.54 1657.53 293.87 1670.56 299.43 1668.18 306.1"/><polygon class="cls-16" points="1644.88 309.15 1631.84 303.59 1634.23 296.92 1647.27 302.48 1644.88 309.15"/><polygon class="cls-16" points="1637.35 330.2 1624.31 324.64 1626.7 317.97 1639.73 323.53 1637.35 330.2"/><polygon class="cls-16" points="1629.81 351.25 1616.77 345.69 1619.16 339.02 1632.2 344.58 1629.81 351.25"/><polygon class="cls-16" points="1622.28 372.3 1609.24 366.74 1611.63 360.07 1624.66 365.63 1622.28 372.3"/><polygon class="cls-16" points="1622.28 372.3 1609.24 366.74 1611.63 360.07 1624.66 365.63 1622.28 372.3"/><polygon class="cls-16" points="1614.74 393.35 1601.7 387.79 1604.09 381.12 1617.13 386.68 1614.74 393.35"/><polygon class="cls-16" points="1607.21 414.4 1594.17 408.84 1596.56 402.17 1609.6 407.73 1607.21 414.4"/><polygon class="cls-16" points="1687.65 314.4 1674.61 308.84 1677 302.17 1690.04 307.73 1687.65 314.4"/><polygon class="cls-16" points="1707.12 322.71 1694.09 317.15 1696.47 310.48 1709.51 316.04 1707.12 322.71"/><polygon class="cls-16" points="1726.6 331.01 1713.56 325.45 1715.95 318.78 1728.98 324.34 1726.6 331.01"/><polygon class="cls-16" points="1746.07 339.32 1733.03 333.76 1735.42 327.09 1748.46 332.65 1746.07 339.32"/><path class="cls-16" d="M1753.06,320.59,1651.6,277.32c-3.94-1.68-5.88-6.53-4.34-10.83h0c1.53-4.3,6-6.43,9.92-4.75L1758.64,305c3.94,1.68,5.88,6.53,4.34,10.83h0C1761.44,320.15,1757,322.27,1753.06,320.59Z"/><rect class="cls-4" x="1251.48" y="300.82" width="141.97" height="107.46" rx="14.18"/><rect class="cls-16" x="1259.25" y="320.9" width="113.09" height="16.22" rx="8.11"/><rect class="cls-16" x="1259.25" y="350.33" width="68.24" height="8.11" rx="4.05"/><rect class="cls-16" x="1259.25" y="382.99" width="48.69" height="8.11" rx="4.05"/><rect class="cls-16" x="1259.25" y="365.63" width="82.6" height="8.11" rx="4.05"/><path class="cls-23" d="M1187.18,514h104.36c4,0,7.26-3.55,7.26-7.93h0c0-4.38-3.25-7.93-7.26-7.93H1187.18c-4,0-7.26,3.55-7.26,7.93h0C1179.92,510.42,1183.17,514,1187.18,514Z"/><path class="cls-23" d="M1188.18,543h104.36c4,0,7.26-3.55,7.26-7.93h0c0-4.38-3.25-7.93-7.26-7.93H1188.18c-4,0-7.26,3.55-7.26,7.93h0C1180.92,539.42,1184.17,543,1188.18,543Z"/><path class="cls-23" d="M1187.18,575h104.36c4,0,7.26-3.55,7.26-7.93h0c0-4.38-3.25-7.93-7.26-7.93H1187.18c-4,0-7.26,3.55-7.26,7.93h0C1179.92,571.42,1183.17,575,1187.18,575Z"/></svg>