<svg id="Layer_1" data-name="Layer 1" xmlns="http://www.w3.org/2000/svg" xmlns:xlink="http://www.w3.org/1999/xlink" viewBox="0 0 1920 1080"><defs><style>.cls-1{fill:#fff;}.cls-2{fill:#fafafa;}.cls-3{fill:#194055;}.cls-4{fill:#218838;}.cls-5{fill:#e7edff;}.cls-6{clip-path:url(#clip-path);}.cls-7{fill:#88a0e2;}.cls-8{fill:#ffb27d;}.cls-9{fill:#e2915a;}.cls-10{fill:#233862;}.cls-11{fill:#9db0f4;}.cls-12{fill:#aec3ff;}.cls-13{fill:#a9453d;}.cls-14{fill:#ed975d;}.cls-15{fill:#2a4e96;}.cls-16{fill:#5f9aa8;}.cls-17{fill:#75ba40;}.cls-18{fill:#1e3d70;}.cls-19{fill:#61a62c;}.cls-20{fill:#464951;}.cls-21{fill:#201d40;}.cls-22{fill:#161336;}.cls-23{fill:#2c2858;}.cls-24{fill:#ed985f;}.cls-25{fill:#36446e;}.cls-26{fill:#d7e1ff;}</style><clipPath id="clip-path"><rect class="cls-1" x="1357.4" y="489.08" width="71.96" height="98.37"/></clipPath></defs><rect class="cls-2" width="1920" height="1080"/><path class="cls-3" d="M1032.12,989.55S940.5,880.44,958.3,700.78c18.44-186,115.39-285,241.86-247.44,103.38,30.71,170,11,276.88-76.76,175.31-143.93,401.26,11.89,342.15,290.77-28.61,134.95,91.45,201.64-9,322.49Z"/><path class="cls-4" d="M1554.54,469.39s60.9-84.13,78.92-65.91S1554.54,469.39,1554.54,469.39Z"/><path class="cls-4" d="M1550.36,485.26s115.09-76.24,143.53-39.64-31.28,34.42-53.45,31.12S1550.36,485.26,1550.36,485.26Z"/><path class="cls-4" d="M1545.07,468s.46-4,1.08-9.94c1.2-11.53,3-30.17,3.18-39.85.26-14.64,8.63-25.37,18.4-10.89s-19.12,56.52-19.12,56.52Z"/><path class="cls-4" d="M1242.93,612.86c5.33-23.66,34.62-14.81,34.62-14.81s19,42.72,24.77,44-11-40.86-11-40.86c11.32-1,39.59,19.29,39.59,19.29s-3,48.67,2.81,47.95,1.09-43.28,1.09-43.28c10.8,5,20.55,22.88,20.55,22.88,12,29-15.79,48.56-15.79,48.56a104.81,104.81,0,0,0,6.37,36.66h0a69.33,69.33,0,0,1,3.23,9.83l-3-.14c-.21-1.1-.45-2.16-.72-3.19v-.06c-.19-.64-.46-1.55-.8-2.66h0c-.85-2.47-1.42-4.3-1.77-5.62h0c-2.53-7.76-6.2-17.9-8.77-20.11a8.73,8.73,0,0,0,.68-1.84c-.21.59-.44,1.2-.68,1.84-5.47,14.68-31,16-45.1,11.33s-7.77-9.83.1-18.35,23.82-5.43,28.63-8.69-2-7.07-11.49-6.52-14.54,13.27-29.88,14.54-26-38.58-26-38.58c10.44,5,29.56-2.09,30.42-7s-27.19-5.75-31.52-7.45S1237.6,636.51,1242.93,612.86Z"/><path class="cls-4" d="M1689.86,642.59c-5.39-19.08-29.16-9.47-29.16-9.47s-13.83,36.71-18.55,38.22,7.33-34.55,7.33-34.55c-9.37.1-31.81,19-31.81,19s4.57,39.87-.29,39.74-2.72-35.59-2.72-35.59c-8.7,5-16,20.49-16,20.49-8.69,24.81,15.07,38.78,15.07,38.78a88,88,0,0,1-3.69,30.72h0a59.2,59.2,0,0,0-2.25,8.36l2.45-.35c.13-.93.28-1.83.46-2.7h0v0l.55-2.25h0c.59-2.1,1-3.65,1.22-4.77h0c1.76-6.6,4.36-15.25,6.38-17.27a7.13,7.13,0,0,1-.64-1.46l.64,1.46c5.13,11.67,26.24,10.72,37.66,5.77s6-8.71-.86-15.12-19.86-2.59-24-4.89,1.36-6,9.2-6.28,12.55,9.78,25.24,9.61,19.79-33.85,19.79-33.85c-8.39,4.93-24.46.61-25.37-3.39s22.16-6.9,25.66-8.64S1695.26,661.66,1689.86,642.59Z"/><path class="cls-4" d="M1259.22,389.09c13.81-36.7,60-10.47,60-10.47s22,77.7,31.23,82.1-9.31-71.45-9.31-71.45c18.78,2.94,60.85,47.48,60.85,47.48s-15.4,78.66-5.65,79.81,11-70.6,11-70.6c16.67,12.51,28.85,45.77,28.85,45.77,13.54,52.32-36.31,73.39-36.31,73.39s-4.91,27.42,2.6,62.71h0a126.18,126.18,0,0,1,3.2,17.43l-4.85-1.42c-.12-1.89-.29-3.74-.52-5.53,0,0,0,0,0,0s0,0,0-.08c-.17-1.12-.42-2.72-.74-4.67h0c-.87-4.4-1.41-7.62-1.71-9.93v0c-2.5-13.75-6.36-31.86-10.1-36.51a13.32,13.32,0,0,0,1.51-2.74l-1.51,2.74c-12.12,21.91-54.31,13.82-76.44.57s-10.65-19.24,4.08-30.08,40.25.61,48.86-2.82-1.78-12.4-17.47-15.29-26.71,16-52.15,11.92-34.41-73.7-34.41-73.7c16.08,12.33,49,8.37,51.43.61s-43.38-20.32-50.12-24.84S1245.41,425.78,1259.22,389.09Z"/><rect class="cls-1" x="1329.41" y="442.85" width="295.71" height="546.62"/><rect class="cls-5" x="1338.64" y="453.5" width="274.69" height="522.32"/><rect class="cls-1" x="1357.4" y="489.08" width="71.96" height="98.37"/><g class="cls-6"><polygon class="cls-7" points="1417.28 682.58 1360.38 682.58 1401.17 557.56 1415.28 600.78 1420.43 642.8 1417.28 682.58"/><path class="cls-1" d="M1372.85,560.79l9.11-3.23,8.85-4.29s5.14,3.35,8.8,4.29c4,1,17.29,31.4,17.29,32.67S1406.5,682,1406.5,682h-50.24Z"/><path class="cls-8" d="M1397.79,562.49c-4.51,1.06-11.08-.43-15.84-4.94a80.41,80.41,0,0,0,3.67-16.26l.06-.56a23.25,23.25,0,0,0,.12-3.75l11.6.37s3.14,2.09,3.12,3.46c0,.73,0,1.43,0,2.1,0,1.83,0,3.42.06,4.79.15,4.46.61,9.86.61,9.86S1402.34,561.42,1397.79,562.49Z"/><path class="cls-9" d="M1400.56,547.7c-8.83,2-13.82-4.69-14.94-6.41-.16-.24-.24-.39-.24-.39l.3-.17c3.3-1.71,10.83-.79,14.94,1.42C1400.62,544,1400.51,546.33,1400.56,547.7Z"/><path class="cls-8" d="M1382.37,535.85c3,11,13.7,8.11,18.25,6.3a20.72,20.72,0,0,0,2.08-.94c1.41-.88,1.83-4.25,1.68-8.5-.28-8.41-2.76-20.26-4.17-23.11-2.12-4.29-5.64-8.64-16-2.45S1378.54,521.72,1382.37,535.85Z"/><path class="cls-10" d="M1399.23,499.82c-3.68-3.7-7-4.51-9.34-4.55-7.07-.13-12.55,4.75-12.58,4.78-8.17,7.41-9.31,17.2-2.8,30.5,6.89,14.07,11.09,11,11.09,11s-.81-.36-1.32-5.13q0-.4-.06-.69a3.57,3.57,0,0,0-1.07-2.43c-1.27-1.08-2.32-5-1.54-6.35.94-1.62,2.71-.34,3.37.82a1.15,1.15,0,0,0,2,.12c2.45-3,.06-7.36,2.33-10.9S1405.15,515,1406,504.6A22.23,22.23,0,0,1,1399.23,499.82Z"/><path class="cls-3" d="M1401.17,557.56s14.25,40.19,16.11,71.23a424.25,424.25,0,0,1,0,53.79,276.37,276.37,0,0,0,10.14-66.18c.39-15.95-1.48-44.83-5.44-49.94C1420,564,1414.24,561.59,1401.17,557.56Z"/><path class="cls-3" d="M1385.3,610.71c0,4.59-.18,9.39-.42,14.35a329.16,329.16,0,0,1-7.55,56.9h-46.64s5.77-19.2,12.76-40.08c1.22-3.65,2.48-7.36,3.75-11,5.16-14.86,10.52-29,14.44-36.16,10.41-19,20.32-37.14,20.32-37.14S1385.61,579.31,1385.3,610.71Z"/><path class="cls-11" d="M1372.49,639.5s-9.57,5.2-29,2.38c1.22-3.65,2.48-7.36,3.75-11Z"/><path class="cls-11" d="M1385.3,610.71c0,4.59-.18,9.39-.42,14.35-6.28-.46-28.72-2.15-28.61-2.59s2.07-12.19,2.07-12.19,18.87,6.27,26.92,0Z"/><path class="cls-8" d="M1376.51,624.5s6.69-5.42,9.79-5.17,8,1.62,8.79,5.17-1.11,1.83-5.26,2.93c-2.45.65-3.95,5.46-7.13,5.88-1.24.17-6.19-1.19-6.19-1.19Z"/><path class="cls-3" d="M1382,557.56s-17.12,2.76-21.58,8.52c-7.54,9.74-27.38,46.56-25.42,62.71,1.3,10.71,37.53,10.71,37.53,10.71s4.48-4,6.12-7.54c3.35-7.29,2.19-12.63,2.19-12.63l-22.41-10.4s10.93-14.49,19.36-15.25C1383.91,593.13,1382,557.56,1382,557.56Z"/></g><rect class="cls-12" x="1448.4" y="549.5" width="90.17" height="2.47"/><rect class="cls-12" x="1448.4" y="561.04" width="90.17" height="2.47"/><rect class="cls-12" x="1448.4" y="572.72" width="90.17" height="2.47"/><rect class="cls-1" x="1448.4" y="481.73" width="27.59" height="37.71"/><rect class="cls-12" x="1503.6" y="511.19" width="34.97" height="4.35"/><rect class="cls-12" x="1495.99" y="521.38" width="42.59" height="4.35"/><rect class="cls-12" x="1356.47" y="918.33" width="94.69" height="2.17"/><rect class="cls-12" x="1356.47" y="928.7" width="94.69" height="2.17"/><rect class="cls-12" x="1356.47" y="941.25" width="94.69" height="2.17"/><rect class="cls-12" x="1360.86" y="612.58" width="178.08" height="2.47"/><rect class="cls-12" x="1360.86" y="624.12" width="178.08" height="2.47"/><rect class="cls-12" x="1360.86" y="635.8" width="178.08" height="2.47"/><rect class="cls-12" x="1358.09" y="663.8" width="180.85" height="2.47"/><rect class="cls-12" x="1358.09" y="675.34" width="180.85" height="2.47"/><rect class="cls-12" x="1358.09" y="687.02" width="180.85" height="2.47"/><rect class="cls-12" x="1357.17" y="717.34" width="181.77" height="2.47"/><rect class="cls-12" x="1357.17" y="728.88" width="181.77" height="2.47"/><rect class="cls-12" x="1357.17" y="740.56" width="181.77" height="2.47"/><rect class="cls-3" x="907" y="987.62" width="975.47" height="3.38" rx="1.37"/><path class="cls-8" d="M1538,982.25c-.27,5.07-5.51,5.13-11.46,4.18s-4.36,1.12-12.69,1.28-11.19-3.61-11.59-5.23c-.36-1.45,3.65-2.66,7.94-4.09.54-.17,1.08-.36,1.62-.55,4.83-1.68,8-6.63,12.17-11,3.92-4.09,9-18.9,9-18.9l11.37-.7s-4.79,13.28-6.59,19c-1.06,3.37-.61,7.5-.15,10.68A26.45,26.45,0,0,1,1538,982.25Z"/><path class="cls-10" d="M1526.52,986.43c-5.94-.94-4.36,1.12-12.69,1.28s-11.19-3.61-11.59-5.23c-.36-1.45,3.65-2.66,7.94-4.09l0,.11a18.31,18.31,0,0,0,12.21,3c5.59-.76,11.29-4,15.14-4.52a26.45,26.45,0,0,1,.4,5.28C1537.71,987.32,1532.47,987.38,1526.52,986.43Z"/><path class="cls-8" d="M1616.51,983.3c-.26,5.07-5.5,5.14-11.45,4.2s-4.36,1.12-12.69,1.29-11.19-3.59-11.6-5.21c-.36-1.44,3.65-2.66,7.94-4.1.54-.17,1.08-.36,1.62-.55,4.84-1.69,8-6.64,12.17-11,3.91-4.1,0-28.36,0-28.36L1615,938s-.6,20.42-.59,29.71c0,3.66,1.23,7.19,1.7,10.36A27.26,27.26,0,0,1,1616.51,983.3Z"/><path class="cls-10" d="M1605.06,987.5c-6-.93-4.36,1.12-12.69,1.29s-11.19-3.59-11.6-5.21c-.36-1.44,3.65-2.66,7.94-4.1l0,.11a18.24,18.24,0,0,0,12.22,3c5.58-.77,11.28-4,15.14-4.54a27.26,27.26,0,0,1,.39,5.28C1616.25,988.37,1611,988.44,1605.06,987.5Z"/><path class="cls-13" d="M1580,564c-2.15-12.1,1-17.74,3.79-20.74,1.33-4.46,2.86-7.67,4.42-8.88a12.34,12.34,0,0,1,8.63-2.26A3.7,3.7,0,0,0,1595,531c1.47-.3,4.77,1.7,4.77,1.7,20.55-10.82,23.78,30.54,23.35,40.15s-.37,20.93,10.32,28.5c20.4,14.45-6.78,68.89-6.78,68.89.52-7.77-25.69-48.75-39.37-61-3.33-6.7-4.51-18.53-4.6-19.47.58,9.39,1.75,14.65,2.8,17.62C1579.29,599.47,1578.36,580.64,1580,564Z"/><path class="cls-8" d="M1588.13,609.78c-.07,0,6.61,4.78,11.62,2.9,4.72-1.76,7.81-10.12,7.74-10.14-2-.55-2.57-4.3-2.53-20.44l-.9.25-15.2,4.11s.35,6.54.36,12.69C1589.23,604.32,1589,609.23,1588.13,609.78Z"/><path class="cls-14" d="M1588.86,586.46s.35,6.54.36,12.69c8.5-.32,13-10.93,14.84-16.8Z"/><path class="cls-15" d="M1527,956.22c-.75,3.19.93,6.48,3.38,6.64l5.93.38,6.28.26a4.64,4.64,0,0,0,4.07-2.53c5-8.41,20.44-36.43,29.8-77.15.27-1.14.55-2.29.84-3.46,6.18-24.64,19-55.57,25.75-83.57,1.08-4.46,2-8.65,2.91-12.63.28-1.27.55-2.52.8-3.75a396,396,0,0,0,7.75-55.74l-48.77.53S1555.51,834.28,1527,956.22Z"/><path class="cls-1" d="M1572.61,686.89c.12,31.73-3.41,45.34-3.41,45.34s20.88,14.5,45.7,3.82l17.76-6.88c-.42-1.28-3.87-22.51-4.27-23.69-5.24-15.38-6.67-21.84-7.29-26.56a137,137,0,0,1-.61-26.58,283.28,283.28,0,0,1,6-41.74c-6.76-2.1-13.09-5.8-20.13-9.41-1.62,2.76-6.57,5.64-10.86,5.51-5-.15-6.55-3-6.29-6.2-5.27,4-9.47,7.79-9.47,7.79-4.48,10.63-13.56,21-14.22,37.27C1565.38,649.57,1572.6,686,1572.61,686.89Z"/><path class="cls-16" d="M1614.55,690.43c2.13,4.13,6.22,29.19,16.39,32.35-5.24-17.87-9.22-25.71-9.84-31.2a184.54,184.54,0,0,1-.61-30.87c-3.4-8.16-5.94-13.75-5.94-13.75-.27-1.32-5.41-23.05-7.06-3.62S1612.17,685.82,1614.55,690.43Z"/><path class="cls-8" d="M1586,592.29s20.12.45,20.13-16.68,2.62-28.6-10.22-29.62-15.35,5.52-16.37,11.24S1580.79,591.73,1586,592.29Z"/><path class="cls-13" d="M1586.77,545.57s5.5,20.1,14,23.07,12.12-.12,12.12-.12-6.49-7-7.83-19.34C1605,549.18,1590.92,536,1586.77,545.57Z"/><path class="cls-13" d="M1588.13,547.2s-4.11,4.49-5.12,8.85-1.45,13.35-3.36,13c0,0-4.15-13.66.51-21.39C1585.11,539.51,1588.13,547.2,1588.13,547.2Z"/><polygon class="cls-8" points="1554.37 708.91 1544.86 748.51 1550.28 751.48 1565.99 716.5 1554.37 708.91"/><path class="cls-17" d="M1580,606s-11.2,6.08-14.44,15.55-8.15,73-10.11,79.56-3.43,11.7-3.43,11.7,5.65,6.5,11.34,7S1580,606,1580,606Z"/><path class="cls-17" d="M1589.23,600.5s-11.64,39.31-12,47.26-1.37,130.08-1.37,130.08.68,5.62-7.19,3.28-9.93-4.68-9.93-4.68,7.53-75.34,5.48-101.54S1580,606,1580,606Z"/><path class="cls-18" d="M1536.35,963.24l6.82.28a3.57,3.57,0,0,0,3.16-1.95c4.59-7.59,20.57-36,30.17-77.75.27-1.14.55-2.29.84-3.46,6.18-24.64,19-55.57,25.75-83.57,1.08-4.46,2-8.65,2.91-12.63.28-1.27.55-2.52.8-3.75l-7.18-7.45s-21.56,47.73-28.24,92.64C1565.58,904.62,1542.36,951.56,1536.35,963.24Z"/><path class="cls-15" d="M1598.87,869.79c-.12,20.66.6,66.72,2.44,89.23.17,2.06,1.44,3.62,3,3.62h5.09c2.14,0,3.75,0,4.81,0s1.71-.92,1.89-2.16c5.06-35.2,8.68-64.44,11.34-89.71,2.21-21.15,4.19-39.28,5.7-54.89s2.59-28.86,3-40c.06-1.75.1-3.46.13-5.11s0-3.27,0-4.84l-42.14-5.62C1594.61,798.57,1598.94,857.09,1598.87,869.79Z"/><path class="cls-18" d="M1609.36,962.64c1.93,0,3.42,0,4.47,0s2.08-1.12,2.3-2.62c5-35,8.63-64.1,11.27-89.26,2.21-21.15,4.19-39.28,5.7-54.89s2.59-28.86,3-40l-15.46,12.43s9.87,4.76,6.1,40.79S1614.6,957.53,1609.36,962.64Z"/><path class="cls-17" d="M1607.37,775.5s3,14.66,13.24,12.79S1645.48,778,1645.48,778s-4.39-19-9.85-43.86c-6.6-30.15-14.78-69-18.63-93.53-1.09-6.87-1.83-12.6-2.1-16.71l-8.52-22.6s-12.7,39-13.39,48.8S1607.37,775.5,1607.37,775.5Z"/><path class="cls-8" d="M1617.62,648.64l-11.24-47.34s14.2,5.77,21.33,10.69c0,0,4.46,7.85,7.21,26,0,0,2.92,43.49-3.59,59.4,0,0-20.54,5.62-53.4-9.83V677.24s35.94,2.57,43.3,3.74Z"/><path class="cls-19" d="M1607.82,670.69c.46,15.91,3.2,46.79,27.62,63.32l.19.13c-6.6-30.15-14.78-69-18.63-93.53C1612.51,649.77,1607.58,661.93,1607.82,670.69Z"/><path class="cls-17" d="M1606.38,601.3s20.84,2,25.86,17.29,6.62,66.14.23,81.11c0,0-8.79,3.43-24.35-.55l-.58-.15s-5-16.61-.51-19.89c0,0,13.12.94,11.75-5S1606.38,601.3,1606.38,601.3Z"/><path class="cls-3" d="M1554.12,683.6l.61,2.7,34.2-14.55a2.29,2.29,0,0,0,.24-1.65c-.25-1-.85-1-.85-1Z"/><polygon class="cls-3" points="1551.64 686.15 1554.12 683.6 1554.73 686.3 1551.64 686.15"/><path class="cls-8" d="M1546.21,747.43s-8.67,6.55-9.81,11.55-.36,15.45,1,15.29,3.43-11.23,4.57-12,2.74-3.12,2.74-1.41-1.14,4.84-.57,5.31,2.4-4.37,3.65-5.31,1.79-8.65,3-10.72S1546.21,747.43,1546.21,747.43Z"/><path class="cls-8" d="M1577.93,677.24s-7.76-6.53-11-5.53-11.56,9.22-7.56,11,7.22-.09,8.75,1.2,2.67,3.66,9.82,3.62S1577.93,677.24,1577.93,677.24Z"/><polygon class="cls-1" points="1175.62 725.16 1222.57 719.87 1217.48 635.38 1170.52 640.67 1175.62 725.16"/><polygon class="cls-5" points="1177.61 721.95 1220.28 717.14 1215.53 638.41 1172.87 643.22 1177.61 721.95"/><polygon class="cls-12" points="1178.7 680.5 1213.21 676.94 1213.18 676.44 1178.67 680 1178.7 680.5"/><polygon class="cls-12" points="1178.82 682.83 1213.33 679.27 1213.3 678.77 1178.79 682.33 1178.82 682.83"/><polygon class="cls-12" points="1178.93 685.19 1213.44 681.62 1213.42 681.12 1178.91 684.69 1178.93 685.19"/><polygon class="cls-12" points="1180.31 708.27 1202.55 705.76 1202.52 705.26 1180.28 707.77 1180.31 708.27"/><polygon class="cls-12" points="1180.45 710.6 1202.69 708.09 1202.66 707.59 1180.42 710.1 1180.45 710.6"/><polygon class="cls-12" points="1180.6 712.95 1202.84 710.45 1202.81 709.95 1180.57 712.45 1180.6 712.95"/><polygon class="cls-12" points="1176.59 657.96 1198.83 655.46 1198.8 654.96 1176.56 657.46 1176.59 657.96"/><polygon class="cls-12" points="1176.73 660.29 1198.97 657.78 1198.94 657.28 1176.7 659.79 1176.73 660.29"/><polygon class="cls-12" points="1176.87 662.64 1199.11 660.14 1199.08 659.64 1176.84 662.14 1176.87 662.64"/><polygon class="cls-12" points="1176.65 650.27 1188.62 648.92 1188.55 647.83 1176.58 649.17 1176.65 650.27"/><polygon class="cls-12" points="1176.65 653.13 1191.23 651.49 1191.16 650.39 1176.58 652.04 1176.65 653.13"/><polygon class="cls-12" points="1178.1 669.56 1212.61 665.99 1212.59 665.49 1178.08 669.06 1178.1 669.56"/><polygon class="cls-12" points="1178.22 671.89 1212.73 668.32 1212.7 667.82 1178.19 671.39 1178.22 671.89"/><polygon class="cls-12" points="1178.34 674.25 1212.85 670.68 1212.82 670.18 1178.31 673.75 1178.34 674.25"/><path class="cls-8" d="M1166.8,652.36c.81-.78,1.45-2.53,2.28-3.83a9.65,9.65,0,0,1,1.8-1.91s.12,2.27.25,4.11c2.47-1.26,6.17-2.42,12.1-.87a4.67,4.67,0,0,1,2.91,2.62,3.25,3.25,0,0,1-.68,4.18c-3,2.57-2.15,1-6.35,4.77s-9.34,4.7-12.41,2.07l-4.12-.94-.52-9.27S1164.41,652.91,1166.8,652.36Z"/><path class="cls-8" d="M1058.77,574.62s9.72,15.76,22.09,9.17c0,0,2.67-8.81,2.7-15.3,0-.8,0-1.57,0-2.31.07-7.3.25-11.4.25-11.4h0c-.56-.32-18.92-10.62-18.91-9.76C1065.23,564.77,1058.77,574.62,1058.77,574.62Z"/><path class="cls-14" d="M1066.76,549.72c1.77,4.48,7.84,13.26,16.82,16.46.07-7.3.25-11.4.25-11.4h0C1083.31,554.59,1066.23,548.4,1066.76,549.72Z"/><path class="cls-8" d="M1087.68,554s-20.65,6.63-23.47-11-7.4-28.66,5.67-33.64,16.71,1,18.7,6.56S1093,551.84,1087.68,554Z"/><path class="cls-13" d="M1064.91,547.82c-.28.25-4.72,2.11-13.13-20.8a26.46,26.46,0,0,1,.85-18.25c3.08-6.87,14-12.27,23.07-14.63s11.24,4.63,13.38,11.64c2.24,7.36,8.71,13.42,8.71,13.42-7.82,6-17.24-2.57-20.5-1.17s-4.41,8.43-4.66,10.69-.62,4.12-4.72,2.11-1.86,7.95-1.2,9.86C1066.71,540.69,1067.27,545.76,1064.91,547.82Z"/><path class="cls-20" d="M1011.73,987.67h-12.5c-2.62,0-5.53-3.58-6.26-10.15s-6.12-10.15-7.29-15.53,4.81-12.94,4.81-12.94l1-1.76,1-1.82,9.9,3.18s.25,3.22.4,7.33c.1,3,.16,6.39,0,9.39-.29,7.17,1.47,14.89,6.13,16.29S1011.73,987.67,1011.73,987.67Z"/><path class="cls-20" d="M1098.76,987.67h-33.14a2.18,2.18,0,0,1-.7-.28c-2.22-1.51-1.52-13.09-1.26-16.67,0-.66.09-1.05.09-1.05s11.65-12.74,13.25-3c.06.3.11.6.18.9h0c2,9.13,11.06,13.27,16.28,14.43A6.67,6.67,0,0,1,1098.76,987.67Z"/><path class="cls-21" d="M1092.08,726.47s-1.77,30.18-3.85,66.45c-2.83,49.29-6.23,109.82-6.57,121.29-.58,19.91-2.91,51.76-2.91,51.76s-5.53,7.57-16.6,4.38c0,0-9.87-45.47-12.69-93.58,0-.79-.09-1.58-.13-2.38-2.62-49-6.7-152.1-6.7-152.1Z"/><path class="cls-22" d="M1092.08,726.47s-1.77,30.18-3.85,66.45l-38.77,83.85c0-.79-.09-1.58-.13-2.38-2.62-49-6.7-152.1-6.7-152.1Z"/><path class="cls-21" d="M1084,730.05s-31.9,109.3-52.87,160.67-27.53,65.69-27.53,65.69-12-6.57-13.11-11c0,0,8-99.17,22.07-123.34,7.93-13.66,17.25-54.65,17.69-69s2.84-42.71,2.84-42.71Z"/><path class="cls-8" d="M1011.25,710.19l-.33,7s3.39,12.49-6.11,18.89c0,0-4.07,2.25-4.24-2.08s.36-2.7,0-8.8,1.42-11.85,4.37-13.79l2.42-3.82Z"/><path class="cls-21" d="M1007.54,715.31c3.53,1.55,4.1,1.2,4.1,1.2s17.18-42.77,18.92-46.68,36.49-48,36.49-48l-8.93-45.51s-39.52,69.95-43.79,80c-7.05,16.58-11.18,55.11-11.18,55.11A11,11,0,0,0,1007.54,715.31Z"/><path class="cls-23" d="M1098.81,639.74c-.12,9.35-.52,19.86-1.06,30.53,0,.63-.06,1.26-.1,1.9-.34,6.61-1.81,29.66-1.88,30.6-1.75,24.2-3.57,43.32-3.91,43.61a1.63,1.63,0,0,1-1.36.48c-4.64-.8-18.5.64-29.84-2.73-9.57-2.76-17.81-8-26.54-15-1.16-.94-3.8-3.42-3.59-5.27.21-2,.6-5,1.1-8.68,1.72-12.88,4.69-35,5.7-60.94q.3-7.25.86-14.28a288.92,288.92,0,0,1,4.62-34.11c3.89-19.14,9.61-33.8,16.78-39.54.93-.71,6,3.67,10.6,7.73a16.29,16.29,0,0,0,13.16,4.26l3.85,5.82a69.34,69.34,0,0,1,11,31.32c.1,1,.19,2.13.26,3.3C1098.82,624.41,1098.92,631.64,1098.81,639.74Z"/><path class="cls-21" d="M1098.81,639.74c-.12,9.35-.52,19.86-1.06,30.53,0,.63-.06,1.26-.1,1.9-26.52-22.7-30.6-64.22-30.6-64.22,13,.78,23.41,4.88,31.4,10.74C1098.82,624.41,1098.92,631.64,1098.81,639.74Z"/><path class="cls-23" d="M1165.82,657.62c.28-5.38-1.76-6.27-1.76-6.27s-40-9.91-43.39-11.37-32.47-42.8-32.47-42.8-11.14-17.17-20.26-13.38c-7.93,3.3-11,11.75-12.08,19.8-1.26,9.6,2,19.25,8.06,24.35,13.64,11.44,41,34,47.4,36.56,14.32,5.74,52.79.46,52.79.46A21.14,21.14,0,0,0,1165.82,657.62Z"/><path class="cls-8" d="M1771.88,680.64s-.81-11.07,3.42-10.69,5.36,3,4.89,5.16-4.6,9.16-4.6,9.16Z"/><path class="cls-19" d="M1765.26,739.49c-7.39.4-22.19-5.53-27.78-8.67a101.71,101.71,0,0,1-13.82-9.29q-1.58-1.24-3-2.49c-10.08-8.69-14.78-16.22-14.78-16.22s18.9-22.33,26.52-16.48c8.94,6.86,24.36,29,27,26.75,2.93-2.56,11.12-34,11.12-34,5.38-1.4,6.55,4.17,6.55,4.17S1775.75,738.91,1765.26,739.49Z"/><path class="cls-20" d="M1734.06,974.12s-.78,12.25,1.12,13.52l24.23-.07a4.88,4.88,0,0,0-3.89-4.67c-3.89-.85-10.73-4-11.89-10.91S1734.06,974.12,1734.06,974.12Z"/><path class="cls-15" d="M1751.85,825.9c-.12,8-.4,16.26-.95,23.69-2.62,35.22-3.54,77.79-3.92,86-.65,14.24-2.71,37-2.71,37s-4.08,5.3-12,2.77a496.11,496.11,0,0,1-8.07-67.29l-.06-1.7c-.17-4.56-.35-9.78-.53-15.41-1.22-37.68-2.53-93.66-2.53-93.66l30.41-9.76S1752.15,805.93,1751.85,825.9Z"/><path class="cls-10" d="M1751.85,825.9c-7.71,18.17-22.4,51.66-28.28,65.05-1.22-37.68-2.53-93.66-2.53-93.66l30.41-9.76S1752.15,805.93,1751.85,825.9Z"/><path class="cls-8" d="M1688.41,820s-1.89,10.12-1.58,12.37,2.16,9.87,3.31,11.76,1.19-8.22,2-9.8.35,3.77,1,4.21,1.63-4.06,2.09-5.66-1.64-7.14-1.83-11.12S1688.41,820,1688.41,820Z"/><path class="cls-20" d="M1673.68,960.2s-4.31,5.38-3.47,9.21,4.73,6.37,5.26,11,2.63,7.22,4.52,7.22h9s1.4-3.28-2-4.28-4.64-6.48-4.43-11.58-.31-11.89-.31-11.89l-7.16-2.27Z"/><path class="cls-15" d="M1746.66,798.15S1718.19,881.42,1703,918s-19.88,46.74-19.88,46.74-8.68-4.68-9.47-7.86c0,0,5.79-70.54,15.94-87.73,5.73-9.72,12.47-38.88,12.78-49.07s7-34.54,7-34.54Z"/><path class="cls-17" d="M1752,793.81s-9.27,13.64-25,17.76c-6.92,1.81-21,3.56-24.43-3.17-.82-1.58-.83-3.92-.64-7.57.46-9.49,2.21-27.84-5.67-64.72a82.84,82.84,0,0,1-1.52-9.86c-1.72-18.86,4.1-32.25,10.93-38.22,16.67-14.58,24.82-4.51,24.82-4.51s9.54,6.1,13.9,23.86C1753.05,742.91,1752,793.81,1752,793.81Z"/><path class="cls-8" d="M1710.58,684.22s9.54,4.23,18.24-.67c0,0,1.68-1.2.31-3.78.14-2.5.11-2.27.13-4.09.11-4.22,0-6.58,0-6.58l-6.42-5.71-6.08-5.47C1718.3,675.19,1710.58,684.22,1710.58,684.22Z"/><path class="cls-24" d="M1717.05,664.56s4.56,9.3,12.21,11.12c.11-4.22-.09-8.53-.09-8.53l-6.37-3.76Z"/><path class="cls-8" d="M1734.91,666.88s-15.44,7.87-18.88-5.13-7.74-20.75,2-26.34,13-1.55,14.89,2.41S1738.84,664.49,1734.91,666.88Z"/><path class="cls-25" d="M1706.41,636.88c-.18-.19-.54-.28-1.29-.14a3,3,0,0,1,1.31-.91c0-1.45.14-4.11,1.83-5.19a3.63,3.63,0,0,0-.76,2.49c1.64-3.45,5.76-6.75,18.18-8.74,16.37-2.61,13.1,12.93,11.25,15.18s-7.76-1-11.59.52-3.46,9.36-4.62,10.77-.92-.6-2.86-1.22-1.53,3.47-.64,6-1,6.62-1,6.62l-3-3c-3-3-7.57-17.8-6.92-21.4C1706.29,637.52,1706.35,637.2,1706.41,636.88Z"/><path class="cls-19" d="M1701.87,800.83c.46-9.49,2.21-27.84-5.67-64.72a82.84,82.84,0,0,1-1.52-9.86h0c5.86-2.64,16.54,3.24,16.54,3.24S1713.72,778.23,1701.87,800.83Z"/><path class="cls-17" d="M1706.31,687.43s-12.09,9.36-16.23,30.25c-3.39,17.12-8.63,42.58-9.26,50.54s6.39,54.58,6.39,54.58,1,1,3.42.32a5.87,5.87,0,0,0,3.41-2.78s1.68-31.07,1.24-45.74c-.18-6.1,20.64-44.64,31.88-49.6C1731.58,723.05,1706.31,687.43,1706.31,687.43Z"/><path class="cls-19" d="M1714.69,676.34s-2,1.34-5.94,8.47c0,0,7.3,12.5,17.82,10.87a64.1,64.1,0,0,1-1.23-10.6S1716.54,683.74,1714.69,676.34Z"/><path class="cls-19" d="M1725.34,685.08s5.62,2,7,7.53c0,0,1.2-4.75.15-7.43a23.26,23.26,0,0,0-3.33-5.41S1729.89,683.16,1725.34,685.08Z"/><path class="cls-1" d="M1802.73,654.23a177,177,0,0,0-44.89,5.24l-2.51-8.65-2.75-9.48s24.14-14.21,38.65-34Z"/><path class="cls-17" d="M1790.9,606.89l12,48.27h0c1.75-.7,2.71-3.27,2.1-5.62L1794.43,609c-.51-2-2.14-2.93-3.53-2.09Z"/><path class="cls-26" d="M1802.73,654.23a177,177,0,0,0-44.89,5.24l-2.51-8.65C1777.93,644.51,1802.73,654.23,1802.73,654.23Z"/><path class="cls-17" d="M1764.49,657.73,1758,659.3c.1,0-6,1.63-8.06-5.81a7.9,7.9,0,0,1-.39-1.61c-1.56-9.29,2.16-11,2.16-11l8.38-4.46,2.67,12.88v.05Z"/><path class="cls-19" d="M1764.49,657.73,1758,659.3c.1,0-6,1.63-8.06-5.81,3.68-3.67,12.82-4.19,12.82-4.19v.05Z"/><path class="cls-26" d="M1779.48,690.16h0c-2.33.64-4.61-1.45-5.08-4.63l-4.12-28.17c-.46-3.18,1.06-6.3,3.39-6.93h0c2.32-.64,4.61,1.44,5.07,4.62l4.12,28.17C1783.33,686.4,1781.8,689.53,1779.48,690.16Z"/><path class="cls-8" d="M1778.92,662.88s-3.18,1.73-2.6,3.65,4.63,4.56,5.27,3S1780.93,661.26,1778.92,662.88Z"/><path class="cls-8" d="M1771.82,678.89s-.6-4.45-.64-6.5-.47-3.59-.12-3.65.55.3.69,1,1,4.63,1,4.63l-.28,3.94Z"/><rect class="cls-12" x="1357.17" y="775.47" width="181.77" height="2.47"/><rect class="cls-12" x="1357.17" y="787.02" width="181.77" height="2.47"/><rect class="cls-12" x="1357.17" y="798.7" width="181.77" height="2.47"/><rect class="cls-12" x="1357.17" y="831.22" width="181.77" height="2.47"/><rect class="cls-12" x="1357.17" y="842.76" width="181.77" height="2.47"/><rect class="cls-12" x="1357.17" y="854.44" width="181.77" height="2.47"/></svg>